<?xml version="1.0" encoding="UTF-8"?>
<svg id="Layer_1" xmlns="http://www.w3.org/2000/svg" version="1.1" viewBox="0 0 287.88137 157.72658">
  <!-- Generator: Adobe Illustrator 29.6.1, SVG Export Plug-In . SVG Version: 2.1.1 Build 9)  -->
  <rect x="7.96415" y=".5" width="269.49161" height="147.04909" fill="#fff" stroke="#000" stroke-miterlimit="10"/>
  <rect x="-29.70824" y="60.4584" width="80.31948" height="15.72255" transform="translate(-57.86817 78.77117) rotate(-90)" fill="#fff" stroke="#000" stroke-miterlimit="10" stroke-width=".75"/>
  <rect x="239.48536" y="60.4584" width="80.31948" height="15.72255" transform="translate(211.32543 347.96477) rotate(-90)" fill="#fff" stroke="#000" stroke-miterlimit="10" stroke-width=".75"/>
  <g>
    <rect x="-31.92347" y="58.24317" width="80.31948" height="15.72255" transform="translate(-57.86817 74.34072) rotate(-90)" fill="#fff" stroke="#000" stroke-miterlimit="10" stroke-width=".75"/>
    <g>
      <path d="M6.84403,76.82725h.76465v2.88574c-.28906-.03125-.56299-.125-.82178-.28125s-.60205-.46484-1.02979-.92578c-.3457-.37109-.58008-.59863-.70312-.68262-.16992-.11328-.33789-.16992-.50391-.16992-.18359,0-.32471.0498-.42334.14746-.09863.09961-.14795.23535-.14795.40918,0,.17188.05176.30859.15527.41016s.27539.16016.51562.17578l-.08203.82031c-.45312-.04883-.77832-.20215-.97559-.45996s-.2959-.58008-.2959-.9668c0-.42383.11426-.75684.34277-.99902s.5127-.36328.85254-.36328c.19336,0,.37744.03418.55225.10449.1748.06836.35791.17871.54932.3291.12695.09961.30957.2793.54785.53906s.39648.4248.47461.49316c.07812.07031.1543.12598.22852.16895v-1.63477Z"/>
      <path d="M6.37821,74.5333l-.88477-.88477-.8877.89062-.54492-.54492.8877-.89062-.88477-.88477.5332-.53027.88477.88477.89355-.89355.54492.54492-.89355.89355.88477.88477-.5332.53027Z"/>
      <path d="M6.02958,66.50303l.2666-.84082c.46875.12891.81689.34375,1.04443.64258.22754.30078.34131.68066.34131,1.1416,0,.57031-.19482,1.03906-.58447,1.40625s-.92236.55078-1.59814.55078c-.71484,0-1.27002-.18457-1.66553-.55371s-.59326-.85449-.59326-1.45605c0-.52539.15527-.95215.46582-1.28027.18359-.19531.44727-.3418.79102-.43945l.20508.8584c-.22266.05078-.39844.15723-.52734.31738-.12891.16211-.19336.35742-.19336.58789,0,.31836.11426.57617.34277.77539.22852.19727.59863.29688,1.11035.29688.54297,0,.92969-.09766,1.16016-.29297s.3457-.44922.3457-.76172c0-.23047-.07324-.42871-.21973-.59473s-.37695-.28516-.69141-.35742Z"/>
      <path d="M5.48759,65.09385c-.4375,0-.80469-.06543-1.10156-.19629-.21875-.09766-.41504-.23145-.58887-.39941-.17383-.16992-.30273-.35449-.38672-.55566-.11328-.26758-.16992-.57617-.16992-.92578,0-.63281.19629-1.13965.58887-1.51855.39258-.38086.93848-.57031,1.6377-.57031.69336,0,1.23584.18848,1.62744.56543s.5874.88086.5874,1.51172c0,.63867-.19482,1.14648-.58447,1.52344s-.92627.56543-1.60986.56543ZM5.45829,64.2003c.48633,0,.85498-.1123,1.10596-.33691s.37646-.50977.37646-.85547-.12451-.62891-.37354-.85156c-.24902-.2207-.62256-.33203-1.12061-.33203-.49219,0-.85938.10742-1.10156.32422-.24219.21484-.36328.50195-.36328.85938s.12256.64551.36768.86426.61475.32812,1.10889.32812Z"/>
      <path d="M7.60868,56.37803v.94336l-.97559.375v1.7168l.97559.35449v.91992l-4.29492-1.67285v-.91699l4.29492-1.71973ZM5.90946,57.97471l-1.59375.5918,1.59375.58008v-1.17188Z"/>
      <path d="M7.60868,56.35459l-2.24121-1.46777-2.05371,1.33008v-1.01367l1.37988-.86133-1.37988-.84375v-1.00488l2.08594,1.33594,2.20898-1.46777v1.0459l-1.48535.95215,1.48535.95508v1.04004Z"/>
      <path d="M12.02958,84.25694l.2666-.84082c.46875.12891.81689.34375,1.04443.64258.22754.30078.34131.68066.34131,1.1416,0,.57031-.19482,1.03906-.58447,1.40625s-.92236.55078-1.59814.55078c-.71484,0-1.27002-.18457-1.66553-.55371s-.59326-.85449-.59326-1.45605c0-.52539.15527-.95215.46582-1.28027.18359-.19531.44727-.3418.79102-.43945l.20508.8584c-.22266.05078-.39844.15723-.52734.31738-.12891.16211-.19336.35742-.19336.58789,0,.31836.11426.57617.34277.77539.22852.19727.59863.29688,1.11035.29688.54297,0,.92969-.09766,1.16016-.29297s.3457-.44922.3457-.76172c0-.23047-.07324-.42871-.21973-.59473s-.37695-.28516-.69141-.35742Z"/>
      <path d="M11.48759,82.84776c-.4375,0-.80469-.06543-1.10156-.19629-.21875-.09766-.41504-.23145-.58887-.39941-.17383-.16992-.30273-.35449-.38672-.55566-.11328-.26758-.16992-.57617-.16992-.92578,0-.63281.19629-1.13965.58887-1.51855.39258-.38086.93848-.57031,1.6377-.57031.69336,0,1.23584.18848,1.62744.56543s.5874.88086.5874,1.51172c0,.63867-.19482,1.14648-.58447,1.52344s-.92627.56543-1.60986.56543ZM11.45829,81.9542c.48633,0,.85498-.1123,1.10596-.33691s.37646-.50977.37646-.85547-.12451-.62891-.37354-.85156c-.24902-.2207-.62256-.33203-1.12061-.33203-.49219,0-.85938.10742-1.10156.32422-.24219.21484-.36328.50195-.36328.85938s.12256.64551.36768.86426.61475.32812,1.10889.32812Z"/>
      <path d="M13.60868,77.99619h-4.29492v-.84375l2.86816-1.75781h-2.86816v-.80566h4.29492v.87012l-2.80078,1.73145h2.80078v.80566Z"/>
      <path d="M13.60868,73.66319h-4.29492v-.84375l2.86816-1.75781h-2.86816v-.80566h4.29492v.87012l-2.80078,1.73145h2.80078v.80566Z"/>
      <path d="M13.60868,69.33897h-4.29492v-3.18457h.72656v2.31738h.95215v-2.15625h.72363v2.15625h1.16895v-2.39941h.72363v3.2666Z"/>
      <path d="M12.02958,62.58897l.2666-.84082c.46875.12891.81689.34375,1.04443.64258.22754.30078.34131.68066.34131,1.1416,0,.57031-.19482,1.03906-.58447,1.40625s-.92236.55078-1.59814.55078c-.71484,0-1.27002-.18457-1.66553-.55371s-.59326-.85449-.59326-1.45605c0-.52539.15527-.95215.46582-1.28027.18359-.19531.44727-.3418.79102-.43945l.20508.8584c-.22266.05078-.39844.15723-.52734.31738-.12891.16211-.19336.35742-.19336.58789,0,.31836.11426.57617.34277.77539.22852.19727.59863.29688,1.11035.29688.54297,0,.92969-.09766,1.16016-.29297s.3457-.44922.3457-.76172c0-.23047-.07324-.42871-.21973-.59473s-.37695-.28516-.69141-.35742Z"/>
      <path d="M13.60868,60.03721h-3.56836v1.27441h-.72656v-3.41309h.72656v1.27148h3.56836v.86719Z"/>
      <path d="M11.48759,57.51475c-.4375,0-.80469-.06543-1.10156-.19629-.21875-.09766-.41504-.23047-.58887-.40039-.17383-.16797-.30273-.35352-.38672-.55469-.11328-.26758-.16992-.57617-.16992-.92578,0-.63281.19629-1.13867.58887-1.51953.39258-.37891.93848-.56934,1.6377-.56934.69336,0,1.23584.18848,1.62744.56543s.5874.88086.5874,1.51172c0,.63867-.19482,1.14648-.58447,1.52344s-.92627.56543-1.60986.56543ZM11.45829,56.62119c.48633,0,.85498-.1123,1.10596-.33691s.37646-.50977.37646-.85547-.12451-.62988-.37354-.85059c-.24902-.22266-.62256-.33301-1.12061-.33301-.49219,0-.85938.1084-1.10156.32324-.24219.2168-.36328.50293-.36328.86035s.12256.64551.36768.86426.61475.32812,1.10889.32812Z"/>
      <path d="M13.60868,52.66905h-4.29492v-1.8252c0-.45898.03857-.79297.11572-1,.07715-.20898.21436-.375.41162-.5s.42285-.1875.67676-.1875c.32227,0,.58838.09473.79834.28418s.34229.47266.39697.84961c.10938-.1875.22949-.34277.36035-.46387.13086-.12305.36328-.28711.69727-.49414l.83789-.52441v1.03711l-.93457.62695c-.33398.22266-.54443.375-.63135.45703s-.14648.16895-.17871.26074-.04834.2373-.04834.43652v.17578h1.79297v.86719ZM11.13017,51.80186v-.6416c0-.41602-.01758-.67578-.05273-.7793s-.0957-.18457-.18164-.24316-.19336-.08789-.32227-.08789c-.14453,0-.26123.03809-.3501.11621-.08887.07617-.14502.18555-.16846.32617-.00977.07031-.01465.28125-.01465.63281v.67676h1.08984Z"/>
      <path d="M12.21122,48.55869l-.08203-.84375c.2832-.05078.49121-.1543.62402-.30859.13281-.15625.19922-.36523.19922-.62891,0-.2793-.05908-.49023-.17725-.63086-.11816-.14258-.25635-.21289-.41455-.21289-.10156,0-.18799.0293-.25928.08984-.07129.05859-.1333.16309-.18604.31152-.03516.10156-.09766.33301-.1875.69434-.11523.46484-.25684.79102-.4248.97852-.23633.26367-.52441.39551-.86426.39551-.21875,0-.42334-.06152-.61377-.18652-.19043-.12305-.33545-.30273-.43506-.53516-.09961-.23438-.14941-.51562-.14941-.8457,0-.53906.11816-.94531.35449-1.2168.23633-.27344.55176-.41602.94629-.42969l.03809.86719c-.2207.03711-.37939.11719-.47607.23828-.09668.12305-.14502.30566-.14502.5498,0,.25195.05176.44922.15527.5918.06641.0918.15527.1377.2666.1377.10156,0,.18848-.04297.26074-.12891.0918-.10938.1875-.375.28711-.79688s.20264-.73438.30908-.93555c.10645-.20312.25195-.36133.43652-.47461.18457-.11523.4126-.17188.68408-.17188.24609,0,.47656.06836.69141.20508s.37451.33008.479.58008.15674.56152.15674.93457c0,.54297-.12549.95996-.37646,1.25098s-.6167.46484-1.09717.52148Z"/>
    </g>
  </g>
  <g>
    <rect x="237.27013" y="58.24317" width="80.31948" height="15.72255" transform="translate(211.32543 343.53432) rotate(-90)" fill="#fff" stroke="#000" stroke-miterlimit="10" stroke-width=".75"/>
    <g>
      <path d="M276.03788,82.82823h.76465v2.88672c-.28906-.03125-.56348-.125-.82227-.28125s-.60156-.46484-1.0293-.92578c-.3457-.37109-.58008-.59961-.70312-.68359-.16992-.11328-.33789-.16992-.50391-.16992-.18359,0-.3252.0498-.42383.14844s-.14746.23438-.14746.4082c0,.17188.05176.30859.15527.41016s.27539.16016.51562.17578l-.08203.82031c-.45312-.04883-.77832-.20117-.97559-.45898s-.2959-.58008-.2959-.9668c0-.42383.11426-.75781.34277-1s.5127-.36328.85254-.36328c.19336,0,.37695.03516.55176.10449s.3584.17871.5498.3291c.12695.09961.30957.2793.54785.53906s.39648.4248.47461.49414.1543.125.22852.16797v-1.63477Z"/>
      <path d="M275.57206,80.53526l-.88477-.88477-.8877.89062-.54492-.54492.8877-.89062-.88477-.88477.5332-.53125.88477.88477.89355-.89258.54492.54492-.89355.89258.88477.88477-.5332.53125Z"/>
      <path d="M276.80253,75.26377h-4.29492v-1.29688l2.92969-.7793-2.92969-.77148v-1.30078h4.29492v.80664h-3.38086l3.38086.85156v.83594l-3.38086.84961h3.38086v.80469Z"/>
      <path d="M276.80253,70.28135h-4.29492v-.86719h4.29492v.86719Z"/>
      <path d="M276.80253,68.58799h-4.29492v-1.39258c0-.52734.02148-.87109.06445-1.03125.06445-.24609.2041-.45117.41992-.61719s.49512-.25.83691-.25c.26367,0,.48535.04883.66504.14453s.32031.2168.42285.36426.1709.29785.2041.4502c.04102.20703.06152.50586.06152.89844v.56641h1.62012v.86719ZM273.23417,67.7208h1.21875v-.47461c0-.3418-.02246-.57031-.06738-.68555s-.11523-.20605-.21094-.27148-.20703-.09766-.33398-.09766c-.15625,0-.28516.04492-.38672.13672s-.16504.20898-.19043.34961c-.01953.10352-.0293.31055-.0293.62305v.41992Z"/>
      <path d="M276.80253,64.61143h-4.29492v-.86719h4.29492v.86719Z"/>
      <path d="M275.22343,58.50401l.2666-.8418c.46875.12891.81641.34375,1.04395.64355s.3418.68066.3418,1.1416c0,.57031-.19531,1.03906-.58496,1.40625s-.92188.55078-1.59766.55078c-.71484,0-1.27051-.18555-1.66602-.55469s-.59277-.85352-.59277-1.45508c0-.52539.15527-.95312.46582-1.28125.18359-.19531.44727-.3418.79102-.43945l.20508.85938c-.22266.05078-.39844.15625-.52734.31738s-.19336.35645-.19336.58691c0,.31836.11426.57715.34277.77539s.59863.29688,1.11035.29688c.54297,0,.92969-.09766,1.16016-.29297s.3457-.44922.3457-.76172c0-.23047-.07324-.42773-.21973-.59375s-.37695-.28516-.69141-.35742Z"/>
      <path d="M275.40507,57.13877l-.08203-.84375c.2832-.05078.49121-.1543.62402-.30957s.19922-.36426.19922-.62793c0-.2793-.05957-.49023-.17773-.63184s-.25586-.21191-.41406-.21191c-.10156,0-.18848.0293-.25977.08887s-.13281.16309-.18555.31152c-.03516.10156-.09766.33398-.1875.69531-.11523.46484-.25684.79102-.4248.97852-.23633.26367-.52441.39453-.86426.39453-.21875,0-.42383-.06152-.61426-.18555s-.33496-.30273-.43457-.53613-.14941-.51465-.14941-.84473c0-.53906.11816-.94531.35449-1.21777s.55176-.41504.94629-.42871l.03809.86719c-.2207.03711-.37988.11621-.47656.23828s-.14453.30469-.14453.54883c0,.25195.05176.44922.15527.5918.06641.0918.15527.13867.2666.13867.10156,0,.18848-.04297.26074-.12891.0918-.10938.1875-.375.28711-.79688s.20215-.73438.30859-.93652.25195-.36035.43652-.47461.41309-.1709.68457-.1709c.24609,0,.47656.06836.69141.20508s.37402.33008.47852.58008.15723.56055.15723.93359c0,.54297-.12598.96094-.37695,1.25195s-.61621.46484-1.09668.52148Z"/>
      <path d="M276.80253,52.94346h-4.29492v-.86719h4.29492v.86719Z"/>
      <path d="M275.65702,51.34971h-.82324v-1.61719h.82324v1.61719Z"/>
      <path d="M276.03788,46.65244h.76465v2.88672c-.28906-.03125-.56348-.125-.82227-.28125s-.60156-.46484-1.0293-.92578c-.3457-.37109-.58008-.59961-.70312-.68359-.16992-.11328-.33789-.16992-.50391-.16992-.18359,0-.3252.0498-.42383.14844s-.14746.23438-.14746.4082c0,.17188.05176.30859.15527.41016s.27539.16016.51562.17578l-.08203.82031c-.45312-.04883-.77832-.20117-.97559-.45898s-.2959-.58008-.2959-.9668c0-.42383.11426-.75781.34277-1s.5127-.36328.85254-.36328c.19336,0,.37695.03516.55176.10449s.3584.17871.5498.3291c.12695.09961.30957.2793.54785.53906s.39648.4248.47461.49414.1543.125.22852.16797v-1.63477Z"/>
      <path d="M281.22343,90.25694l.2666-.84082c.46875.12891.81641.34375,1.04395.64258.22754.30078.3418.68066.3418,1.1416,0,.57031-.19531,1.03906-.58496,1.40625s-.92188.55078-1.59766.55078c-.71484,0-1.27051-.18457-1.66602-.55371s-.59277-.85449-.59277-1.45605c0-.52539.15527-.95215.46582-1.28027.18359-.19531.44727-.3418.79102-.43945l.20508.8584c-.22266.05078-.39844.15723-.52734.31738-.12891.16211-.19336.35742-.19336.58789,0,.31836.11426.57617.34277.77539.22852.19727.59863.29688,1.11035.29688.54297,0,.92969-.09766,1.16016-.29297s.3457-.44922.3457-.76172c0-.23047-.07324-.42871-.21973-.59473s-.37695-.28516-.69141-.35742Z"/>
      <path d="M280.68144,88.84776c-.4375,0-.80469-.06543-1.10156-.19629-.21875-.09766-.41504-.23145-.58887-.39941-.17383-.16992-.30273-.35449-.38672-.55566-.11328-.26758-.16992-.57617-.16992-.92578,0-.63281.19629-1.13965.58887-1.51855.39258-.38086.93848-.57031,1.6377-.57031.69336,0,1.23535.18848,1.62695.56543s.58789.88086.58789,1.51172c0,.63867-.19531,1.14648-.58496,1.52344s-.92578.56543-1.60938.56543ZM280.65214,87.9542c.48633,0,.85449-.1123,1.10547-.33691s.37695-.50977.37695-.85547-.125-.62891-.37402-.85156c-.24902-.2207-.62207-.33203-1.12012-.33203-.49219,0-.85938.10742-1.10156.32422-.24219.21484-.36328.50195-.36328.85938s.12207.64551.36719.86426.61523.32812,1.10938.32812Z"/>
      <path d="M282.80253,83.99619h-4.29492v-.84375l2.86816-1.75781h-2.86816v-.80566h4.29492v.87012l-2.80078,1.73145h2.80078v.80566Z"/>
      <path d="M282.80253,79.66319h-4.29492v-.84375l2.86816-1.75781h-2.86816v-.80566h4.29492v.87012l-2.80078,1.73145h2.80078v.80566Z"/>
      <path d="M282.80253,75.33897h-4.29492v-3.18457h.72656v2.31738h.95215v-2.15625h.72363v2.15625h1.16895v-2.39941h.72363v3.2666Z"/>
      <path d="M281.22343,68.58897l.2666-.84082c.46875.12891.81641.34375,1.04395.64258.22754.30078.3418.68066.3418,1.1416,0,.57031-.19531,1.03906-.58496,1.40625s-.92188.55078-1.59766.55078c-.71484,0-1.27051-.18457-1.66602-.55371s-.59277-.85449-.59277-1.45605c0-.52539.15527-.95215.46582-1.28027.18359-.19531.44727-.3418.79102-.43945l.20508.8584c-.22266.05078-.39844.15723-.52734.31738-.12891.16211-.19336.35742-.19336.58789,0,.31836.11426.57617.34277.77539.22852.19727.59863.29688,1.11035.29688.54297,0,.92969-.09766,1.16016-.29297s.3457-.44922.3457-.76172c0-.23047-.07324-.42871-.21973-.59473s-.37695-.28516-.69141-.35742Z"/>
      <path d="M282.80253,66.03721h-3.56836v1.27441h-.72656v-3.41309h.72656v1.27148h3.56836v.86719Z"/>
      <path d="M280.68144,63.51475c-.4375,0-.80469-.06543-1.10156-.19629-.21875-.09766-.41504-.23047-.58887-.40039-.17383-.16797-.30273-.35352-.38672-.55469-.11328-.26758-.16992-.57617-.16992-.92578,0-.63281.19629-1.13867.58887-1.51953.39258-.37891.93848-.56934,1.6377-.56934.69336,0,1.23535.18848,1.62695.56543s.58789.88086.58789,1.51172c0,.63867-.19531,1.14648-.58496,1.52344s-.92578.56543-1.60938.56543ZM280.65214,62.62119c.48633,0,.85449-.1123,1.10547-.33691s.37695-.50977.37695-.85547-.125-.62988-.37402-.85059c-.24902-.22266-.62207-.33301-1.12012-.33301-.49219,0-.85938.1084-1.10156.32324-.24219.2168-.36328.50293-.36328.86035s.12207.64551.36719.86426.61523.32812,1.10938.32812Z"/>
      <path d="M282.80253,58.66905h-4.29492v-1.8252c0-.45898.03809-.79297.11523-1,.07715-.20898.21484-.375.41211-.5s.42285-.1875.67676-.1875c.32227,0,.58789.09473.79785.28418s.34277.47266.39746.84961c.10938-.1875.22949-.34277.36035-.46387.13086-.12305.36328-.28711.69727-.49414l.83789-.52441v1.03711l-.93457.62695c-.33398.22266-.54492.375-.63184.45703s-.14648.16895-.17871.26074-.04785.2373-.04785.43652v.17578h1.79297v.86719ZM280.32401,57.80186v-.6416c0-.41602-.01758-.67578-.05273-.7793s-.0957-.18457-.18164-.24316-.19336-.08789-.32227-.08789c-.14453,0-.26172.03809-.35059.11621-.08887.07617-.14453.18555-.16797.32617-.00977.07031-.01465.28125-.01465.63281v.67676h1.08984Z"/>
      <path d="M284.06522,51.3126v.56543c-.45117.29883-.91992.52637-1.40625.68262s-.95703.23438-1.41211.23438c-.56445,0-1.09863-.09668-1.60254-.29004-.4375-.16797-.84082-.38086-1.20996-.63867v-.5625c.5918.26758,1.09473.45215,1.50977.55176.41504.10156.85547.15137,1.32031.15137.32031,0,.64844-.03027.98438-.08887.33594-.06055.65527-.1416.95801-.24512.19922-.06836.48535-.18848.8584-.36035Z"/>
      <path d="M282.03788,48.0753h.76465v2.88574c-.28906-.03125-.56348-.125-.82227-.28125s-.60156-.46484-1.0293-.92578c-.3457-.37109-.58008-.59863-.70312-.68262-.16992-.11328-.33789-.16992-.50391-.16992-.18359,0-.3252.0498-.42383.14746-.09863.09961-.14746.23535-.14746.40918,0,.17188.05176.30859.15527.41016s.27539.16016.51562.17578l-.08203.82031c-.45312-.04883-.77832-.20215-.97559-.45996s-.2959-.58008-.2959-.9668c0-.42383.11426-.75684.34277-.99902s.5127-.36328.85254-.36328c.19336,0,.37695.03418.55176.10449.1748.06836.3584.17871.5498.3291.12695.09961.30957.2793.54785.53906s.39648.4248.47461.49316c.07812.07031.1543.12598.22852.16895v-1.63477Z"/>
      <path d="M282.03788,44.73838h.76465v2.88574c-.28906-.03125-.56348-.125-.82227-.28125s-.60156-.46484-1.0293-.92578c-.3457-.37109-.58008-.59863-.70312-.68262-.16992-.11328-.33789-.16992-.50391-.16992-.18359,0-.3252.04883-.42383.14844-.09863.09766-.14746.23438-.14746.4082,0,.17188.05176.30859.15527.41016s.27539.16016.51562.17578l-.08203.82031c-.45312-.04883-.77832-.20215-.97559-.45996s-.2959-.58008-.2959-.9668c0-.42383.11426-.75684.34277-.99902s.5127-.36328.85254-.36328c.19336,0,.37695.03516.55176.10352.1748.07031.3584.17969.5498.33008.12695.09961.30957.2793.54785.53906s.39648.42383.47461.49414c.07812.06836.1543.125.22852.16797v-1.63477Z"/>
      <path d="M279.6912,44.0294v-.76758h.45703c-.15625-.09961-.2832-.23438-.38086-.4043s-.14648-.3584-.14648-.56543c0-.36133.1416-.66797.4248-.91992s.67773-.37793,1.18359-.37793c.51953,0,.92285.12695,1.21094.38086s.43262.56152.43262.92285c0,.17188-.03418.32715-.10254.46777-.06836.13867-.18555.28613-.35156.44043h1.56738v.82324h-4.29492ZM281.19413,43.21494c.34961,0,.60742-.06934.77441-.20801s.25098-.30762.25098-.50684c0-.19141-.07715-.35059-.23047-.47754s-.4043-.19043-.75391-.19043c-.32617,0-.56836.06543-.72656.19629s-.2373.29297-.2373.48633c0,.20117.07715.36816.23242.50098s.38574.19922.69043.19922Z"/>
      <path d="M284.06522,40.56944c-.34766-.16211-.61426-.27637-.7998-.34277s-.39941-.12793-.6416-.18457-.47266-.09863-.69043-.12598-.44043-.04102-.66895-.04102c-.46484,0-.90527.0498-1.32031.14941s-.91797.2832-1.50977.55078v-.55957c.41992-.29492.86523-.52393,1.33594-.68701s.94824-.24463,1.43262-.24463c.4082,0,.8457.06445,1.3125.19336.52344.14648,1.04004.3877,1.5498.72363v.56836Z"/>
    </g>
  </g>
  <rect x="112.28575" y="41.4169" width="60.44448" height="53.80554" fill="#fff" stroke="#000" stroke-miterlimit="10"/>
  <g>
    <path d="M123.06278,70.24522v-5.72656h1.73047l1.03906,3.90625,1.02734-3.90625h1.73438v5.72656h-1.07422v-4.50781l-1.13672,4.50781h-1.11328l-1.13281-4.50781v4.50781h-1.07422Z"/>
    <path d="M134.90653,70.24522h-1.25781l-.5-1.30078h-2.28906l-.47266,1.30078h-1.22656l2.23047-5.72656h1.22266l2.29297,5.72656ZM132.77763,67.97959l-.78906-2.125-.77344,2.125h1.5625Z"/>
    <path d="M134.93778,70.24522l1.95703-2.98828-1.77344-2.73828h1.35156l1.14844,1.83984,1.125-1.83984h1.33984l-1.78125,2.78125,1.95703,2.94531h-1.39453l-1.26953-1.98047-1.27344,1.98047h-1.38672Z"/>
    <path d="M140.637,68.921l1.0625-.11719c.02588.2168.09375.37695.20312.48047.10938.10449.25391.15625.43359.15625.22656,0,.41943-.10352.57812-.3125.15869-.20801.26025-.64062.30469-1.29688-.27588.32031-.62109.48047-1.03516.48047-.45068,0-.83936-.17383-1.16602-.52148s-.49023-.7998-.49023-1.35742c0-.58008.17236-1.04883.51758-1.4043s.78467-.5332,1.31836-.5332c.58057,0,1.05713.22461,1.42969.67383s.55859,1.18848.55859,2.2168c0,1.04688-.19385,1.80273-.58203,2.26562-.38818.46387-.89307.69531-1.51562.69531-.44775,0-.81006-.11914-1.08594-.35742s-.45312-.59375-.53125-1.06836ZM143.12138,66.52256c0-.35352-.08154-.62891-.24414-.82422s-.35107-.29297-.56445-.29297c-.20312,0-.37158.08008-.50586.24023s-.20117.42285-.20117.78711c0,.37012.07275.6416.21875.81445.146.17383.32812.25977.54688.25977.21094,0,.38867-.08301.5332-.25.14453-.16602.2168-.41113.2168-.73438Z"/>
    <path d="M148.78153,65.921l-1.0625.11719c-.02588-.21875-.09375-.37988-.20312-.48438-.10938-.10352-.25146-.15625-.42578-.15625-.23193,0-.42773.10449-.58789.3125-.16016.20898-.26123.64258-.30273,1.30078.27344-.32227.61328-.48438,1.01953-.48438.4585,0,.85107.1748,1.17773.52344.32666.34961.49023.7998.49023,1.35156,0,.58594-.17188,1.05664-.51562,1.41016-.34375.35449-.78516.53125-1.32422.53125-.57812,0-1.05322-.22461-1.42578-.67383s-.55859-1.18555-.55859-2.20898c0-1.04883.19385-1.80566.58203-2.26953.38818-.46289.89209-.69531,1.51172-.69531.43506,0,.79492.12207,1.08008.36523.28516.24414.4668.59766.54492,1.06055ZM146.29325,68.31553c0,.35742.08203.63281.24609.82617.16406.19434.35156.29102.5625.29102.20312,0,.37256-.0791.50781-.23828.13525-.1582.20312-.41895.20312-.78125,0-.37207-.07275-.64453-.21875-.81836-.146-.17285-.32812-.25977-.54688-.25977-.21094,0-.38916.08301-.53516.24805-.146.16602-.21875.41016-.21875.73242Z"/>
    <path d="M149.512,65.61631v-1.01953h3.75342v.79688c-.30957.30469-.625.74219-.94531,1.3125s-.56445,1.17676-.73242,1.81836c-.16797.64258-.25,1.21582-.24805,1.7207h-1.05859c.01855-.79102.18164-1.59863.49023-2.42188.30859-.82227.7207-1.55859,1.23633-2.20703h-2.49561Z"/>
    <path d="M153.98417,68.921l1.0625-.11719c.02637.2168.09375.37695.20312.48047.10938.10449.25391.15625.43359.15625.22656,0,.41992-.10352.57812-.3125.15918-.20801.26074-.64062.30469-1.29688-.27539.32031-.62109.48047-1.03516.48047-.4502,0-.83887-.17383-1.16602-.52148-.32617-.34766-.49023-.7998-.49023-1.35742,0-.58008.17285-1.04883.51758-1.4043.3457-.35547.78516-.5332,1.31836-.5332.58105,0,1.05762.22461,1.42969.67383.37305.44922.55859,1.18848.55859,2.2168,0,1.04688-.19336,1.80273-.58203,2.26562-.3877.46387-.89258.69531-1.51562.69531-.44727,0-.80957-.11914-1.08594-.35742-.27539-.23828-.45312-.59375-.53125-1.06836ZM156.46854,66.52256c0-.35352-.08105-.62891-.24414-.82422-.16211-.19531-.35059-.29297-.56445-.29297-.20312,0-.37109.08008-.50586.24023-.13379.16016-.20117.42285-.20117.78711,0,.37012.07324.6416.21875.81445.14648.17383.32812.25977.54688.25977.21094,0,.38867-.08301.5332-.25.14453-.16602.2168-.41113.2168-.73438Z"/>
    <path d="M162.11698,69.22569v1.01953h-3.84766c.04199-.38477.16699-.75.375-1.0957.20898-.34473.62012-.80273,1.23438-1.37305.49512-.46094.79883-.77344.91016-.9375.15137-.22656.22656-.4502.22656-.67188,0-.24414-.06543-.43262-.19727-.56445-.13086-.13086-.3125-.19727-.54492-.19727-.22852,0-.41113.06934-.54688.20703-.13477.13867-.21289.36719-.23438.6875l-1.09375-.10938c.06543-.60352.26953-1.03711.61328-1.30078.34375-.2627.77344-.39453,1.28906-.39453.56543,0,1.00977.15234,1.33203.45703.32324.30469.48438.68359.48438,1.13672,0,.25781-.0459.50391-.13867.73633-.0918.2334-.23828.47754-.43945.73242-.13281.16992-.37207.41309-.71875.73047-.3457.31836-.56543.5293-.6582.63281-.0918.10449-.16699.20605-.22461.30469h2.17969Z"/>
  </g>
  <g>
    <path d="M105.137,13.80625h-1.25781l-.5-1.30078h-2.28906l-.47266,1.30078h-1.22656l2.23047-5.72656h1.22266l2.29297,5.72656ZM103.0081,11.54063l-.78906-2.125-.77344,2.125h1.5625Z"/>
    <path d="M105.74638,8.07969h2.11328c.47656,0,.83984.03662,1.08984.10938.33594.09912.62354.2749.86328.52734s.42188.56201.54688.92773.1875.81689.1875,1.35352c0,.47119-.05859.87744-.17578,1.21875-.14307.4165-.34766.75391-.61328,1.01172-.20068.19531-.47119.34766-.8125.45703-.25537.08057-.59619.12109-1.02344.12109h-2.17578v-5.72656ZM106.90263,9.04844v3.79297h.86328c.32275,0,.55615-.01807.69922-.05469.1875-.04688.34326-.12646.4668-.23828s.22461-.29639.30273-.55273.11719-.60596.11719-1.04883-.03906-.78271-.11719-1.01953-.1875-.42188-.32812-.55469-.31885-.22266-.53516-.26953c-.16162-.03662-.47803-.05469-.94922-.05469h-.51953Z"/>
    <path d="M111.39481,12.27891v-1.09766h2.15625v1.09766h-2.15625Z"/>
    <path d="M116.85575,11.70078v-.96484h2.49219v2.28125c-.24219.23438-.59326.44092-1.05273.61914s-.92529.26758-1.39648.26758c-.59912,0-1.12109-.12549-1.56641-.37695s-.77979-.61084-1.00391-1.07812-.33594-.97607-.33594-1.52539c0-.59619.125-1.12646.375-1.58984s.61572-.81885,1.09766-1.06641c.36719-.18994.82422-.28516,1.37109-.28516.71094,0,1.26611.14893,1.66602.44727s.65674.71045.77148,1.23633l-1.14844.21484c-.08057-.28125-.23242-.50342-.45508-.66602s-.50049-.24414-.83398-.24414c-.50537,0-.90674.16016-1.20508.48047s-.44727.79541-.44727,1.42578c0,.67969.15088,1.18945.45312,1.5293s.69775.50977,1.1875.50977c.24219,0,.48486-.04736.72852-.14258s.45264-.21045.62695-.3457v-.72656h-1.32422Z"/>
    <path d="M120.39872,13.80625v-5.72656h1.73047l1.03906,3.90625,1.02734-3.90625h1.73438v5.72656h-1.07422v-4.50781l-1.13672,4.50781h-1.11328l-1.13281-4.50781v4.50781h-1.07422Z"/>
    <path d="M126.78544,11.94297l1.125-.10938c.06787.37744.20508.65479.41211.83203s.48633.26562.83789.26562c.37256,0,.65283-.07861.8418-.23633s.2832-.3418.2832-.55273c0-.13525-.03955-.25049-.11914-.3457s-.21826-.17773-.41602-.24805c-.13525-.04688-.44385-.13037-.92578-.25-.61963-.15381-1.05469-.34229-1.30469-.56641-.35156-.31494-.52734-.69922-.52734-1.15234,0-.2915.08252-.56445.24805-.81836s.40381-.44727.71484-.58008.68701-.19922,1.12695-.19922c.71875,0,1.25977.15771,1.62305.47266s.5542.73584.57227,1.26172l-1.15625.05078c-.04932-.29443-.15576-.50586-.31836-.63477s-.40674-.19336-.73242-.19336c-.33594,0-.59912.06885-.78906.20703-.12256.08838-.18359.20703-.18359.35547,0,.13525.05713.25146.17188.34766.146.12256.5.25,1.0625.38281s.97852.27002,1.24805.41211.48047.33594.63281.58203.22852.55029.22852.91211c0,.32812-.09131.63525-.27344.92188s-.43994.49951-.77344.63867-.74854.20898-1.24609.20898c-.72412,0-1.27979-.16748-1.66797-.50195s-.61963-.82227-.69531-1.46289Z"/>
    <path d="M132.4456,13.80625v-5.67969h1.15625v4.71484h2.875v.96484h-4.03125Z"/>
    <path d="M137.05888,9.17735v-1.01953h3.75391v.79688c-.31006.30469-.625.74219-.94531,1.3125s-.56445,1.17627-.73242,1.81836-.25049,1.21533-.24805,1.7207h-1.05859c.01807-.7915.18164-1.59912.49023-2.42188s.7207-1.55859,1.23633-2.20703h-2.49609Z"/>
    <path d="M141.53153,12.48203l1.0625-.11719c.02588.21631.09375.37646.20312.48047s.25391.15625.43359.15625c.22656,0,.41943-.104.57812-.3125s.26025-.64062.30469-1.29688c-.27588.32031-.62109.48047-1.03516.48047-.45068,0-.83936-.17383-1.16602-.52148s-.49023-.80029-.49023-1.35742c0-.58057.17236-1.04883.51758-1.4043s.78467-.5332,1.31836-.5332c.58057,0,1.05713.22461,1.42969.67383s.55859,1.18799.55859,2.2168c0,1.04688-.19385,1.80225-.58203,2.26562s-.89307.69531-1.51562.69531c-.44775,0-.81006-.11914-1.08594-.35742s-.45312-.59424-.53125-1.06836ZM144.01591,10.0836c0-.354-.08154-.62891-.24414-.82422s-.35107-.29297-.56445-.29297c-.20312,0-.37158.08008-.50586.24023s-.20117.42236-.20117.78711c0,.36963.07275.64111.21875.81445s.32812.25977.54688.25977c.21094,0,.38867-.0835.5332-.25s.2168-.41162.2168-.73438Z"/>
    <path d="M149.66386,12.78672v1.01953h-3.84717c.0415-.38525.1665-.75049.375-1.0957s.61963-.80273,1.23438-1.37305c.49463-.46094.79834-.77344.91016-.9375.15088-.22656.22656-.45068.22656-.67188,0-.24463-.06592-.43311-.19727-.56445s-.31299-.19727-.54492-.19727c-.229,0-.41162.06885-.54688.20703s-.21338.36719-.23438.6875l-1.09375-.10938c.06494-.604.26953-1.0376.61328-1.30078s.77344-.39453,1.28906-.39453c.56494,0,1.00928.15234,1.33203.45703s.48389.68359.48389,1.13672c0,.25781-.0459.50342-.13818.73633s-.23877.47705-.43945.73242c-.13281.16943-.37256.4126-.71875.73047s-.56592.52881-.6582.63281-.16748.20557-.22461.30469h2.1792Z"/>
    <path d="M150.63261,13.80625v-5.72656h1.73047l1.03906,3.90625,1.02734-3.90625h1.73438v5.72656h-1.07422v-4.50781l-1.13672,4.50781h-1.11328l-1.13281-4.50781v4.50781h-1.07422Z"/>
    <path d="M157.27714,13.80625v-5.72656h1.15625v5.72656h-1.15625Z"/>
    <path d="M159.53495,13.80625v-5.72656h1.85547c.70312,0,1.16211.02881,1.375.08594.32812.08594.60352.27295.82422.56055.22168.2876.33203.65967.33203,1.11523,0,.35156-.06348.64697-.19141.88672-.12695.23975-.28906.42773-.48633.56445-.19629.13672-.39648.22705-.59961.27148-.27539.05469-.67578.08203-1.19922.08203h-.75391v2.16016h-1.15625ZM160.6912,9.04844v1.625h.63281c.45605,0,.76074-.02979.91406-.08984.1543-.06006.27441-.15381.36133-.28125.08789-.12744.13086-.27588.13086-.44531,0-.2085-.06055-.38037-.18359-.51562-.12207-.13525-.27734-.22021-.46484-.25391-.1377-.02588-.41504-.03906-.83203-.03906h-.55859Z"/>
    <path d="M164.83573,13.80625v-5.72656h1.15625v5.72656h-1.15625Z"/>
    <path d="M166.96073,12.27891v-1.09766h2.15625v1.09766h-2.15625Z"/>
    <path d="M169.75761,13.80625v-5.72656h4.24609v.96875h-3.08984v1.26953h2.875v.96484h-2.875v1.55859h3.19922v.96484h-4.35547Z"/>
    <path d="M176.55448,13.80625l-2.04688-5.72656h1.25391l1.44922,4.23828,1.40234-4.23828h1.22656l-2.05078,5.72656h-1.23438Z"/>
    <path d="M180.44511,13.80625v-5.72656h1.15625v2.54297l2.33594-2.54297h1.55469l-2.15625,2.23047,2.27344,3.49609h-1.49609l-1.57422-2.6875-.9375.95703v1.73047h-1.15625Z"/>
  </g>
  <g>
    <line x1="178.78124" y1="68.31967" x2="266.3353" y2="68.31967" fill="none" stroke="#000" stroke-width=".75"/>
    <polygon points="179.99984 70.10641 173.33272 68.31967 179.99984 66.53292 179.99984 70.10641"/>
    <polygon points="262.51799 70.10641 269.1851 68.31967 262.51799 66.53292 262.51799 70.10641"/>
    <line x1="23.76128" y1="68.31967" x2="106.07374" y2="68.31967" fill="none" stroke="#000" stroke-width=".75"/>
    <polygon points="25.35488 70.10641 18.68778 68.31967 25.35488 66.53292 25.35488 70.10641"/>
    <polygon points="105.15755 70.10641 111.82467 68.31967 105.15755 66.53292 105.15755 70.10641"/>
  </g>
  <g>
    <path d="M49.47343,64.671v.76465h-2.88574c.03125-.28906.125-.5625.28125-.82129s.46484-.60254.92578-1.03027c.37109-.3457.59863-.58008.68262-.70312.11328-.16992.16992-.33789.16992-.50391,0-.18359-.04932-.32422-.14795-.42285s-.23486-.14844-.40869-.14844c-.17188,0-.30859.05176-.41016.15527s-.16016.27539-.17578.51562l-.82031-.08203c.04883-.45312.20215-.77832.45996-.97559s.58008-.2959.9668-.2959c.42383,0,.75684.11426.99902.34277s.36328.5127.36328.85254c0,.19336-.03467.37793-.104.55273s-.1792.35742-.32959.54883c-.09961.12695-.2793.30957-.53906.54785s-.42432.39648-.49365.47461-.12549.1543-.16846.22852h1.63477Z"/>
    <path d="M51.76737,64.20518l.88477-.88477-.89062-.8877.54492-.54492.89062.8877.88477-.88477.53027.5332-.88477.88477.89355.89355-.54492.54492-.89355-.89355-.88477.88477-.53027-.5332Z"/>
    <path d="M59.04765,63.85655v-.72363h1.86914v1.71094c-.18164.17578-.44482.33105-.78955.46484s-.69385.2002-1.04736.2002c-.44922,0-.84082-.09375-1.1748-.28223s-.58496-.45801-.75293-.80859-.25195-.73242-.25195-1.14453c0-.44727.09375-.84473.28125-1.19238s.46191-.61426.82324-.7998c.27539-.14258.61816-.21387,1.02832-.21387.5332,0,.94971.1123,1.24951.33594s.49268.53223.57861.92676l-.86133.16113c-.06055-.21094-.17432-.37695-.34131-.49902s-.37549-.18359-.62549-.18359c-.37891,0-.68018.12012-.90381.36035s-.33545.59668-.33545,1.06934c0,.50977.11328.89258.33984,1.14746s.52344.38184.89062.38184c.18164,0,.36377-.03516.54639-.10645s.33936-.1582.47021-.25977v-.54492h-.99316Z"/>
    <path d="M61.70487,65.43565v-4.29492h1.29785l.7793,2.92969.77051-2.92969h1.30078v4.29492h-.80566v-3.38086l-.85254,3.38086h-.83496l-.84961-3.38086v3.38086h-.80566Z"/>
    <path d="M66.49491,64.03819l.84375-.08203c.05078.2832.15381.49121.30908.62402s.36475.19922.62842.19922c.2793,0,.48975-.05859.63135-.17676s.2124-.25684.2124-.41504c0-.10156-.02979-.1875-.08936-.25879s-.16357-.13379-.31201-.18652c-.10156-.03516-.33301-.09766-.69434-.1875-.46484-.11523-.79102-.25684-.97852-.4248-.26367-.23633-.39551-.52441-.39551-.86426,0-.21875.06201-.42285.18604-.61328s.30273-.33594.53613-.43555.51514-.14941.84521-.14941c.53906,0,.94482.11816,1.21729.35449s.41553.55176.4292.94629l-.86719.03809c-.03711-.2207-.1167-.37891-.23877-.47559s-.30518-.14551-.54932-.14551c-.25195,0-.44922.05176-.5918.15527-.0918.06641-.1377.15527-.1377.2666,0,.10156.04297.18848.12891.26074.10938.0918.375.1875.79688.28711s.73389.20312.93604.30957.36035.25195.47461.43652.17139.41211.17139.68359c0,.24609-.06836.47656-.20508.69141s-.33008.375-.58008.47949-.56152.15625-.93457.15625c-.54297,0-.95996-.125-1.25098-.37598s-.46484-.61719-.52148-1.09766Z"/>
    <path d="M70.74003,65.43565v-4.25977h.86719v3.53613h2.15625v.72363h-3.02344Z"/>
    <path d="M74.17069,64.296l.79688-.09668c.02539.20312.09375.3584.20508.46582s.24609.16113.4043.16113c.16992,0,.31299-.06445.4292-.19336s.17432-.30273.17432-.52148c0-.20703-.05566-.37109-.16699-.49219s-.24707-.18164-.40723-.18164c-.10547,0-.23145.02051-.37793.06152l.09082-.6709c.22266.00586.39258-.04199.50977-.14453s.17578-.23926.17578-.40918c0-.14453-.04297-.25977-.12891-.3457s-.2002-.12891-.34277-.12891c-.14062,0-.26074.04883-.36035.14648s-.16016.24023-.18164.42773l-.75879-.12891c.05273-.25977.13232-.4668.23877-.62207s.25488-.27734.44531-.36621.40381-.13379.64014-.13379c.4043,0,.72852.12891.97266.38672.20117.21094.30176.44922.30176.71484,0,.37695-.20605.67773-.61816.90234.24609.05273.44287.1709.59033.35449s.22119.40527.22119.66504c0,.37695-.1377.69824-.41309.96387s-.61816.39844-1.02832.39844c-.38867,0-.71094-.11133-.9668-.33496s-.4043-.5166-.44531-.87793Z"/>
    <path d="M77.27323,65.50889l1.06348-4.44141h.61816l-1.0752,4.44141h-.60645Z"/>
    <path d="M81.98417,64.671v.76465h-2.88574c.03125-.28906.125-.5625.28125-.82129s.46484-.60254.92578-1.03027c.37109-.3457.59863-.58008.68262-.70312.11328-.16992.16992-.33789.16992-.50391,0-.18359-.04932-.32422-.14795-.42285s-.23486-.14844-.40869-.14844c-.17188,0-.30859.05176-.41016.15527s-.16016.27539-.17578.51562l-.82031-.08203c.04883-.45312.20215-.77832.45996-.97559s.58008-.2959.9668-.2959c.42383,0,.75684.11426.99902.34277s.36328.5127.36328.85254c0,.19336-.03467.37793-.104.55273s-.1792.35742-.32959.54883c-.09961.12695-.2793.30957-.53906.54785s-.42432.39648-.49365.47461-.12549.1543-.16846.22852h1.63477Z"/>
  </g>
  <g>
    <path d="M61.38554,94.81944h-.82324v-3.10254c-.30078.28125-.65527.48926-1.06348.62402v-.74707c.21484-.07031.44824-.20312.7002-.39941s.4248-.42578.51855-.6875h.66797v4.3125Z"/>
    <path d="M65.39628,94.05479v.76465h-2.88574c.03125-.28906.125-.5625.28125-.82129s.46484-.60254.92578-1.03027c.37109-.3457.59863-.58008.68262-.70312.11328-.16992.16992-.33789.16992-.50391,0-.18359-.04932-.32422-.14795-.42285s-.23486-.14844-.40869-.14844c-.17188,0-.30859.05176-.41016.15527s-.16016.27539-.17578.51562l-.82031-.08203c.04883-.45312.20215-.77832.45996-.97559s.58008-.2959.9668-.2959c.42383,0,.75684.11426.99902.34277s.36328.5127.36328.85254c0,.19336-.03467.37793-.104.55273s-.1792.35742-.32959.54883c-.09961.12695-.2793.30957-.53906.54785s-.42432.39648-.49365.47461-.12549.1543-.16846.22852h1.63477Z"/>
    <path d="M67.23026,94.81944l-1.53516-4.29492h.94043l1.08691,3.17871,1.05176-3.17871h.91992l-1.53809,4.29492h-.92578Z"/>
  </g>
  <g>
    <path d="M205.10526,64.671v.76465h-2.88574c.03125-.28906.125-.5625.28125-.82129s.46484-.60254.92578-1.03027c.37109-.3457.59863-.58008.68262-.70312.11328-.16992.16992-.33789.16992-.50391,0-.18359-.04883-.32422-.14746-.42285s-.23535-.14844-.40918-.14844c-.17188,0-.30859.05176-.41016.15527s-.16016.27539-.17578.51562l-.82031-.08203c.04883-.45312.20215-.77832.45996-.97559s.58008-.2959.9668-.2959c.42383,0,.75684.11426.99902.34277s.36328.5127.36328.85254c0,.19336-.03418.37793-.10352.55273s-.17969.35742-.33008.54883c-.09961.12695-.2793.30957-.53906.54785s-.42383.39648-.49316.47461-.12598.1543-.16895.22852h1.63477Z"/>
    <path d="M207.39921,64.20518l.88477-.88477-.89062-.8877.54492-.54492.89062.8877.88477-.88477.53027.5332-.88477.88477.89355.89355-.54492.54492-.89355-.89355-.88477.88477-.53027-.5332Z"/>
    <path d="M212.66972,65.43565v-4.29492h1.29785l.7793,2.92969.77051-2.92969h1.30078v4.29492h-.80566v-3.38086l-.85254,3.38086h-.83496l-.84961-3.38086v3.38086h-.80566Z"/>
    <path d="M217.65312,65.43565v-4.29492h.86719v4.29492h-.86719Z"/>
    <path d="M219.34647,65.43565v-4.29492h1.3916c.52734,0,.87109.02148,1.03125.06445.24609.06445.45215.20508.61816.4209s.24902.49414.24902.83594c0,.26367-.04785.48535-.14355.66504s-.2168.32129-.36426.42383-.29785.16992-.4502.20312c-.20703.04102-.50684.06152-.89941.06152h-.56543v1.62012h-.86719ZM220.21366,61.86729v1.21875h.47461c.3418,0,.57031-.02246.68555-.06738s.20605-.11523.27148-.21094.09766-.20703.09766-.33398c0-.15625-.0459-.28516-.1377-.38672s-.20801-.16504-.34863-.19043c-.10352-.01953-.31152-.0293-.62402-.0293h-.41895Z"/>
    <path d="M223.32206,65.43565v-4.29492h.86719v4.29492h-.86719Z"/>
    <path d="M229.43046,63.85655l.84082.2666c-.12891.46875-.34277.81738-.64258,1.04492s-.68066.34082-1.1416.34082c-.57031,0-1.03906-.19434-1.40625-.58398s-.55078-.92285-.55078-1.59863c0-.71484.18457-1.26953.55371-1.66504s.85449-.59375,1.45605-.59375c.52539,0,.95215.15527,1.28027.46582.19531.18359.3418.44727.43945.79102l-.8584.20508c-.05078-.22266-.15625-.39844-.31738-.52734s-.35742-.19336-.58789-.19336c-.31836,0-.57617.11426-.77441.34277s-.29785.59863-.29785,1.11035c0,.54297.09766.92969.29297,1.16016s.44922.3457.76172.3457c.23047,0,.42871-.07324.59473-.21973s.28516-.37695.35742-.69141Z"/>
    <path d="M230.79569,64.03819l.84375-.08203c.05078.2832.1543.49121.30957.62402s.36426.19922.62793.19922c.2793,0,.49023-.05859.63184-.17676s.21191-.25684.21191-.41504c0-.10156-.0293-.1875-.08887-.25879s-.16406-.13379-.3125-.18652c-.10156-.03516-.33301-.09766-.69434-.1875-.46484-.11523-.79102-.25684-.97852-.4248-.26367-.23633-.39551-.52441-.39551-.86426,0-.21875.0625-.42285.18652-.61328s.30273-.33594.53613-.43555.51465-.14941.84473-.14941c.53906,0,.94531.11816,1.21777.35449s.41504.55176.42871.94629l-.86719.03809c-.03711-.2207-.11621-.37891-.23828-.47559s-.30566-.14551-.5498-.14551c-.25195,0-.44922.05176-.5918.15527-.0918.06641-.1377.15527-.1377.2666,0,.10156.04297.18848.12891.26074.10938.0918.375.1875.79688.28711s.73438.20312.93652.30957.36035.25195.47461.43652.1709.41211.1709.68359c0,.24609-.06836.47656-.20508.69141s-.33008.375-.58008.47949-.56152.15625-.93457.15625c-.54297,0-.95996-.125-1.25098-.37598s-.46484-.61719-.52148-1.09766Z"/>
    <path d="M234.99101,65.43565v-4.29492h.86719v4.29492h-.86719Z"/>
    <path d="M236.58476,64.29014v-.82324h1.61719v.82324h-1.61719Z"/>
    <path d="M241.28104,64.671v.76465h-2.88574c.03125-.28906.125-.5625.28125-.82129s.46484-.60254.92578-1.03027c.37109-.3457.59863-.58008.68262-.70312.11328-.16992.16992-.33789.16992-.50391,0-.18359-.04883-.32422-.14746-.42285s-.23535-.14844-.40918-.14844c-.17188,0-.30859.05176-.41016.15527s-.16016.27539-.17578.51562l-.82031-.08203c.04883-.45312.20215-.77832.45996-.97559s.58008-.2959.9668-.2959c.42383,0,.75684.11426.99902.34277s.36328.5127.36328.85254c0,.19336-.03418.37793-.10352.55273s-.17969.35742-.33008.54883c-.09961.12695-.2793.30957-.53906.54785s-.42383.39648-.49316.47461-.12598.1543-.16895.22852h1.63477Z"/>
  </g>
  <g>
    <g>
      <g>
        <rect x="125.92209" y="137.74422" width="32.98541" height="19.60737" fill="#fff" stroke="#000" stroke-miterlimit="10" stroke-width=".75"/>
        <g>
          <path d="M133.34599,144.79795h.86719v2.32617c0,.36914.01074.6084.03223.71777.03711.17578.12549.31738.26514.42285.13965.10742.33057.16016.57275.16016.24609,0,.43164-.0498.55664-.15039s.2002-.22461.22559-.37109.03809-.38965.03809-.72949v-2.37598h.86719v2.25586c0,.51562-.02344.87988-.07031,1.09277s-.1333.39258-.25928.53906-.29443.26367-.50537.35059c-.21094.08594-.48633.12988-.82617.12988-.41016,0-.72119-.04785-.93311-.1416-.21191-.09473-.37939-.21777-.50244-.36914s-.2041-.31055-.24316-.47656c-.05664-.24609-.08496-.60938-.08496-1.08984v-2.29102Z"/>
          <path d="M137.46513,147.69541l.84375-.08203c.05078.2832.15381.49121.30908.62402s.36475.19922.62842.19922c.2793,0,.48975-.05859.63135-.17773.1416-.11719.2124-.25586.2124-.41406,0-.10156-.02979-.1875-.08936-.25977-.05957-.07031-.16357-.13281-.31201-.18555-.10156-.03516-.33301-.09766-.69434-.1875-.46484-.11523-.79102-.25684-.97852-.4248-.26367-.23633-.39551-.52441-.39551-.86426,0-.21875.06201-.42383.18604-.61328.12402-.19141.30273-.33594.53613-.43555s.51514-.14941.84521-.14941c.53906,0,.94482.11816,1.21729.35449s.41553.55176.4292.94629l-.86719.03809c-.03711-.2207-.1167-.37891-.23877-.47656-.12207-.0957-.30518-.14453-.54932-.14453-.25195,0-.44922.05176-.5918.15527-.0918.06641-.1377.15527-.1377.2666,0,.10156.04297.18848.12891.26074.10938.0918.375.1875.79688.28711s.73389.20312.93604.30957.36035.25195.47461.43555c.11426.18555.17139.41309.17139.68457,0,.24609-.06836.47656-.20508.69141s-.33008.375-.58008.47949c-.25.10352-.56152.15625-.93457.15625-.54297,0-.95996-.125-1.25098-.37695-.29102-.25-.46484-.61621-.52148-1.09668Z"/>
          <path d="M141.68974,144.79795h1.7168c.33984,0,.59326.01465.76025.04297s.31641.08691.44824.17676.2417.20996.32959.3584c.08789.15039.13184.31738.13184.50293,0,.20117-.0542.38574-.1626.55371s-.25537.29395-.44092.37793c.26172.07617.46289.20605.60352.38965s.21094.39941.21094.64746c0,.19531-.04541.38574-.13623.56934-.09082.18555-.21484.33301-.37207.44336s-.35107.17773-.58154.20312c-.14453.01562-.49316.02539-1.0459.0293h-1.46191v-4.29492ZM142.55692,145.5128v.99316h.56836c.33789,0,.54785-.00488.62988-.01465.14844-.01758.26514-.06836.3501-.1543.08496-.08398.12744-.19629.12744-.33496,0-.13281-.03662-.24023-.10986-.32324s-.18213-.13379-.32666-.15137c-.08594-.00977-.33301-.01465-.74121-.01465h-.49805ZM142.55692,147.2208v1.14844h.80273c.3125,0,.51074-.00879.59473-.02637.12891-.02344.23389-.08008.31494-.17188.08105-.08984.12158-.21191.12158-.36426,0-.12891-.03125-.23828-.09375-.32812s-.15283-.15527-.271-.19629-.37451-.06152-.76904-.06152h-.7002Z"/>
          <path d="M145.92021,147.94737v-.82324h1.61719v.82324h-1.61719Z"/>
          <path d="M150.76542,147.51377l.84082.2666c-.12891.46875-.34277.81738-.64258,1.04492s-.68066.34082-1.1416.34082c-.56982,0-1.03857-.19434-1.40576-.58496-.36719-.38867-.55078-.92188-.55078-1.59766,0-.71484.18457-1.26953.55371-1.66602.36914-.39453.85449-.59277,1.45557-.59277.52539,0,.95215.15527,1.28027.46582.19531.18359.3418.44727.43945.79102l-.8584.20508c-.05078-.22266-.15625-.39844-.31738-.52734s-.35742-.19336-.58789-.19336c-.31787,0-.57617.11426-.77441.34277s-.29736.59863-.29736,1.11035c0,.54297.09766.92969.29297,1.16016s.44922.3457.76123.3457c.23047,0,.42871-.07324.59473-.21973s.28516-.37695.35742-.69141Z"/>
        </g>
        <g>
          <path d="M161.82987,142.5626c0-.4375.06543-.80469.19629-1.10156.09766-.21875.23047-.41504.39941-.58887s.35449-.30273.55566-.38672c.26758-.11328.57617-.16992.92578-.16992.63281,0,1.13867.19629,1.51855.58887s.57031.93848.57031,1.6377c0,.69336-.18848,1.23633-.56543,1.62793s-.88086.58691-1.51172.58691c-.63867,0-1.14648-.19434-1.52344-.58496-.37695-.38867-.56543-.92578-.56543-1.60938ZM162.72343,142.5333c0,.48633.1123.85547.33691,1.10547.22461.25195.50977.37695.85547.37695s.62891-.125.85059-.37305c.22168-.25.33301-.62305.33301-1.12109,0-.49219-.1084-.85938-.32422-1.10156s-.50195-.36328-.85938-.36328-.64551.12305-.86426.36719c-.21875.24609-.32812.61523-.32812,1.10938Z"/>
          <path d="M166.67558,144.68369v-4.29492h1.8252c.45898,0,.79199.03906,1,.11523.20801.07812.375.21484.5.41211s.1875.42285.1875.67676c0,.32227-.09473.58887-.28418.79785-.18945.21094-.47266.34277-.84961.39746.1875.10938.3418.22949.46387.36035s.28711.36328.49414.69727l.52441.83789h-1.03711l-.62695-.93457c-.22266-.33398-.375-.54395-.45703-.63184-.08203-.08594-.16895-.14648-.26074-.17773-.0918-.0332-.2373-.04883-.43652-.04883h-.17578v1.79297h-.86719ZM167.54276,142.20518h.6416c.41602,0,.67578-.01758.7793-.05273s.18457-.0957.24316-.18164.08789-.19336.08789-.32227c0-.14453-.03906-.26074-.11621-.34961s-.18555-.14551-.32617-.16895c-.07031-.00977-.28125-.01465-.63281-.01465h-.67676v1.08984Z"/>
        </g>
      </g>
      <g>
        <rect x="125.92209" y="106.75347" width="32.98541" height="19.60737" fill="#fff" stroke="#000" stroke-miterlimit="10" stroke-width=".75"/>
        <g>
          <path d="M131.51786,118.10264v-4.29492h1.3916c.52734,0,.87109.02148,1.03125.06445.24609.06445.45215.20508.61816.41992.16602.2168.24902.49512.24902.83691,0,.26367-.04785.48535-.14355.66504s-.21729.32031-.36475.42383c-.14746.10156-.29736.16992-.44971.20312-.20703.04102-.50684.06152-.89941.06152h-.56543v1.62012h-.86719ZM132.38505,114.53428v1.21875h.47461c.3418,0,.57031-.02246.68555-.06738s.20557-.11523.271-.21094.09814-.20703.09814-.33398c0-.15625-.0459-.28516-.1377-.38672s-.20801-.16504-.34863-.19043c-.10352-.01953-.31152-.0293-.62402-.0293h-.41895Z"/>
          <path d="M135.34403,115.98155c0-.4375.06543-.80469.19629-1.10156.09766-.21875.23096-.41504.3999-.58887s.354-.30273.55518-.38672c.26758-.11328.57617-.16992.92578-.16992.63281,0,1.13916.19629,1.51904.58887s.56982.93848.56982,1.6377c0,.69336-.18848,1.23633-.56543,1.62793s-.88086.58691-1.51172.58691c-.63867,0-1.14648-.19434-1.52344-.58496-.37695-.38867-.56543-.92578-.56543-1.60938ZM136.23759,115.95225c0,.48633.1123.85547.33691,1.10547.22461.25195.50977.37695.85547.37695s.62939-.125.85107-.37305c.22168-.25.33252-.62305.33252-1.12109,0-.49219-.10791-.85938-.32373-1.10156s-.50244-.36328-.85986-.36328-.64551.12305-.86426.36719c-.21875.24609-.32812.61523-.32812,1.10938Z"/>
          <path d="M140.79618,118.10264l-1.02539-4.29492h.8877l.64746,2.9502.78516-2.9502h1.03125l.75293,3,.65918-3h.87305l-1.04297,4.29492h-.91992l-.85547-3.21094-.85254,3.21094h-.94043Z"/>
          <path d="M145.84989,118.10264v-4.29492h3.18457v.72656h-2.31738v.95215h2.15625v.72363h-2.15625v1.16895h2.39941v.72363h-3.2666Z"/>
          <path d="M149.85429,118.10264v-4.29492h1.8252c.45898,0,.79297.03906,1.00098.11523.20801.07812.37402.21484.49902.41211s.1875.42285.1875.67676c0,.32227-.09473.58887-.28418.79785-.18945.21094-.47266.34277-.84961.39746.1875.10938.34277.22949.46484.36035s.28613.36328.49316.69727l.52441.83789h-1.03711l-.62695-.93457c-.22266-.33398-.375-.54395-.45703-.63184-.08203-.08594-.16895-.14648-.26074-.17773-.0918-.0332-.2373-.04883-.43652-.04883h-.17578v1.79297h-.86719ZM150.72147,115.62412h.6416c.41602,0,.67578-.01758.7793-.05273s.18457-.0957.24316-.18164.08789-.19336.08789-.32227c0-.14453-.03809-.26074-.11523-.34961s-.18652-.14551-.32715-.16895c-.07031-.00977-.28125-.01465-.63281-.01465h-.67676v1.08984Z"/>
        </g>
      </g>
    </g>
    <g>
      <rect x="73.1228" y="106.75347" width="32.98541" height="19.60737" fill="#fff" stroke="#000" stroke-miterlimit="10" stroke-width=".75"/>
      <g>
        <path d="M84.05204,118.10264v-4.29492h1.3916c.52734,0,.87109.02148,1.03125.06445.24609.06445.45215.20508.61816.41992.16602.2168.24902.49512.24902.83691,0,.26367-.04785.48535-.14355.66504s-.21729.32031-.36475.42383c-.14746.10156-.29736.16992-.44971.20312-.20703.04102-.50684.06152-.89941.06152h-.56543v1.62012h-.86719ZM84.91923,114.53428v1.21875h.47461c.3418,0,.57031-.02246.68555-.06738s.20557-.11523.271-.21094.09814-.20703.09814-.33398c0-.15625-.0459-.28516-.1377-.38672s-.20801-.16504-.34863-.19043c-.10352-.01953-.31152-.0293-.62402-.0293h-.41895Z"/>
        <path d="M87.85771,116.50303c0-.27344.06738-.53809.20215-.79395s.32568-.45117.57275-.58594.52295-.20215.82764-.20215c.4707,0,.85645.15332,1.15723.45898s.45117.69141.45117,1.1582c0,.4707-.15186.86133-.45557,1.16992-.30371.31055-.68604.46484-1.14697.46484-.28516,0-.55713-.06445-.81592-.19336s-.45557-.31836-.59033-.56641c-.13477-.25-.20215-.55273-.20215-.91016ZM88.70146,116.54698c0,.30859.07324.54492.21973.70898s.32715.24609.54199.24609.39502-.08203.54053-.24609.21826-.40234.21826-.71484c0-.30469-.07275-.53906-.21826-.70312s-.32568-.24609-.54053-.24609-.39551.08203-.54199.24609-.21973.40039-.21973.70898Z"/>
        <path d="M94.46708,116.52354l.84082.2666c-.12891.46875-.34326.81738-.64307,1.04492s-.68018.34082-1.14111.34082c-.57031,0-1.03906-.19434-1.40625-.58496-.36719-.38867-.55078-.92188-.55078-1.59766,0-.71484.18457-1.26953.55371-1.66602.36914-.39453.85449-.59277,1.45605-.59277.52539,0,.95215.15527,1.28027.46582.19531.18359.3418.44727.43945.79102l-.8584.20508c-.05078-.22266-.15674-.39844-.31787-.52734s-.35693-.19336-.5874-.19336c-.31836,0-.57666.11426-.7749.34277s-.29736.59863-.29736,1.11035c0,.54297.09766.92969.29297,1.16016s.44922.3457.76172.3457c.23047,0,.42871-.07324.59473-.21973s.28516-.37695.35742-.69141Z"/>
      </g>
    </g>
    <g>
      <rect x="173.41743" y="137.74422" width="43.59329" height="19.60737" fill="#fff" stroke="#000" stroke-miterlimit="10" stroke-width=".75"/>
      <g>
        <path d="M190.58964,142.9503l-.79688.08789c-.01953-.16406-.07031-.28516-.15234-.36328s-.18848-.11719-.31934-.11719c-.17383,0-.32129.07812-.44141.23438s-.19531.48145-.22656.97559c.20508-.24219.45996-.36328.76465-.36328.34375,0,.6377.13086.88281.39258s.36816.59961.36816,1.01367c0,.43945-.12891.79199-.38672,1.05762s-.58887.39844-.99316.39844c-.43359,0-.79004-.16895-1.06934-.50488-.2793-.33789-.41895-.88965-.41895-1.65723,0-.78711.14551-1.35449.43652-1.70215s.66895-.52148,1.13379-.52148c.32617,0,.5957.0918.80957.27344.21387.18359.35059.44824.40918.7959ZM188.72343,144.74619c0,.26758.06152.47461.18457.61914.12305.14648.26367.21875.42188.21875.15234,0,.2793-.05957.38086-.17871s.15234-.31445.15234-.58594c0-.2793-.05469-.4834-.16406-.61426-.10938-.12891-.24609-.19434-.41016-.19434-.1582,0-.29199.0625-.40137.18652s-.16406.30664-.16406.54883Z"/>
        <path d="M191.21952,145.04795v-.82324h1.61719v.82324h-1.61719Z"/>
        <path d="M193.31718,146.19346v-4.29492h1.3916c.52734,0,.87109.02148,1.03125.06445.24609.06445.45215.20508.61816.41992.16602.2168.24902.49512.24902.83691,0,.26367-.04785.48535-.14355.66504s-.21777.32031-.36523.42383c-.14746.10156-.29688.16992-.44922.20312-.20703.04102-.50684.06152-.89941.06152h-.56543v1.62012h-.86719ZM194.18437,142.6251v1.21875h.47461c.3418,0,.57031-.02246.68555-.06738s.20508-.11523.27051-.21094.09863-.20703.09863-.33398c0-.15625-.0459-.28516-.1377-.38672s-.20801-.16504-.34863-.19043c-.10352-.01953-.31152-.0293-.62402-.0293h-.41895Z"/>
        <path d="M197.29276,146.19346v-4.29492h.86719v4.29492h-.86719Z"/>
        <path d="M198.99491,146.19346v-4.29492h.84375l1.75781,2.86816v-2.86816h.80566v4.29492h-.87012l-1.73145-2.80078v2.80078h-.80566Z"/>
        <path d="M179.06522,150.61436l.84082.2666c-.12891.46875-.34277.81738-.64258,1.04492s-.68066.34082-1.1416.34082c-.57031,0-1.03906-.19434-1.40625-.58496-.36719-.38867-.55078-.92188-.55078-1.59766,0-.71484.18457-1.26953.55371-1.66602.36914-.39453.85449-.59277,1.45605-.59277.52539,0,.95215.15527,1.28027.46582.19531.18359.3418.44727.43945.79102l-.8584.20508c-.05078-.22266-.15625-.39844-.31738-.52734s-.35742-.19336-.58789-.19336c-.31836,0-.57617.11426-.77441.34277s-.29785.59863-.29785,1.11035c0,.54297.09766.92969.29297,1.16016s.44922.3457.76172.3457c.23047,0,.42871-.07324.59473-.21973s.28516-.37695.35742-.69141Z"/>
        <path d="M180.4744,150.07237c0-.4375.06543-.80469.19629-1.10156.09766-.21875.23145-.41504.40039-.58887s.35352-.30273.55469-.38672c.26758-.11328.57617-.16992.92578-.16992.63281,0,1.13965.19629,1.51953.58887s.56934.93848.56934,1.6377c0,.69336-.18848,1.23633-.56543,1.62793s-.88086.58691-1.51172.58691c-.63867,0-1.14648-.19434-1.52344-.58496-.37695-.38867-.56543-.92578-.56543-1.60938ZM181.36796,150.04307c0,.48633.1123.85547.33691,1.10547.22461.25195.50977.37695.85547.37695s.62988-.125.85156-.37305c.22168-.25.33203-.62305.33203-1.12109,0-.49219-.10742-.85938-.32324-1.10156s-.50293-.36328-.86035-.36328-.64551.12305-.86426.36719c-.21875.24609-.32812.61523-.32812,1.10938Z"/>
        <path d="M185.32597,152.19346v-4.29492h.84375l1.75781,2.86816v-2.86816h.80566v4.29492h-.87012l-1.73145-2.80078v2.80078h-.80566Z"/>
        <path d="M189.65897,152.19346v-4.29492h.84375l1.75781,2.86816v-2.86816h.80566v4.29492h-.87012l-1.73145-2.80078v2.80078h-.80566Z"/>
        <path d="M193.98319,152.19346v-4.29492h3.18457v.72656h-2.31738v.95215h2.15625v.72363h-2.15625v1.16895h2.39941v.72363h-3.2666Z"/>
        <path d="M200.73319,150.61436l.84082.2666c-.12891.46875-.34277.81738-.64258,1.04492s-.68066.34082-1.1416.34082c-.57031,0-1.03906-.19434-1.40625-.58496-.36719-.38867-.55078-.92188-.55078-1.59766,0-.71484.18457-1.26953.55371-1.66602.36914-.39453.85449-.59277,1.45605-.59277.52539,0,.95215.15527,1.28027.46582.19531.18359.3418.44727.43945.79102l-.8584.20508c-.05078-.22266-.15625-.39844-.31738-.52734s-.35742-.19336-.58789-.19336c-.31836,0-.57617.11426-.77441.34277s-.29785.59863-.29785,1.11035c0,.54297.09766.92969.29297,1.16016s.44922.3457.76172.3457c.23047,0,.42871-.07324.59473-.21973s.28516-.37695.35742-.69141Z"/>
        <path d="M203.28495,152.19346v-3.56836h-1.27441v-.72656h3.41309v.72656h-1.27148v3.56836h-.86719Z"/>
        <path d="M205.80741,150.07237c0-.4375.06543-.80469.19629-1.10156.09766-.21875.23145-.41504.40039-.58887s.35352-.30273.55469-.38672c.26758-.11328.57617-.16992.92578-.16992.63281,0,1.13965.19629,1.51953.58887s.56934.93848.56934,1.6377c0,.69336-.18848,1.23633-.56543,1.62793s-.88086.58691-1.51172.58691c-.63867,0-1.14648-.19434-1.52344-.58496-.37695-.38867-.56543-.92578-.56543-1.60938ZM206.70097,150.04307c0,.48633.1123.85547.33691,1.10547.22461.25195.50977.37695.85547.37695s.62988-.125.85156-.37305c.22168-.25.33203-.62305.33203-1.12109,0-.49219-.10742-.85938-.32324-1.10156s-.50293-.36328-.86035-.36328-.64551.12305-.86426.36719c-.21875.24609-.32812.61523-.32812,1.10938Z"/>
        <path d="M210.65312,152.19346v-4.29492h1.82617c.45898,0,.79102.03906,1,.11523.20703.07812.375.21484.5.41211s.1875.42285.1875.67676c0,.32227-.0957.58887-.28516.79785-.18945.21094-.47266.34277-.84961.39746.1875.10938.3418.22949.46484.36035.12109.13086.28711.36328.49414.69727l.52344.83789h-1.03711l-.62695-.93457c-.22266-.33398-.375-.54395-.45703-.63184-.08203-.08594-.16797-.14648-.25977-.17773-.0918-.0332-.23828-.04883-.4375-.04883h-.17578v1.79297h-.86719ZM211.5203,149.71494h.64258c.41602,0,.67578-.01758.7793-.05273s.18359-.0957.24219-.18164.08789-.19336.08789-.32227c0-.14453-.03906-.26074-.11523-.34961-.07812-.08887-.18555-.14551-.32617-.16895-.07031-.00977-.28125-.01465-.63281-.01465h-.67773v1.08984Z"/>
      </g>
    </g>
    <g>
      <line x1="141.9826" y1="137.79107" x2="141.9826" y2="132.21252" fill="none" stroke="#000" stroke-miterlimit="10" stroke-width=".75"/>
      <polygon points="143.76934 133.43115 141.9826 126.76404 140.19586 133.43115 143.76934 133.43115"/>
    </g>
    <g>
      <line x1="141.9826" y1="106.75347" x2="141.9826" y2="101.17493" fill="none" stroke="#000" stroke-miterlimit="10" stroke-width=".75"/>
      <polygon points="143.76934 102.39356 141.9826 95.72644 140.19586 102.39356 143.76934 102.39356"/>
    </g>
    <g>
      <line x1="125.7169" y1="116.55715" x2="112.06066" y2="116.55715" fill="none" stroke="#000" stroke-miterlimit="10" stroke-width=".75"/>
      <polygon points="113.17848 114.77041 106.51137 116.55715 113.17848 118.3439 113.17848 114.77041"/>
    </g>
    <g>
      <polyline points="164.45678 116.55715 195.13041 116.55715 195.13041 138.01608" fill="none" stroke="#000" stroke-miterlimit="10" stroke-width=".75"/>
      <polygon points="165.57461 114.77041 158.9075 116.55715 165.57461 118.3439 165.57461 114.77041"/>
    </g>
    <g>
      <polyline points="24.23706 97.51318 89.6155 97.51318 89.6155 106.50913" fill="none" stroke="#000" stroke-miterlimit="10" stroke-width=".75"/>
      <polygon points="25.35489 95.72644 18.68777 97.51318 25.35489 99.29993 25.35489 95.72644"/>
    </g>
  </g>
</svg>