<svg width="2622" height="754" xmlns="http://www.w3.org/2000/svg" xmlns:xlink="http://www.w3.org/1999/xlink" xml:space="preserve" overflow="hidden"><g transform="translate(148 -1264)"><path d="M101.5 1883.5 2302.99 1883.5" stroke="#000000" stroke-width="4.58333" stroke-linejoin="round" stroke-miterlimit="10" fill="none" fill-rule="evenodd"/><path d="M0 0 0.000360892 593.513" stroke="#000000" stroke-width="4.58333" stroke-linejoin="round" stroke-miterlimit="10" fill="none" fill-rule="evenodd" transform="matrix(1 0 0 -1 101.5 1891.01)"/><path d="M0 0 713.899 479.948" stroke="#FF0000" stroke-width="4.58333" stroke-linejoin="round" stroke-miterlimit="10" fill="none" fill-rule="evenodd" transform="matrix(1 0 0 -1 104.5 1877.45)"/><path d="M827.933 1880.94 818.5 1397.5" stroke="#FF0000" stroke-width="4.58333" stroke-linejoin="round" stroke-miterlimit="10" fill="none" fill-rule="evenodd"/><text font-family="Barlow,Barlow_MSFontService,sans-serif" font-weight="400" font-size="83" transform="matrix(1 0 0 1 2119.13 1952)">time</text><path d="M1770.77 1423.44 1766.99 1866.72 1762.4 1866.68 1766.18 1423.4ZM1754.69 1427.88 1768.67 1400.5 1782.18 1428.12ZM1778.48 1862.23 1764.5 1889.61 1750.99 1862Z"/><text font-family="Barlow,Barlow_MSFontService,sans-serif" font-weight="400" font-size="55" transform="matrix(1 0 0 1 -114.574 1891)">10.0 GHz</text><text font-family="Barlow,Barlow_MSFontService,sans-serif" font-weight="400" font-size="83" transform="matrix(1 0 0 1 0.408891 1648)">f</text><text font-family="Barlow,Barlow_MSFontService,sans-serif" font-weight="400" font-size="55" transform="matrix(1 0 0 1 29.6276 1668)">s</text><text font-family="Barlow,Barlow_MSFontService,sans-serif" font-weight="400" font-size="55" transform="matrix(1 0 0 1 -105.7 1413)">10.5 GHz</text><text fill="#FF0000" font-family="Barlow,Barlow_MSFontService,sans-serif" font-weight="400" font-size="92" transform="matrix(0.830511 -0.557002 0.557002 0.830511 290.005 1742)">transmit</text><path d="M0 0 0.000360892 558.842" stroke="#000000" stroke-width="3.4375" stroke-linejoin="round" stroke-miterlimit="10" stroke-dasharray="13.75 10.3125" fill="none" fill-rule="evenodd" transform="matrix(1 0 0 -1 828.5 1880.34)"/><path d="M0 0 0.000360892 78.4436" stroke="#000000" stroke-width="3.4375" stroke-linejoin="round" stroke-miterlimit="10" stroke-dasharray="13.75 10.3125" fill="none" fill-rule="evenodd" transform="matrix(1 0 0 -1 1529.5 1399.94)"/><text font-family="Barlow,Barlow_MSFontService,sans-serif" font-weight="400" font-size="83" transform="matrix(1 0 0 1 1151.96 1372)">T</text><text font-family="Barlow,Barlow_MSFontService,sans-serif" font-weight="400" font-size="55" transform="matrix(1 0 0 1 1198.94 1392)">S</text><path d="M0.0206908-1.71863 269.077 1.52059 269.036 4.95784-0.0206908 1.71863ZM264.639-10.565 291.971 3.51509 264.308 16.933Z" transform="matrix(-1 0 0 1 1119.47 1339.5)"/><path d="M1265.52 1337.78 1499.72 1340.98 1499.67 1344.42 1265.48 1341.22ZM1495.3 1328.89 1522.61 1343.02 1494.92 1356.39Z"/><path d="M0 0 2117.67 0.000360892" stroke="#000000" stroke-width="3.4375" stroke-linejoin="round" stroke-miterlimit="10" stroke-dasharray="13.75 10.3125" fill="none" fill-rule="evenodd" transform="matrix(-1 0 0 1 2216.17 1397.5)"/><text font-family="Barlow,Barlow_MSFontService,sans-serif" font-weight="400" font-size="83" transform="matrix(1 0 0 1 1786.68 1646)">B</text><path d="M0 0 713.899 479.948" stroke="#FF0000" stroke-width="4.58333" stroke-linejoin="round" stroke-miterlimit="10" fill="none" fill-rule="evenodd" transform="matrix(1 0 0 -1 819.5 1885.45)"/><path d="M1542.93 1888.94 1533.5 1405.5" stroke="#FF0000" stroke-width="4.58333" stroke-linejoin="round" stroke-miterlimit="10" fill="none" fill-rule="evenodd"/><path d="M0 0 713.899 479.948" stroke="#FF0000" stroke-width="4.58333" stroke-linejoin="round" stroke-miterlimit="10" fill="none" fill-rule="evenodd" transform="matrix(1 0 0 -1 1543.5 1882.45)"/><path d="M2266.93 1885.94 2257.5 1402.5" stroke="#FF0000" stroke-width="4.58333" stroke-linejoin="round" stroke-miterlimit="10" fill="none" fill-rule="evenodd"/></g></svg>