<svg width="2108" height="316" xmlns="http://www.w3.org/2000/svg" xmlns:xlink="http://www.w3.org/1999/xlink" xml:space="preserve" overflow="hidden"><g transform="translate(-477 -1980)"><path d="M578.04 2072.32C582.73 2072.32 586.773 2072.7 590.171 2073.47L587.371 2085.67 581.055 2085.67C580.385 2082.94 579.512 2080.98 578.435 2079.78 577.358 2078.59 575.767 2077.99 573.662 2077.99 570.934 2077.99 568.625 2078.74 566.735 2080.25 564.845 2081.76 563.23 2083.99 561.89 2086.96 560.55 2089.93 559.306 2093.92 558.158 2098.95L556.363 2106.77 574.81 2106.77 573.231 2114.02 554.713 2114.02 541.362 2176.61C539.161 2186.99 535.787 2194.73 531.241 2199.83 526.695 2204.93 520.977 2207.47 514.087 2207.47 512.077 2207.47 510.498 2207.35 509.349 2207.11L510.57 2200.8C511.048 2200.94 512.173 2201.01 513.943 2201.01 516.096 2201.01 517.939 2200.46 519.47 2199.36 521.001 2198.26 522.425 2196.35 523.741 2193.62 525.057 2190.89 526.265 2187.11 527.365 2182.28L542.798 2114.02 530.667 2114.02 531.744 2109.07C534.95 2108.88 537.259 2108.61 538.67 2108.28 540.082 2107.94 541.183 2107.44 541.972 2106.77 542.762 2106.1 543.432 2105.23 543.982 2104.15 544.532 2103.07 545.238 2101.1 546.099 2098.23 548.635 2089.62 552.547 2083.14 557.835 2078.81 563.122 2074.48 569.858 2072.32 578.04 2072.32Z" fill-rule="evenodd"/><text fill="#000000" fill-opacity="0" font-family="Arial,Arial_MSFontService,sans-serif" font-size="135.157" x="509.349" y="2190.58">𝑓</text><path d="M608.625 2158.98C607.057 2158.98 605.333 2159.49 603.452 2160.52 601.571 2161.55 599.717 2163.07 597.888 2165.09 596.059 2167.11 594.37 2169.61 592.82 2172.59 591.27 2175.56 590.042 2178.99 589.137 2182.85 588.858 2184.73 588.545 2186.58 588.196 2188.39 587.848 2190.2 587.674 2191.89 587.674 2193.46 587.674 2196.28 588.31 2198.27 589.581 2199.44 590.852 2200.61 592.898 2201.19 595.72 2201.19 598.576 2201.19 601.206 2200.28 603.609 2198.45 606.012 2196.62 608.076 2194.23 609.8 2191.26 611.524 2188.3 612.874 2184.98 613.849 2181.29 614.824 2177.59 615.312 2173.87 615.312 2170.1 615.312 2166.38 614.781 2163.59 613.719 2161.75 612.656 2159.9 610.958 2158.98 608.625 2158.98ZM596.399 2134 600.161 2134 592.846 2163.84 593.578 2164.2C595.354 2162.11 597.052 2160.29 598.672 2158.74 600.291 2157.19 601.876 2155.92 603.426 2154.93 604.976 2153.93 606.517 2153.19 608.05 2152.71 609.582 2152.22 611.167 2151.98 612.804 2151.98 616.914 2151.98 620.084 2153.47 622.313 2156.47 624.542 2159.46 625.657 2163.84 625.657 2169.58 625.657 2174.6 624.882 2179.33 623.332 2183.77 621.782 2188.21 619.683 2192.1 617.036 2195.44 614.389 2198.79 611.315 2201.43 607.815 2203.36 604.314 2205.29 600.613 2206.26 596.712 2206.26 594.205 2206.26 591.888 2206.01 589.764 2205.5 587.639 2205 585.567 2204.15 583.546 2202.97 582.676 2203.46 581.787 2204 580.882 2204.59 579.976 2205.18 579.123 2205.74 578.322 2206.26 577.695 2206.08 577.033 2205.92 576.336 2205.76 575.64 2205.61 574.978 2205.42 574.351 2205.21L586.89 2149.21C587.273 2147.46 587.561 2146.04 587.752 2144.92 587.944 2143.81 588.04 2142.83 588.04 2142 588.04 2141.33 587.935 2140.76 587.726 2140.27 587.517 2139.78 587.151 2139.39 586.629 2139.1 586.106 2138.8 585.41 2138.58 584.539 2138.44 583.668 2138.3 582.571 2138.22 581.248 2138.18L582.031 2134.63Z" fill-rule="evenodd"/><text fill="#000000" fill-opacity="0" font-family="Arial,Arial_MSFontService,sans-serif" font-size="72.2563" x="574.351" y="2197.23">𝑏</text><path d="M692.858 2143.52 781.288 2143.52 781.288 2153.07 692.858 2153.07ZM692.858 2113.73 781.288 2113.73 781.288 2123.28 692.858 2123.28Z" fill-rule="evenodd"/><text fill="#000000" fill-opacity="0" font-family="Arial,Arial_MSFontService,sans-serif" font-size="39.334" x="692.858" y="2148.15">=</text><path d="M863.527 2021.79C867.15 2021.79 870.241 2022.2 872.801 2023.02 875.361 2023.84 877.442 2024.95 879.044 2026.34 880.647 2027.73 881.805 2029.4 882.519 2031.35 883.233 2033.3 883.59 2035.41 883.59 2037.68 883.59 2039.03 883.494 2040.3 883.302 2041.46 883.111 2042.63 882.78 2043.78 882.31 2044.91 881.84 2046.04 881.221 2047.18 880.455 2048.33 879.689 2049.48 878.731 2050.7 877.581 2051.99 876.711 2053.11 875.579 2054.39 874.185 2055.86 872.792 2057.32 871.268 2058.89 869.614 2060.56 867.959 2062.23 866.227 2063.97 864.415 2065.78 862.604 2067.6 860.845 2069.39 859.139 2071.17 857.432 2072.94 855.865 2074.67 854.436 2076.34 853.008 2078.01 851.842 2079.54 850.936 2080.94L870.267 2080.94C871.904 2080.94 873.21 2080.87 874.185 2080.75 875.161 2080.63 875.971 2080.36 876.615 2079.94 877.259 2079.53 877.808 2078.89 878.261 2078.04 878.714 2077.18 879.236 2076.01 879.828 2074.51L884.687 2074.51C884.513 2076.98 884.347 2079.47 884.191 2081.98 884.034 2084.49 883.868 2086.98 883.694 2089.45L839.442 2089.45 839.442 2086.74C840.278 2084.85 841.253 2083 842.368 2081.17 843.482 2079.34 844.736 2077.49 846.129 2075.61 847.523 2073.73 849.107 2071.78 850.884 2069.78 852.66 2067.78 854.628 2065.7 856.788 2063.54 860.062 2060.26 862.726 2057.47 864.781 2055.15 866.836 2052.84 868.456 2050.77 869.64 2048.96 870.824 2047.15 871.634 2045.48 872.07 2043.95 872.505 2042.41 872.723 2040.78 872.723 2039.03 872.723 2037.26 872.47 2035.62 871.965 2034.12 871.46 2032.63 870.737 2031.35 869.797 2030.31 868.856 2029.26 867.663 2028.45 866.218 2027.85 864.772 2027.26 863.109 2026.97 861.228 2026.97 857.989 2026.97 855.272 2027.85 853.078 2029.6 850.884 2031.36 849.177 2033.91 847.958 2037.26L841.114 2037.26 841.114 2027.07C845.572 2025.22 849.673 2023.88 853.418 2023.05 857.162 2022.21 860.532 2021.79 863.527 2021.79Z" fill-rule="evenodd"/><text fill="#000000" fill-opacity="0" font-family="Arial,Arial_MSFontService,sans-serif" font-size="67.6587" x="839.442" y="2080.99">2</text><path d="M932.8 2051.36C934.158 2051.36 935.386 2051.69 936.483 2052.33 937.581 2052.98 938.425 2053.87 939.017 2055.02 939.609 2056.17 939.906 2057.46 939.906 2058.89 939.906 2060.35 939.601 2061.66 938.991 2062.81 938.382 2063.96 937.528 2064.84 936.431 2065.47 935.334 2066.1 934.124 2066.41 932.8 2066.41 931.477 2066.41 930.266 2066.1 929.169 2065.47 928.072 2064.84 927.218 2063.96 926.609 2062.81 925.999 2061.66 925.695 2060.35 925.695 2058.89 925.695 2057.46 925.991 2056.17 926.583 2055.02 927.175 2053.87 928.02 2052.98 929.117 2052.33 930.214 2051.69 931.442 2051.36 932.8 2051.36Z" fill-rule="evenodd"/><text fill="#000000" fill-opacity="0" font-family="Arial,Arial_MSFontService,sans-serif" font-size="15.0469" x="925.695" y="2064.53">∙</text><path d="M1112.19 2036.11C1116.02 2036.11 1119.1 2036.92 1121.41 2038.54 1123.73 2040.16 1125.43 2042.67 1126.51 2046.09 1128.46 2044.21 1130.21 2042.64 1131.76 2041.39 1133.31 2040.13 1134.77 2039.12 1136.15 2038.36 1137.52 2037.59 1138.89 2037.04 1140.25 2036.71 1141.61 2036.38 1143.09 2036.18 1144.69 2036.11 1147.06 2036.14 1149.18 2036.48 1151.06 2037.13 1152.94 2037.77 1154.54 2038.81 1155.84 2040.24 1157.15 2041.66 1158.15 2043.55 1158.85 2045.88 1159.54 2048.21 1159.87 2051.07 1159.84 2054.45L1159.84 2076.13C1159.84 2078.18 1159.87 2079.76 1159.92 2080.86 1159.97 2081.95 1160.19 2082.82 1160.57 2083.44 1160.95 2084.07 1161.57 2084.55 1162.43 2084.88 1163.28 2085.21 1164.51 2085.62 1166.11 2086.11L1166.11 2089.45 1143.28 2089.45 1143.28 2086.11C1144.67 2085.62 1145.78 2085.24 1146.62 2084.96 1147.46 2084.68 1148.09 2084.25 1148.53 2083.68 1148.96 2083.1 1149.24 2082.27 1149.36 2081.17 1149.49 2080.07 1149.55 2078.48 1149.55 2076.39L1149.55 2059.99C1149.55 2056.29 1149.35 2053.35 1148.95 2051.16 1148.55 2048.96 1147.95 2047.28 1147.17 2046.11 1146.39 2044.95 1145.38 2044.19 1144.17 2043.84 1142.95 2043.49 1141.54 2043.32 1139.93 2043.32 1138.71 2043.32 1137.37 2043.64 1135.91 2044.29 1134.45 2044.93 1133.09 2045.8 1131.84 2046.9 1130.58 2047.99 1129.53 2049.26 1128.67 2050.69 1127.82 2052.11 1127.39 2053.59 1127.39 2055.13L1127.39 2076.13C1127.39 2078.18 1127.43 2079.78 1127.5 2080.91 1127.57 2082.04 1127.8 2082.91 1128.2 2083.52 1128.6 2084.13 1129.23 2084.6 1130.08 2084.93 1130.94 2085.26 1132.17 2085.66 1133.77 2086.11L1133.77 2089.45 1110.83 2089.45 1110.83 2086.11C1112.23 2085.62 1113.33 2085.23 1114.15 2084.93 1114.97 2084.64 1115.6 2084.2 1116.03 2083.63 1116.47 2083.05 1116.74 2082.22 1116.87 2081.14 1116.99 2080.06 1117.05 2078.48 1117.05 2076.39L1117.05 2060.66C1117.05 2056.87 1116.85 2053.84 1116.45 2051.57 1116.05 2049.31 1115.46 2047.58 1114.67 2046.38 1113.89 2045.17 1112.89 2044.38 1111.67 2044 1110.45 2043.61 1109.04 2043.39 1107.44 2043.32 1106.04 2043.39 1104.6 2043.76 1103.1 2044.44 1101.6 2045.12 1100.23 2046.01 1099 2047.11 1097.76 2048.2 1096.76 2049.43 1095.99 2050.79 1095.23 2052.15 1094.88 2053.51 1094.95 2054.86L1094.95 2076.13C1094.95 2078.29 1094.99 2079.93 1095.08 2081.07 1095.17 2082.2 1095.42 2083.05 1095.84 2083.63 1096.26 2084.2 1096.89 2084.63 1097.74 2084.91 1098.6 2085.19 1099.81 2085.59 1101.38 2086.11L1101.38 2089.45 1078.44 2089.45 1078.44 2086.11C1079.8 2085.62 1080.89 2085.24 1081.7 2084.96 1082.52 2084.68 1083.15 2084.25 1083.59 2083.68 1084.02 2083.1 1084.3 2082.26 1084.42 2081.14 1084.54 2080.03 1084.6 2078.41 1084.6 2076.29L1084.6 2051.68C1084.6 2050.35 1084.58 2049.21 1084.53 2048.26 1084.47 2047.3 1084.41 2046.52 1084.34 2045.93 1084.27 2045.2 1084.14 2044.57 1083.95 2044.05 1083.76 2043.53 1083.43 2043.07 1082.96 2042.67 1082.49 2042.27 1081.83 2041.92 1080.97 2041.62 1080.12 2041.32 1079.01 2041.04 1077.66 2040.76L1077.66 2037.21 1091.34 2036.63 1095.05 2036.63C1094.95 2038.13 1094.83 2039.6 1094.69 2041.05 1094.55 2042.49 1094.43 2043.95 1094.32 2045.41 1094.43 2045.48 1094.53 2045.51 1094.64 2045.51 1094.74 2045.51 1094.84 2045.55 1094.95 2045.62 1096.8 2043.81 1098.48 2042.3 1100.02 2041.1 1101.55 2039.9 1103 2038.93 1104.35 2038.2 1105.71 2037.47 1107.03 2036.94 1108.3 2036.63 1109.57 2036.32 1110.87 2036.14 1112.19 2036.11ZM1041.05 2026.86C1038.61 2026.86 1036.57 2027.5 1034.93 2028.77 1033.3 2030.04 1032 2031.9 1031.04 2034.36 1030.08 2036.81 1029.41 2039.81 1029 2043.34 1028.6 2046.88 1028.4 2050.89 1028.4 2055.39 1028.4 2060.58 1028.66 2065.06 1029.16 2068.84 1029.67 2072.62 1030.45 2075.73 1031.51 2078.17 1032.57 2080.6 1033.91 2082.4 1035.51 2083.55 1037.11 2084.7 1039.03 2085.27 1041.26 2085.27 1043.35 2085.27 1045.17 2084.73 1046.74 2083.65 1048.31 2082.57 1049.61 2080.89 1050.63 2078.61 1051.66 2076.33 1052.44 2073.44 1052.96 2069.94 1053.48 2066.44 1053.74 2062.3 1053.74 2057.53 1053.74 2052.17 1053.46 2047.55 1052.88 2043.68 1052.31 2039.82 1051.5 2036.64 1050.45 2034.15 1049.41 2031.66 1048.09 2029.82 1046.51 2028.64 1044.92 2027.45 1043.1 2026.86 1041.05 2026.86ZM983.332 2022.16 986.519 2022.16C986.449 2024.07 986.397 2025.79 986.362 2027.31 986.327 2028.82 986.301 2030.29 986.284 2031.72 986.266 2033.15 986.257 2034.56 986.257 2035.95L986.257 2075.66C986.257 2076.74 986.292 2077.67 986.362 2078.45 986.432 2079.24 986.545 2079.9 986.702 2080.44 986.858 2080.98 987.067 2081.44 987.328 2081.82 987.59 2082.21 987.894 2082.54 988.243 2082.82 988.661 2083.23 989.218 2083.56 989.915 2083.78 990.611 2084.01 991.499 2084.2 992.579 2084.36 993.659 2084.51 994.956 2084.64 996.472 2084.72 997.987 2084.81 999.807 2084.87 1001.93 2084.91L1001.93 2089.45 960.5 2089.45 960.5 2084.91C962.555 2084.84 964.297 2084.76 965.725 2084.67 967.153 2084.58 968.372 2084.46 969.382 2084.31 970.392 2084.15 971.202 2083.97 971.811 2083.78 972.421 2083.59 972.952 2083.36 973.405 2083.08 973.893 2082.76 974.31 2082.42 974.659 2082.06 975.007 2081.69 975.286 2081.23 975.495 2080.67 975.704 2080.12 975.869 2079.44 975.991 2078.64 976.113 2077.84 976.174 2076.84 976.174 2075.66L976.174 2038.2C976.174 2036.84 975.913 2035.88 975.39 2035.32 974.868 2034.77 974.119 2034.49 973.144 2034.49 972.064 2034.49 970.462 2035.05 968.337 2036.16 966.212 2037.28 963.461 2038.93 960.082 2041.12 959.629 2040.32 959.211 2039.52 958.828 2038.72 958.445 2037.92 958.045 2037.1 957.627 2036.27 961.946 2033.9 966.221 2031.54 970.453 2029.19 974.685 2026.83 978.978 2024.49 983.332 2022.16ZM1041.26 2021.79C1045.4 2021.79 1048.95 2022.57 1051.89 2024.12 1054.83 2025.67 1057.24 2027.88 1059.1 2030.75 1060.96 2033.63 1062.33 2037.14 1063.2 2041.28 1064.07 2045.43 1064.51 2050.11 1064.51 2055.34 1064.51 2066.93 1062.45 2075.7 1058.34 2081.64 1054.23 2087.58 1048.27 2090.55 1040.47 2090.55 1032.74 2090.55 1026.99 2087.75 1023.23 2082.14 1019.47 2076.53 1017.59 2068.03 1017.59 2056.64 1017.59 2050.69 1018.17 2045.53 1019.34 2041.18 1020.51 2036.82 1022.14 2033.21 1024.25 2030.34 1026.36 2027.46 1028.86 2025.32 1031.75 2023.91 1034.64 2022.5 1037.81 2021.79 1041.26 2021.79Z" fill-rule="evenodd"/><text fill="#000000" fill-opacity="0" font-family="Arial,Arial_MSFontService,sans-serif" font-size="68.7559" x="957.627" y="2081.95">10m</text><path d="M1186.03 2051.36C1187.39 2051.36 1188.62 2051.69 1189.71 2052.33 1190.81 2052.98 1191.65 2053.87 1192.25 2055.02 1192.84 2056.17 1193.13 2057.46 1193.13 2058.89 1193.13 2060.35 1192.83 2061.66 1192.22 2062.81 1191.61 2063.96 1190.76 2064.84 1189.66 2065.47 1188.56 2066.1 1187.35 2066.41 1186.03 2066.41 1184.71 2066.41 1183.5 2066.1 1182.4 2065.47 1181.3 2064.84 1180.45 2063.96 1179.84 2062.81 1179.23 2061.66 1178.92 2060.35 1178.92 2058.89 1178.92 2057.46 1179.22 2056.17 1179.81 2055.02 1180.4 2053.87 1181.25 2052.98 1182.35 2052.33 1183.44 2051.69 1184.67 2051.36 1186.03 2051.36Z" fill-rule="evenodd"/><text fill="#000000" fill-opacity="0" font-family="Arial,Arial_MSFontService,sans-serif" font-size="15.0469" x="1178.92" y="2064.53">∙</text><path d="M1570.15 2037.21 1613.77 2037.21 1613.77 2040.65 1582.89 2084.23 1597.78 2084.23C1599.6 2084.23 1601.02 2084.15 1602.07 2083.99 1603.11 2083.84 1603.98 2083.39 1604.65 2082.66 1605.33 2081.93 1605.95 2080.83 1606.51 2079.37 1607.07 2077.91 1607.76 2075.87 1608.6 2073.26L1614.09 2073.26 1614.09 2089.45 1569.78 2089.45 1569.78 2086.11 1600.71 2042.43 1585.35 2042.43C1584.1 2042.43 1583 2042.58 1582.06 2042.87 1581.12 2043.17 1580.27 2043.7 1579.52 2044.47 1578.78 2045.23 1578.08 2046.27 1577.43 2047.58 1576.79 2048.88 1576.15 2050.53 1575.53 2052.51L1570.15 2052.51ZM1356.28 2026.86C1353.84 2026.86 1351.8 2027.5 1350.16 2028.77 1348.53 2030.04 1347.23 2031.9 1346.27 2034.36 1345.31 2036.81 1344.63 2039.81 1344.23 2043.34 1343.83 2046.88 1343.63 2050.89 1343.63 2055.39 1343.63 2060.58 1343.89 2065.06 1344.39 2068.84 1344.9 2072.62 1345.68 2075.73 1346.74 2078.17 1347.8 2080.6 1349.14 2082.4 1350.74 2083.55 1352.34 2084.7 1354.26 2085.27 1356.49 2085.27 1358.58 2085.27 1360.4 2084.73 1361.97 2083.65 1363.54 2082.57 1364.84 2080.89 1365.86 2078.61 1366.89 2076.33 1367.67 2073.44 1368.19 2069.94 1368.71 2066.44 1368.97 2062.3 1368.97 2057.53 1368.97 2052.17 1368.69 2047.55 1368.11 2043.68 1367.54 2039.82 1366.73 2036.64 1365.68 2034.15 1364.64 2031.66 1363.32 2029.82 1361.74 2028.64 1360.15 2027.45 1358.33 2026.86 1356.28 2026.86ZM1294.28 2026.86C1291.84 2026.86 1289.8 2027.5 1288.16 2028.77 1286.53 2030.04 1285.23 2031.9 1284.27 2034.36 1283.31 2036.81 1282.63 2039.81 1282.23 2043.34 1281.83 2046.88 1281.63 2050.89 1281.63 2055.39 1281.63 2060.58 1281.89 2065.06 1282.39 2068.84 1282.9 2072.62 1283.68 2075.73 1284.74 2078.17 1285.8 2080.6 1287.14 2082.4 1288.74 2083.55 1290.34 2084.7 1292.26 2085.27 1294.49 2085.27 1296.58 2085.27 1298.4 2084.73 1299.97 2083.65 1301.54 2082.57 1302.84 2080.89 1303.86 2078.61 1304.89 2076.33 1305.67 2073.44 1306.19 2069.94 1306.71 2066.44 1306.97 2062.3 1306.97 2057.53 1306.97 2052.17 1306.69 2047.55 1306.11 2043.68 1305.54 2039.82 1304.73 2036.64 1303.68 2034.15 1302.64 2031.66 1301.32 2029.82 1299.74 2028.64 1298.15 2027.45 1296.33 2026.86 1294.28 2026.86ZM1356.49 2021.79C1360.63 2021.79 1364.17 2022.57 1367.12 2024.12 1370.06 2025.67 1372.46 2027.88 1374.33 2030.75 1376.19 2033.63 1377.56 2037.14 1378.43 2041.28 1379.3 2045.43 1379.74 2050.11 1379.74 2055.34 1379.74 2066.93 1377.68 2075.7 1373.57 2081.64 1369.46 2087.58 1363.5 2090.55 1355.7 2090.55 1347.97 2090.55 1342.22 2087.75 1338.46 2082.14 1334.7 2076.53 1332.82 2068.03 1332.82 2056.64 1332.82 2050.69 1333.4 2045.53 1334.57 2041.18 1335.74 2036.82 1337.37 2033.21 1339.48 2030.34 1341.59 2027.46 1344.09 2025.32 1346.98 2023.91 1349.87 2022.5 1353.04 2021.79 1356.49 2021.79ZM1294.49 2021.79C1298.63 2021.79 1302.17 2022.57 1305.12 2024.12 1308.06 2025.67 1310.46 2027.88 1312.33 2030.75 1314.19 2033.63 1315.56 2037.14 1316.43 2041.28 1317.3 2045.43 1317.74 2050.11 1317.74 2055.34 1317.74 2066.93 1315.68 2075.7 1311.57 2081.64 1307.46 2087.58 1301.5 2090.55 1293.7 2090.55 1285.97 2090.55 1280.22 2087.75 1276.46 2082.14 1272.7 2076.53 1270.82 2068.03 1270.82 2056.64 1270.82 2050.69 1271.4 2045.53 1272.57 2041.18 1273.74 2036.82 1275.37 2033.21 1277.48 2030.34 1279.59 2027.46 1282.09 2025.32 1284.98 2023.91 1287.87 2022.5 1291.04 2021.79 1294.49 2021.79ZM1247.43 2019.29 1252.13 2019.29 1251.4 2031.93 1220.78 2031.93 1220.78 2052.36C1222.63 2051.73 1224.65 2051.23 1226.84 2050.84 1229.04 2050.46 1231.25 2050.27 1233.48 2050.27 1236.68 2050.27 1239.58 2050.71 1242.18 2051.6 1244.77 2052.49 1247 2053.76 1248.86 2055.41 1250.73 2057.07 1252.17 2059.07 1253.2 2061.42 1254.23 2063.77 1254.74 2066.41 1254.74 2069.34 1254.74 2072.68 1254.17 2075.66 1253.02 2078.27 1251.87 2080.88 1250.22 2083.1 1248.08 2084.93 1245.94 2086.76 1243.33 2088.15 1240.24 2089.11 1237.16 2090.07 1233.69 2090.55 1229.82 2090.55 1226.76 2090.55 1223.62 2090.25 1220.42 2089.66 1217.21 2089.07 1213.89 2088.2 1210.44 2087.05L1210.44 2075.45 1217.13 2075.45C1218.17 2078.97 1219.74 2081.48 1221.83 2083 1223.92 2084.51 1226.67 2085.27 1230.08 2085.27 1234.65 2085.27 1238.09 2084.09 1240.43 2081.72 1242.76 2079.35 1243.93 2075.64 1243.93 2070.59 1243.93 2065.75 1242.69 2062.15 1240.22 2059.8 1237.74 2057.45 1234.28 2056.28 1229.82 2056.28 1228.64 2056.28 1227.57 2056.29 1226.61 2056.33 1225.65 2056.36 1224.7 2056.45 1223.76 2056.59 1222.82 2056.73 1221.89 2056.92 1220.97 2057.16 1220.04 2057.41 1219.01 2057.69 1217.86 2058L1213.57 2055.65 1213.57 2022.79 1242.52 2022.79C1243.35 2022.75 1244.02 2022.7 1244.53 2022.63 1245.03 2022.56 1245.44 2022.4 1245.76 2022.16 1246.07 2021.92 1246.35 2021.58 1246.59 2021.14 1246.84 2020.7 1247.11 2020.09 1247.43 2019.29ZM1490.5 2018.14 1515.16 2018.14 1515.16 2021.58C1513.53 2022.11 1512.26 2022.51 1511.35 2022.79 1510.45 2023.06 1509.77 2023.47 1509.34 2024.01 1508.9 2024.55 1508.63 2025.38 1508.53 2026.5 1508.43 2027.61 1508.37 2029.26 1508.37 2031.46L1508.37 2049.27 1539.51 2049.27 1539.51 2031.46C1539.51 2029.37 1539.47 2027.78 1539.38 2026.68 1539.29 2025.58 1539.04 2024.75 1538.62 2024.17 1538.21 2023.6 1537.54 2023.15 1536.64 2022.84 1535.73 2022.52 1534.44 2022.11 1532.77 2021.58L1532.77 2018.14 1557.33 2018.14 1557.33 2021.58C1555.76 2022.04 1554.53 2022.41 1553.64 2022.71 1552.76 2023 1552.09 2023.45 1551.63 2024.04 1551.18 2024.63 1550.9 2025.49 1550.8 2026.6 1550.69 2027.71 1550.64 2029.33 1550.64 2031.46L1550.64 2076.13C1550.64 2077.98 1550.68 2079.46 1550.77 2080.57 1550.86 2081.68 1551.11 2082.58 1551.53 2083.26 1551.95 2083.94 1552.61 2084.48 1553.51 2084.88 1554.42 2085.28 1555.69 2085.69 1557.33 2086.11L1557.33 2089.45 1532.77 2089.45 1532.77 2086.11C1534.2 2085.73 1535.35 2085.39 1536.22 2085.09 1537.09 2084.79 1537.76 2084.33 1538.23 2083.7 1538.7 2083.08 1539.02 2082.19 1539.17 2081.04 1539.33 2079.89 1539.44 2078.25 1539.51 2076.13L1539.51 2055.13 1508.37 2055.13 1508.37 2076.13C1508.37 2078.18 1508.43 2079.78 1508.53 2080.91 1508.63 2082.04 1508.9 2082.91 1509.34 2083.52 1509.77 2084.13 1510.45 2084.6 1511.35 2084.93 1512.26 2085.26 1513.53 2085.66 1515.16 2086.11L1515.16 2089.45 1490.5 2089.45 1490.5 2086.11C1492.18 2085.59 1493.47 2085.16 1494.37 2084.83 1495.28 2084.5 1495.94 2084.03 1496.36 2083.42 1496.77 2082.81 1497.01 2081.95 1497.06 2080.86 1497.11 2079.76 1497.14 2078.18 1497.14 2076.13L1497.14 2031.46C1497.14 2029.33 1497.1 2027.72 1497.01 2026.63 1496.92 2025.53 1496.67 2024.69 1496.25 2024.12 1495.83 2023.54 1495.18 2023.11 1494.29 2022.81 1493.4 2022.52 1492.14 2022.11 1490.5 2021.58ZM1394.4 2018.14 1415.61 2018.14C1418.89 2026.46 1422.13 2034.73 1425.33 2042.95 1428.53 2051.17 1431.77 2059.43 1435.05 2067.72 1438.67 2059.43 1442.26 2051.17 1445.81 2042.95 1449.36 2034.73 1452.95 2026.46 1456.57 2018.14L1476.37 2018.14 1476.37 2021.58C1474.81 2022.11 1473.57 2022.51 1472.66 2022.79 1471.76 2023.06 1471.08 2023.47 1470.63 2024.01 1470.17 2024.55 1469.89 2025.38 1469.77 2026.5 1469.64 2027.61 1469.58 2029.26 1469.58 2031.46L1469.58 2076.13C1469.58 2078.18 1469.63 2079.77 1469.74 2080.88 1469.84 2082 1470.12 2082.86 1470.57 2083.47 1471.03 2084.08 1471.71 2084.56 1472.61 2084.91 1473.52 2085.25 1474.77 2085.66 1476.37 2086.11L1476.37 2089.45 1452.13 2089.45 1452.13 2086.11C1453.8 2085.62 1455.09 2085.22 1456 2084.91 1456.9 2084.59 1457.57 2084.13 1457.98 2083.52 1458.4 2082.91 1458.65 2082.05 1458.74 2080.94 1458.83 2079.82 1458.87 2078.22 1458.87 2076.13L1458.87 2056.75C1458.87 2054.24 1458.89 2051.64 1458.92 2048.96 1458.96 2046.28 1459.01 2043.74 1459.08 2041.33 1459.15 2038.93 1459.24 2036.77 1459.34 2034.85 1459.45 2032.94 1459.57 2031.49 1459.71 2030.52L1458.87 2030.52C1455.08 2038.98 1451.33 2047.42 1447.64 2055.83 1443.95 2064.24 1440.25 2072.7 1436.56 2081.2L1429.67 2081.2C1426.18 2072.52 1422.74 2063.94 1419.35 2055.44 1415.95 2046.94 1412.51 2038.37 1409.03 2029.73L1408.14 2029.73C1408.21 2030.57 1408.28 2031.63 1408.35 2032.92 1408.42 2034.21 1408.49 2035.64 1408.56 2037.21 1408.63 2038.77 1408.69 2040.44 1408.74 2042.2 1408.79 2043.95 1408.85 2045.73 1408.9 2047.52 1408.95 2049.32 1408.99 2051.08 1409 2052.8 1409.02 2054.53 1409.03 2056.14 1409.03 2057.63L1409.03 2076.13C1409.03 2078.18 1409.07 2079.76 1409.16 2080.86 1409.25 2081.95 1409.51 2082.82 1409.94 2083.44 1410.38 2084.07 1411.04 2084.55 1411.93 2084.88 1412.82 2085.21 1414.08 2085.62 1415.72 2086.11L1415.72 2089.45 1394.4 2089.45 1394.4 2086.11C1396.07 2085.59 1397.37 2085.16 1398.29 2084.83 1399.22 2084.5 1399.89 2084.03 1400.3 2083.42 1400.72 2082.81 1400.97 2081.95 1401.04 2080.86 1401.1 2079.76 1401.14 2078.18 1401.14 2076.13L1401.14 2031.46C1401.14 2029.37 1401.1 2027.78 1401.01 2026.7 1400.92 2025.62 1400.67 2024.8 1400.25 2024.22 1399.83 2023.65 1399.17 2023.2 1398.27 2022.89 1397.36 2022.58 1396.07 2022.14 1394.4 2021.58Z" fill-rule="evenodd"/><text fill="#000000" fill-opacity="0" font-family="Arial,Arial_MSFontService,sans-serif" font-size="72.4131" x="1210.44" y="2081.5">500MHz</text><path d="M1002.91 2217.24C1000.54 2217.24 998.497 2217.56 996.773 2218.2 995.049 2218.85 993.63 2219.75 992.515 2220.92 991.401 2222.09 990.591 2223.5 990.086 2225.15 989.581 2226.81 989.328 2228.64 989.328 2230.66 989.328 2232.82 989.607 2234.78 990.164 2236.54 990.721 2238.3 991.583 2239.81 992.75 2241.06 993.917 2242.31 995.362 2243.28 997.087 2243.96 998.811 2244.64 1000.82 2244.98 1003.12 2244.98 1005.52 2244.98 1007.55 2244.62 1009.21 2243.91 1010.86 2243.19 1012.22 2242.23 1013.28 2241.01 1014.35 2239.79 1015.12 2238.36 1015.61 2236.72 1016.1 2235.09 1016.34 2233.38 1016.34 2231.6 1016.34 2229.34 1016.03 2227.31 1015.4 2225.52 1014.77 2223.72 1013.88 2222.23 1012.71 2221.02 1011.54 2219.82 1010.12 2218.89 1008.45 2218.23 1006.78 2217.57 1004.93 2217.24 1002.91 2217.24ZM1074.06 2195.81C1077.89 2195.81 1080.96 2196.62 1083.28 2198.24 1085.59 2199.86 1087.29 2202.38 1088.37 2205.79 1090.32 2203.91 1092.07 2202.35 1093.62 2201.09 1095.17 2199.84 1096.63 2198.83 1098.01 2198.06 1099.39 2197.3 1100.75 2196.75 1102.11 2196.42 1103.47 2196.08 1104.95 2195.88 1106.55 2195.81 1108.92 2195.85 1111.05 2196.19 1112.93 2196.83 1114.81 2197.48 1116.4 2198.51 1117.71 2199.94 1119.01 2201.37 1120.01 2203.25 1120.71 2205.58 1121.41 2207.92 1121.74 2210.77 1121.7 2214.15L1121.7 2235.84C1121.7 2237.89 1121.73 2239.47 1121.78 2240.56 1121.83 2241.66 1122.05 2242.52 1122.43 2243.15 1122.82 2243.78 1123.44 2244.26 1124.29 2244.59 1125.14 2244.92 1126.37 2245.33 1127.97 2245.81L1127.97 2249.16 1105.14 2249.16 1105.14 2245.81C1106.53 2245.33 1107.65 2244.94 1108.49 2244.67 1109.32 2244.39 1109.96 2243.96 1110.39 2243.39 1110.83 2242.81 1111.11 2241.97 1111.23 2240.88 1111.35 2239.78 1111.41 2238.19 1111.41 2236.1L1111.41 2219.69C1111.41 2216 1111.21 2213.06 1110.81 2210.86 1110.41 2208.67 1109.82 2206.99 1109.03 2205.82 1108.25 2204.65 1107.25 2203.9 1106.03 2203.55 1104.81 2203.2 1103.4 2203.02 1101.8 2203.02 1100.58 2203.02 1099.24 2203.35 1097.77 2203.99 1096.31 2204.64 1094.95 2205.51 1093.7 2206.6 1092.45 2207.7 1091.39 2208.96 1090.54 2210.39 1089.69 2211.82 1089.26 2213.3 1089.26 2214.83L1089.26 2235.84C1089.26 2237.89 1089.29 2239.48 1089.36 2240.62 1089.43 2241.75 1089.67 2242.62 1090.07 2243.23 1090.47 2243.84 1091.1 2244.31 1091.95 2244.64 1092.8 2244.97 1094.03 2245.36 1095.63 2245.81L1095.63 2249.16 1072.7 2249.16 1072.7 2245.81C1074.09 2245.33 1075.2 2244.94 1076.01 2244.64 1076.83 2244.34 1077.46 2243.91 1077.9 2243.33 1078.33 2242.76 1078.61 2241.93 1078.73 2240.85 1078.85 2239.77 1078.91 2238.19 1078.91 2236.1L1078.91 2220.37C1078.91 2216.57 1078.71 2213.54 1078.31 2211.28 1077.91 2209.02 1077.32 2207.28 1076.54 2206.08 1075.75 2204.88 1074.75 2204.09 1073.53 2203.7 1072.31 2203.32 1070.9 2203.09 1069.3 2203.02 1067.91 2203.09 1066.46 2203.47 1064.96 2204.15 1063.47 2204.83 1062.1 2205.72 1060.86 2206.81 1059.63 2207.91 1058.63 2209.14 1057.86 2210.5 1057.09 2211.85 1056.74 2213.21 1056.81 2214.57L1056.81 2235.84C1056.81 2237.99 1056.86 2239.64 1056.94 2240.77 1057.03 2241.9 1057.28 2242.76 1057.7 2243.33 1058.12 2243.91 1058.76 2244.33 1059.61 2244.61 1060.46 2244.89 1061.67 2245.29 1063.24 2245.81L1063.24 2249.16 1040.3 2249.16 1040.3 2245.81C1041.66 2245.33 1042.75 2244.94 1043.57 2244.67 1044.39 2244.39 1045.02 2243.96 1045.45 2243.39 1045.89 2242.81 1046.16 2241.97 1046.29 2240.85 1046.41 2239.74 1046.47 2238.12 1046.47 2235.99L1046.47 2211.38C1046.47 2210.06 1046.44 2208.92 1046.39 2207.96 1046.34 2207 1046.28 2206.23 1046.21 2205.64 1046.14 2204.91 1046.01 2204.28 1045.82 2203.76 1045.62 2203.23 1045.29 2202.77 1044.82 2202.37 1044.35 2201.97 1043.69 2201.62 1042.84 2201.33 1041.98 2201.03 1040.88 2200.74 1039.52 2200.46L1039.52 2196.91 1053.21 2196.34 1056.92 2196.34C1056.81 2197.84 1056.69 2199.31 1056.55 2200.75 1056.41 2202.2 1056.29 2203.65 1056.19 2205.11 1056.29 2205.18 1056.4 2205.22 1056.5 2205.22 1056.6 2205.22 1056.71 2205.25 1056.81 2205.32 1058.66 2203.51 1060.35 2202.01 1061.88 2200.8 1063.41 2199.6 1064.86 2198.64 1066.22 2197.9 1067.58 2197.17 1068.89 2196.65 1070.16 2196.34 1071.43 2196.02 1072.73 2195.85 1074.06 2195.81ZM1003.02 2186.57C998.837 2186.57 995.65 2187.64 993.456 2189.78 991.261 2191.92 990.164 2194.96 990.164 2198.9 990.164 2200.92 990.417 2202.74 990.922 2204.36 991.427 2205.98 992.219 2207.37 993.299 2208.54 994.379 2209.7 995.737 2210.58 997.374 2211.18 999.011 2211.77 1000.94 2212.06 1003.17 2212.06 1005.58 2212.06 1007.59 2211.73 1009.21 2211.07 1010.83 2210.41 1012.13 2209.5 1013.13 2208.35 1014.12 2207.2 1014.84 2205.87 1015.29 2204.36 1015.75 2202.84 1015.97 2201.23 1015.97 2199.52 1015.97 2197.43 1015.65 2195.59 1015.01 2193.99 1014.36 2192.38 1013.47 2191.02 1012.34 2189.89 1011.21 2188.75 1009.85 2187.92 1008.27 2187.38 1006.68 2186.84 1004.93 2186.57 1003.02 2186.57ZM1003.17 2181.5C1007.25 2181.5 1010.76 2181.92 1013.7 2182.75 1016.64 2183.59 1019.06 2184.75 1020.96 2186.23 1022.86 2187.71 1024.27 2189.48 1025.19 2191.53 1026.12 2193.59 1026.58 2195.87 1026.58 2198.38 1026.58 2201.93 1025.6 2204.96 1023.65 2207.47 1021.7 2209.97 1018.74 2212.13 1014.77 2213.94 1014.77 2214.05 1014.78 2214.19 1014.8 2214.36 1014.82 2214.54 1014.82 2214.68 1014.82 2214.78 1018.93 2216.24 1022 2218.39 1024.02 2221.21 1026.04 2224.03 1027.05 2227.27 1027.05 2230.92 1027.05 2233.82 1026.47 2236.45 1025.33 2238.84 1024.18 2241.23 1022.52 2243.28 1020.36 2245 1018.2 2246.73 1015.61 2248.05 1012.58 2248.98 1009.55 2249.9 1006.13 2250.36 1002.34 2250.36 998.785 2250.36 995.554 2249.94 992.646 2249.11 989.737 2248.27 987.247 2247.05 985.174 2245.45 983.102 2243.85 981.5 2241.89 980.368 2239.57 979.236 2237.25 978.67 2234.65 978.67 2231.76 978.67 2229.67 978.957 2227.82 979.532 2226.2 980.107 2224.58 980.916 2223.12 981.961 2221.83 983.006 2220.54 984.286 2219.4 985.801 2218.39 987.317 2217.38 989.015 2216.4 990.895 2215.46L990.895 2214.78C986.994 2213.11 984.13 2210.98 982.301 2208.38 980.472 2205.79 979.558 2202.69 979.558 2199.11 979.488 2196.49 980.063 2194.1 981.282 2191.92 982.501 2189.75 984.182 2187.89 986.324 2186.36 988.466 2184.83 991 2183.63 993.926 2182.78 996.852 2181.93 999.934 2181.5 1003.17 2181.5ZM872.017 2181.5C874.803 2181.5 877.407 2181.8 879.827 2182.39 882.248 2182.98 884.347 2183.88 886.123 2185.08 887.899 2186.28 889.284 2187.78 890.277 2189.57 891.269 2191.37 891.766 2193.45 891.766 2195.81 891.766 2198.04 891.452 2200.01 890.825 2201.72 890.198 2203.43 889.232 2204.98 887.925 2206.37 886.619 2207.76 885.017 2209.02 883.119 2210.16 881.221 2211.29 879.035 2212.38 876.562 2213.42L876.562 2214.05C878.896 2214.47 881.073 2215.14 883.093 2216.06 885.113 2216.98 886.881 2218.15 888.396 2219.56 889.911 2220.97 891.104 2222.6 891.975 2224.45 892.845 2226.29 893.281 2228.33 893.281 2230.56 893.281 2233.34 892.758 2235.93 891.713 2238.32 890.668 2240.7 889.101 2242.77 887.011 2244.51 884.921 2246.25 882.344 2247.61 879.279 2248.58 876.214 2249.56 872.626 2250.05 868.516 2250.05 865.277 2250.05 861.985 2249.72 858.642 2249.08 855.298 2248.44 852.128 2247.59 849.133 2246.55L849.133 2235.26 855.872 2235.26C856.43 2237 857.092 2238.49 857.858 2239.73 858.624 2240.96 859.521 2241.97 860.549 2242.76 861.576 2243.54 862.76 2244.11 864.101 2244.46 865.442 2244.8 866.966 2244.98 868.673 2244.98 873.166 2244.98 876.571 2243.91 878.887 2241.77 881.203 2239.62 882.361 2236.38 882.361 2232.02 882.361 2227.39 880.837 2223.88 877.79 2221.49 874.742 2219.11 870.223 2217.92 864.232 2217.92L859.634 2217.92 859.634 2212.9C863.291 2212.73 866.452 2212.21 869.117 2211.36 871.781 2210.5 874.002 2209.4 875.778 2208.04 877.555 2206.68 878.878 2205.1 879.749 2203.29 880.62 2201.47 881.055 2199.54 881.055 2197.49 881.055 2194.14 880.062 2191.5 878.077 2189.57 876.092 2187.64 873.218 2186.67 869.456 2186.67 866.287 2186.67 863.631 2187.54 861.489 2189.28 859.347 2191.03 857.701 2193.62 856.552 2197.07L849.916 2197.07 849.916 2186.78C854.026 2185.03 857.901 2183.72 861.541 2182.83 865.181 2181.94 868.673 2181.5 872.017 2181.5ZM910.14 2177.84 963.901 2177.84 963.901 2194.77 957.893 2194.77C957.057 2192.47 956.308 2190.6 955.646 2189.15 954.985 2187.71 954.236 2186.58 953.4 2185.76 952.564 2184.94 951.562 2184.38 950.396 2184.09 949.229 2183.79 947.705 2183.64 945.824 2183.64L928.008 2183.64 928.008 2209.19 940.129 2209.19C941.314 2209.19 942.315 2209.07 943.133 2208.82 943.952 2208.58 944.64 2208.17 945.197 2207.6 945.755 2207.02 946.233 2206.24 946.634 2205.25 947.035 2204.25 947.409 2203.02 947.757 2201.56L953.661 2201.56 953.661 2222.62 947.757 2222.62C947.409 2221.08 947.035 2219.82 946.634 2218.83 946.233 2217.84 945.746 2217.05 945.171 2216.48 944.596 2215.9 943.9 2215.51 943.081 2215.3 942.263 2215.09 941.279 2214.99 940.129 2214.99L928.008 2214.99 928.008 2243.52 945.511 2243.52C947.566 2243.52 949.255 2243.34 950.579 2242.99 951.902 2242.64 953.017 2241.97 953.922 2240.96 954.828 2239.95 955.612 2238.55 956.273 2236.78 956.935 2235 957.649 2232.67 958.415 2229.77L964.528 2229.77C964.319 2233.01 964.11 2236.25 963.901 2239.49 963.692 2242.73 963.501 2245.95 963.327 2249.16L910.14 2249.16 910.14 2245.81C911.812 2245.29 913.101 2244.87 914.006 2244.53 914.912 2244.2 915.574 2243.73 915.992 2243.12 916.41 2242.51 916.645 2241.66 916.697 2240.56 916.749 2239.47 916.775 2237.89 916.775 2235.84L916.775 2191.27C916.74 2189.46 916.688 2188 916.619 2186.91 916.549 2185.81 916.314 2184.93 915.913 2184.27 915.513 2183.61 914.868 2183.07 913.98 2182.65 913.092 2182.23 911.812 2181.78 910.14 2181.29Z" fill-rule="evenodd"/><text fill="#000000" fill-opacity="0" font-family="Arial,Arial_MSFontService,sans-serif" font-size="72.5176" x="849.133" y="2241.3">3E8m</text><path d="M1173.61 2174.39 1181.71 2174.39 1143.99 2271.62 1135.78 2271.62Z" fill-rule="evenodd"/><text fill="#000000" fill-opacity="0" font-family="Arial,Arial_MSFontService,sans-serif" font-size="97.23" x="1135.78" y="2259.47">/</text><path d="M1213.99 2195.81C1215.21 2195.81 1216.4 2195.84 1217.57 2195.89 1218.73 2195.95 1219.95 2196.05 1221.22 2196.21 1222.5 2196.36 1223.87 2196.56 1225.35 2196.81 1226.83 2197.05 1228.5 2197.36 1230.34 2197.75L1230.34 2209.4 1224.33 2209.4C1223.81 2207.94 1223.19 2206.67 1222.48 2205.61 1221.76 2204.55 1220.94 2203.68 1220 2203 1219.06 2202.32 1217.97 2201.81 1216.73 2201.48 1215.49 2201.15 1214.08 2200.99 1212.47 2200.99 1209.48 2200.99 1207.11 2201.61 1205.37 2202.87 1203.63 2204.12 1202.76 2205.92 1202.76 2208.25 1202.76 2209.22 1202.88 2210.1 1203.12 2210.86 1203.36 2211.63 1203.9 2212.4 1204.74 2213.19 1205.58 2213.97 1206.81 2214.8 1208.45 2215.67 1210.09 2216.54 1212.3 2217.55 1215.09 2218.7 1217.87 2219.81 1220.26 2220.89 1222.24 2221.94 1224.23 2222.98 1225.87 2224.1 1227.15 2225.28 1228.44 2226.47 1229.38 2227.79 1229.98 2229.25 1230.57 2230.72 1230.86 2232.4 1230.86 2234.32 1230.86 2237.04 1230.39 2239.38 1229.43 2241.35 1228.47 2243.32 1227.08 2244.95 1225.27 2246.26 1223.46 2247.56 1221.25 2248.53 1218.64 2249.16 1216.03 2249.79 1213.08 2250.1 1209.81 2250.1 1203.57 2250.1 1197.48 2249.25 1191.52 2247.54L1191.52 2235.63 1197.43 2235.63C1198.47 2238.94 1199.99 2241.33 1201.97 2242.81 1203.96 2244.29 1206.71 2245.03 1210.23 2245.03 1211.72 2245.03 1213.11 2244.87 1214.38 2244.56 1215.65 2244.25 1216.76 2243.76 1217.7 2243.1 1218.64 2242.44 1219.38 2241.6 1219.92 2240.59 1220.46 2239.58 1220.73 2238.38 1220.73 2236.98 1220.73 2236.15 1220.64 2235.41 1220.47 2234.76 1220.29 2234.12 1220.02 2233.52 1219.66 2232.96 1219.29 2232.4 1218.82 2231.87 1218.25 2231.37 1217.67 2230.86 1216.98 2230.37 1216.18 2229.88 1214.3 2228.8 1212.41 2227.83 1210.51 2226.98 1208.62 2226.13 1206.8 2225.29 1205.05 2224.47 1203.31 2223.65 1201.68 2222.83 1200.17 2221.99 1198.65 2221.15 1197.33 2220.21 1196.2 2219.14 1195.07 2218.08 1194.18 2216.87 1193.53 2215.51 1192.89 2214.15 1192.57 2212.57 1192.57 2210.76 1192.57 2208.21 1193.11 2206 1194.19 2204.12 1195.27 2202.24 1196.76 2200.69 1198.68 2199.47 1200.6 2198.25 1202.86 2197.34 1205.47 2196.73 1208.08 2196.12 1210.92 2195.81 1213.99 2195.81Z" fill-rule="evenodd"/><text fill="#000000" fill-opacity="0" font-family="Arial,Arial_MSFontService,sans-serif" font-size="54.2837" x="1191.52" y="2243.31">s</text><path d="M1275.98 2211.07C1277.34 2211.07 1278.56 2211.39 1279.66 2212.04 1280.76 2212.68 1281.6 2213.58 1282.19 2214.73 1282.79 2215.88 1283.08 2217.17 1283.08 2218.59 1283.08 2220.06 1282.78 2221.36 1282.17 2222.51 1281.56 2223.66 1280.71 2224.55 1279.61 2225.18 1278.51 2225.8 1277.3 2226.12 1275.98 2226.12 1274.65 2226.12 1273.44 2225.8 1272.35 2225.18 1271.25 2224.55 1270.4 2223.66 1269.79 2222.51 1269.18 2221.36 1268.87 2220.06 1268.87 2218.59 1268.87 2217.17 1269.17 2215.88 1269.76 2214.73 1270.35 2213.58 1271.2 2212.68 1272.29 2212.04 1273.39 2211.39 1274.62 2211.07 1275.98 2211.07Z" fill-rule="evenodd"/><text fill="#000000" fill-opacity="0" font-family="Arial,Arial_MSFontService,sans-serif" font-size="15.0469" x="1268.87" y="2224.24">∙</text><path d="M1539.5 2199.16 1548.49 2199.16 1548.49 2238.34C1548.49 2240.43 1548.82 2241.97 1549.48 2242.97 1550.14 2243.96 1551.06 2244.46 1552.25 2244.46 1553.81 2244.46 1555.45 2243.72 1557.16 2242.26L1559.2 2245.4C1557.24 2247 1555.4 2248.16 1553.66 2248.87 1551.92 2249.58 1550.1 2249.94 1548.22 2249.94 1545.65 2249.94 1543.63 2249.17 1542.19 2247.62 1540.74 2246.07 1539.93 2243.86 1539.76 2241.01L1539.29 2240.85C1536.99 2243.32 1535.1 2245.12 1533.62 2246.23 1532.14 2247.35 1530.64 2248.19 1529.13 2248.77 1527.61 2249.34 1525.98 2249.63 1524.24 2249.63 1522.92 2249.63 1521.68 2249.39 1520.53 2248.92 1519.38 2248.45 1518.25 2247.68 1517.14 2246.6L1516.72 2246.91C1516.96 2249.87 1517.32 2252.94 1517.79 2256.11 1518.26 2259.28 1518.79 2261.98 1519.38 2264.21L1519.38 2267.08 1514.84 2270.11 1510.19 2270.11 1510.19 2199.21 1519.18 2199.21 1519.18 2228C1519.18 2231.31 1519.31 2233.95 1519.59 2235.94 1519.87 2237.93 1520.42 2239.5 1521.24 2240.67 1522.06 2241.83 1522.97 2242.64 1523.98 2243.07 1524.99 2243.51 1526.35 2243.72 1528.06 2243.72 1530.22 2243.72 1532.25 2242.93 1534.14 2241.35 1536.04 2239.76 1537.41 2238.24 1538.24 2236.78 1539.08 2235.31 1539.5 2233.62 1539.5 2231.71ZM1469.71 2186.57C1467.28 2186.57 1465.24 2187.2 1463.6 2188.47 1461.96 2189.75 1460.67 2191.61 1459.71 2194.06 1458.75 2196.52 1458.07 2199.52 1457.67 2203.05 1457.27 2206.59 1457.07 2210.6 1457.07 2215.09 1457.07 2220.28 1457.32 2224.77 1457.83 2228.55 1458.33 2232.33 1459.12 2235.43 1460.18 2237.87 1461.24 2240.31 1462.57 2242.1 1464.18 2243.25 1465.78 2244.4 1467.69 2244.98 1469.92 2244.98 1472.01 2244.98 1473.84 2244.44 1475.41 2243.36 1476.98 2242.28 1478.27 2240.6 1479.3 2238.32 1480.33 2236.04 1481.1 2233.14 1481.63 2229.64 1482.15 2226.14 1482.41 2222.01 1482.41 2217.24 1482.41 2211.87 1482.12 2207.26 1481.55 2203.39 1480.97 2199.52 1480.16 2196.35 1479.12 2193.86 1478.07 2191.37 1476.76 2189.53 1475.17 2188.34 1473.59 2187.16 1471.77 2186.57 1469.71 2186.57ZM1407.71 2186.57C1405.28 2186.57 1403.24 2187.2 1401.6 2188.47 1399.96 2189.75 1398.67 2191.61 1397.71 2194.06 1396.75 2196.52 1396.07 2199.52 1395.67 2203.05 1395.27 2206.59 1395.07 2210.6 1395.07 2215.09 1395.07 2220.28 1395.32 2224.77 1395.83 2228.55 1396.33 2232.33 1397.12 2235.43 1398.18 2237.87 1399.24 2240.31 1400.57 2242.1 1402.18 2243.25 1403.78 2244.4 1405.69 2244.98 1407.92 2244.98 1410.01 2244.98 1411.84 2244.44 1413.41 2243.36 1414.98 2242.28 1416.27 2240.6 1417.3 2238.32 1418.33 2236.04 1419.1 2233.14 1419.63 2229.64 1420.15 2226.14 1420.41 2222.01 1420.41 2217.24 1420.41 2211.87 1420.12 2207.26 1419.55 2203.39 1418.97 2199.52 1418.16 2196.35 1417.12 2193.86 1416.07 2191.37 1414.76 2189.53 1413.17 2188.34 1411.59 2187.16 1409.77 2186.57 1407.71 2186.57ZM1469.92 2181.5C1474.07 2181.5 1477.61 2182.27 1480.56 2183.82 1483.5 2185.37 1485.9 2187.59 1487.77 2190.46 1489.63 2193.33 1491 2196.84 1491.87 2200.99 1492.74 2205.13 1493.17 2209.82 1493.17 2215.04 1493.17 2226.64 1491.12 2235.41 1487.01 2241.35 1482.9 2247.29 1476.94 2250.26 1469.14 2250.26 1461.41 2250.26 1455.66 2247.45 1451.9 2241.84 1448.14 2236.24 1446.26 2227.74 1446.26 2216.35 1446.26 2210.39 1446.84 2205.24 1448.01 2200.88 1449.17 2196.53 1450.81 2192.92 1452.92 2190.04 1455.02 2187.17 1457.52 2185.03 1460.41 2183.62 1463.31 2182.2 1466.47 2181.5 1469.92 2181.5ZM1407.92 2181.5C1412.07 2181.5 1415.61 2182.27 1418.56 2183.82 1421.5 2185.37 1423.9 2187.59 1425.77 2190.46 1427.63 2193.33 1429 2196.84 1429.87 2200.99 1430.74 2205.13 1431.17 2209.82 1431.17 2215.04 1431.17 2226.64 1429.12 2235.41 1425.01 2241.35 1420.9 2247.29 1414.94 2250.26 1407.14 2250.26 1399.41 2250.26 1393.66 2247.45 1389.9 2241.84 1386.14 2236.24 1384.26 2227.74 1384.26 2216.35 1384.26 2210.39 1384.84 2205.24 1386.01 2200.88 1387.17 2196.53 1388.81 2192.92 1390.92 2190.04 1393.02 2187.17 1395.52 2185.03 1398.41 2183.62 1401.31 2182.2 1404.47 2181.5 1407.92 2181.5ZM1360.87 2178.99 1365.57 2178.99 1364.84 2191.64 1334.22 2191.64 1334.22 2212.06C1336.07 2211.44 1338.09 2210.93 1340.28 2210.55 1342.47 2210.17 1344.69 2209.97 1346.92 2209.97 1350.12 2209.97 1353.02 2210.42 1355.61 2211.31 1358.21 2212.19 1360.44 2213.47 1362.3 2215.12 1364.17 2216.77 1365.61 2218.78 1366.64 2221.13 1367.67 2223.48 1368.18 2226.12 1368.18 2229.04 1368.18 2232.39 1367.61 2235.37 1366.46 2237.98 1365.31 2240.59 1363.66 2242.81 1361.52 2244.64 1359.38 2246.47 1356.76 2247.86 1353.68 2248.82 1350.6 2249.78 1347.12 2250.26 1343.26 2250.26 1340.19 2250.26 1337.06 2249.96 1333.85 2249.37 1330.65 2248.78 1327.32 2247.9 1323.88 2246.75L1323.88 2235.16 1330.56 2235.16C1331.61 2238.67 1333.18 2241.19 1335.26 2242.71 1337.35 2244.22 1340.11 2244.98 1343.52 2244.98 1348.08 2244.98 1351.53 2243.79 1353.86 2241.43 1356.2 2239.06 1357.36 2235.35 1357.36 2230.3 1357.36 2225.46 1356.13 2221.86 1353.66 2219.51 1351.18 2217.16 1347.72 2215.98 1343.26 2215.98 1342.07 2215.98 1341 2216 1340.05 2216.03 1339.09 2216.07 1338.14 2216.16 1337.2 2216.3 1336.26 2216.43 1335.33 2216.63 1334.4 2216.87 1333.48 2217.11 1332.44 2217.39 1331.29 2217.71L1327.01 2215.35 1327.01 2182.49 1355.95 2182.49C1356.79 2182.46 1357.46 2182.41 1357.97 2182.34 1358.47 2182.27 1358.88 2182.11 1359.19 2181.87 1359.51 2181.62 1359.79 2181.28 1360.03 2180.85 1360.27 2180.41 1360.55 2179.79 1360.87 2178.99Z" fill-rule="evenodd"/><text fill="#000000" fill-opacity="0" font-family="Arial,Arial_MSFontService,sans-serif" font-size="91.1172" x="1323.88" y="2258.72">500µ</text><path d="M1587.53 2195.81C1588.75 2195.81 1589.94 2195.84 1591.11 2195.89 1592.28 2195.95 1593.49 2196.05 1594.77 2196.21 1596.04 2196.36 1597.41 2196.56 1598.89 2196.81 1600.37 2197.05 1602.04 2197.36 1603.88 2197.75L1603.88 2209.4 1597.87 2209.4C1597.35 2207.94 1596.73 2206.67 1596.02 2205.61 1595.31 2204.55 1594.48 2203.68 1593.54 2203 1592.6 2202.32 1591.51 2201.81 1590.27 2201.48 1589.04 2201.15 1587.62 2200.99 1586.01 2200.99 1583.02 2200.99 1580.65 2201.61 1578.91 2202.87 1577.17 2204.12 1576.3 2205.92 1576.3 2208.25 1576.3 2209.22 1576.42 2210.1 1576.66 2210.86 1576.91 2211.63 1577.45 2212.4 1578.28 2213.19 1579.12 2213.97 1580.35 2214.8 1581.99 2215.67 1583.63 2216.54 1585.84 2217.55 1588.63 2218.7 1591.41 2219.81 1593.8 2220.89 1595.78 2221.94 1597.77 2222.98 1599.41 2224.1 1600.7 2225.28 1601.98 2226.47 1602.93 2227.79 1603.52 2229.25 1604.11 2230.72 1604.41 2232.4 1604.41 2234.32 1604.41 2237.04 1603.93 2239.38 1602.97 2241.35 1602.01 2243.32 1600.63 2244.95 1598.82 2246.26 1597 2247.56 1594.79 2248.53 1592.18 2249.16 1589.57 2249.79 1586.62 2250.1 1583.35 2250.1 1577.12 2250.1 1571.02 2249.25 1565.06 2247.54L1565.06 2235.63 1570.97 2235.63C1572.01 2238.94 1573.53 2241.33 1575.51 2242.81 1577.5 2244.29 1580.25 2245.03 1583.77 2245.03 1585.27 2245.03 1586.65 2244.87 1587.92 2244.56 1589.19 2244.25 1590.3 2243.76 1591.24 2243.1 1592.18 2242.44 1592.92 2241.6 1593.46 2240.59 1594 2239.58 1594.27 2238.38 1594.27 2236.98 1594.27 2236.15 1594.18 2235.41 1594.01 2234.76 1593.83 2234.12 1593.56 2233.52 1593.2 2232.96 1592.83 2232.4 1592.36 2231.87 1591.79 2231.37 1591.21 2230.86 1590.53 2230.37 1589.72 2229.88 1587.84 2228.8 1585.95 2227.83 1584.06 2226.98 1582.16 2226.13 1580.34 2225.29 1578.6 2224.47 1576.85 2223.65 1575.23 2222.83 1573.71 2221.99 1572.2 2221.15 1570.87 2220.21 1569.74 2219.14 1568.61 2218.08 1567.72 2216.87 1567.08 2215.51 1566.43 2214.15 1566.11 2212.57 1566.11 2210.76 1566.11 2208.21 1566.65 2206 1567.73 2204.12 1568.81 2202.24 1570.31 2200.69 1572.22 2199.47 1574.14 2198.25 1576.4 2197.34 1579.01 2196.73 1581.63 2196.12 1584.46 2195.81 1587.53 2195.81Z" fill-rule="evenodd"/><text fill="#000000" fill-opacity="0" font-family="Arial,Arial_MSFontService,sans-serif" font-size="54.2837" x="1565.06" y="2243.31">s</text><path d="M832.426 2128.39 1225.93 2128.39 1619.43 2128.39 1619.43 2138.39 1225.93 2138.39 832.426 2138.39Z" fill-rule="evenodd"/><text font-family="Symbol,Symbol_MSFontService,sans-serif" font-weight="400" font-size="147" transform="matrix(1 0 0 1 1619.52 2175)"></text><path d="M1666.89 2143.52 1755.32 2143.52 1755.32 2153.07 1666.89 2153.07ZM1666.89 2113.73 1755.32 2113.73 1755.32 2123.28 1666.89 2123.28Z" fill-rule="evenodd"/><text fill="#000000" fill-opacity="0" font-family="Arial,Arial_MSFontService,sans-serif" font-size="39.334" x="1666.89" y="2148.15">=</text><path d="M1850.36 2123.71C1848.02 2123.71 1845.76 2123.97 1843.58 2124.5 1841.4 2125.03 1839.36 2125.79 1837.44 2126.8 1835.53 2127.8 1833.66 2129.07 1831.84 2130.6 1831.27 2131.13 1830.84 2131.68 1830.55 2132.25 1830.07 2133.16 1829.76 2134.28 1829.62 2135.62 1829.48 2136.96 1829.4 2139.21 1829.4 2142.37 1829.4 2151.51 1830.94 2158.47 1834 2163.26 1837.06 2168.04 1841.7 2170.44 1847.92 2170.44 1851.51 2170.44 1854.53 2169.81 1856.97 2168.57 1859.41 2167.33 1861.38 2165.62 1862.89 2163.44 1864.4 2161.26 1865.47 2158.7 1866.12 2155.76 1866.76 2152.82 1867.09 2149.62 1867.09 2146.18 1867.09 2139.09 1865.63 2133.58 1862.71 2129.63 1859.79 2125.68 1855.67 2123.71 1850.36 2123.71ZM1899.42 2077.41 1961.01 2077.41 1961.01 2080.86 1919.23 2175.89 1908.82 2175.89 1908.82 2172.37 1947.51 2090.48 1947.51 2089.4 1915.93 2089.4C1913.97 2089.4 1912.4 2089.58 1911.23 2089.94 1910.06 2090.3 1909.08 2090.81 1908.29 2091.48 1907.5 2092.15 1906.84 2093.04 1906.31 2094.14 1905.79 2095.24 1905.07 2097.42 1904.16 2100.67L1897.99 2100.67ZM1868.81 2076.26 1871.75 2080.21 1871.75 2083.73C1864.38 2083.73 1857.85 2085.31 1852.16 2088.47 1846.46 2091.63 1841.74 2096.27 1837.98 2102.39 1834.22 2108.52 1831.58 2115.79 1830.05 2124.21L1830.77 2124.5C1834.79 2121.63 1838.75 2119.52 1842.65 2118.18 1846.55 2116.84 1850.77 2116.17 1855.32 2116.17 1860.72 2116.17 1865.33 2117.36 1869.13 2119.73 1872.94 2122.09 1875.8 2125.42 1877.71 2129.7 1879.62 2133.99 1880.58 2139 1880.58 2144.74 1880.58 2150.96 1879.38 2156.45 1876.99 2161.21 1874.6 2165.97 1870.9 2169.72 1865.9 2172.45 1860.9 2175.17 1854.74 2176.54 1847.42 2176.54 1836.94 2176.54 1829.03 2173.28 1823.7 2166.78 1818.36 2160.27 1815.69 2150.67 1815.69 2137.99 1815.69 2129.48 1817.03 2121.51 1819.71 2114.09 1822.39 2106.67 1826.2 2100.2 1831.13 2094.68 1836.06 2089.15 1841.77 2084.79 1848.28 2081.61 1854.79 2078.43 1861.63 2076.65 1868.81 2076.26Z" fill-rule="evenodd"/><text fill="#000000" fill-opacity="0" font-family="Arial,Arial_MSFontService,sans-serif" font-size="100.273" x="1815.69" y="2164">67</text><path d="M2205.02 2106.77 2256.06 2106.77 2257.42 2110.36 2223.18 2149.69C2216.53 2157.3 2210.76 2163.76 2205.88 2169.07L2206.31 2169.58 2222.54 2169.58C2225.41 2169.58 2227.61 2169.42 2229.14 2169.11 2230.67 2168.8 2232.01 2168.21 2233.16 2167.35 2234.31 2166.49 2235.49 2165.19 2236.71 2163.44 2237.93 2161.69 2239.45 2158.95 2241.27 2155.22L2247.66 2155.22 2243.28 2175.39 2191.31 2175.39 2189.95 2171.87 2229.21 2126.65C2234.76 2120.29 2238.83 2115.77 2241.41 2113.09L2240.98 2112.58 2224.19 2112.58C2221.7 2112.58 2219.88 2112.75 2218.73 2113.09 2217.58 2113.42 2216.44 2114.01 2215.29 2114.85 2214.14 2115.68 2212.91 2116.93 2211.59 2118.58 2210.27 2120.23 2208.8 2122.59 2207.18 2125.65L2200.79 2125.65ZM2105.05 2077.41 2133.76 2077.41 2132.97 2080.93C2131.16 2081.31 2129.85 2081.74 2129.06 2082.22 2128.27 2082.7 2127.57 2083.42 2126.94 2084.38 2126.32 2085.33 2125.68 2086.83 2125.01 2088.86 2124.34 2090.9 2123.5 2094.21 2122.49 2098.8L2117.61 2120.77 2156.16 2120.77 2161.04 2098.73C2161.47 2096.77 2161.84 2094.68 2162.15 2092.45 2162.46 2090.23 2162.62 2088.47 2162.62 2087.18 2162.62 2084.93 2162.06 2083.36 2160.93 2082.47 2159.81 2081.59 2158.02 2081.07 2155.58 2080.93L2156.37 2077.41 2185.08 2077.41 2184.29 2080.93C2182.48 2081.31 2181.17 2081.74 2180.38 2082.22 2179.59 2082.7 2178.89 2083.42 2178.26 2084.38 2177.64 2085.33 2177 2086.83 2176.33 2088.86 2175.66 2090.9 2174.82 2094.21 2173.81 2098.8L2161.54 2154.5C2160.92 2157.33 2160.51 2159.56 2160.32 2161.21 2160.13 2162.86 2160.03 2164.36 2160.03 2165.7 2160.03 2167.85 2160.57 2169.37 2161.65 2170.26 2162.73 2171.14 2164.53 2171.68 2167.07 2171.87L2166.28 2175.39 2137.57 2175.39 2138.36 2171.87C2140.18 2171.59 2141.54 2171.12 2142.45 2170.47 2143.36 2169.83 2144.12 2168.93 2144.74 2167.78 2145.37 2166.63 2145.94 2165.23 2146.47 2163.58 2146.99 2161.93 2147.78 2158.74 2148.84 2154L2154.72 2127.37 2116.18 2127.37 2110.22 2154.5C2109.69 2156.89 2109.31 2158.87 2109.07 2160.42 2108.83 2161.98 2108.71 2163.74 2108.71 2165.7 2108.71 2167.76 2109.19 2169.24 2110.15 2170.15 2111.11 2171.06 2112.97 2171.63 2115.75 2171.87L2114.96 2175.39 2086.25 2175.39 2087.04 2171.87C2088.85 2171.59 2090.22 2171.12 2091.13 2170.47 2092.04 2169.83 2092.8 2168.93 2093.42 2167.78 2094.05 2166.63 2094.62 2165.23 2095.15 2163.58 2095.67 2161.93 2096.46 2158.74 2097.52 2154L2109.72 2098.73C2110.15 2096.77 2110.52 2094.68 2110.83 2092.45 2111.14 2090.23 2111.3 2088.47 2111.3 2087.18 2111.3 2084.93 2110.73 2083.36 2109.61 2082.47 2108.49 2081.59 2106.7 2081.07 2104.26 2080.93ZM2038.55 2072.75 2042.71 2072.75 2028.65 2135.41 2030.94 2135.41C2034.53 2135.41 2038.56 2133.84 2043.04 2130.71 2047.51 2127.57 2051.09 2124.67 2053.77 2121.99 2056.45 2119.31 2057.79 2116.72 2057.79 2114.24 2057.79 2111.89 2056.16 2110.57 2052.91 2110.29L2053.7 2106.77 2076.95 2106.77 2078.32 2110.29C2074.34 2113.88 2070.13 2117.39 2065.68 2120.84L2047.88 2134.62 2054.92 2160.53C2055.49 2162.73 2056 2164.32 2056.46 2165.3 2056.91 2166.29 2057.44 2167.02 2058.04 2167.49 2058.64 2167.97 2059.44 2168.21 2060.44 2168.21 2061.69 2168.21 2063.17 2167.54 2064.89 2166.2 2066.62 2164.86 2068.58 2162.92 2070.78 2160.39L2074.87 2164.41C2070.56 2168.95 2067 2172.11 2064.18 2173.88 2061.35 2175.65 2058.62 2176.54 2055.99 2176.54 2052.74 2176.54 2050.16 2175.62 2048.24 2173.77 2046.33 2171.93 2044.82 2168.86 2043.72 2164.55L2038.98 2145.89C2038.5 2144.02 2038.02 2142.73 2037.55 2142.01 2037.07 2141.3 2036.52 2140.82 2035.9 2140.58 2035.27 2140.34 2034.17 2140.22 2032.59 2140.22L2027.64 2140.22 2020.18 2175.39 2007.76 2175.39 2026.21 2093.35C2026.83 2090.57 2027.27 2088.41 2027.53 2086.85 2027.8 2085.3 2027.93 2083.92 2027.93 2082.72 2027.93 2080.72 2027.32 2079.3 2026.1 2078.49 2024.88 2077.68 2022.69 2077.22 2019.53 2077.13L2020.39 2073.39Z" fill-rule="evenodd"/><text fill="#000000" fill-opacity="0" font-family="Arial,Arial_MSFontService,sans-serif" font-size="103.79" x="2007.76" y="2163.56">𝑘𝐻𝑧</text></g></svg>