<svg width="1302" height="826" xmlns="http://www.w3.org/2000/svg" xmlns:xlink="http://www.w3.org/1999/xlink" xml:space="preserve" overflow="hidden"><g transform="translate(-2553 -1568)"><path d="M2655.5 2190.5 3700.46 2190.5" stroke="#000000" stroke-width="4.58333" stroke-linejoin="round" stroke-miterlimit="10" fill="none" fill-rule="evenodd"/><path d="M0 0 0.000360892 593.513" stroke="#000000" stroke-width="4.58333" stroke-linejoin="round" stroke-miterlimit="10" fill="none" fill-rule="evenodd" transform="matrix(1 0 0 -1 2655.5 2198.01)"/><path d="M2765.5 2197.65 3288.74 1705.5" stroke="#FF0000" stroke-width="4.58333" stroke-linejoin="round" stroke-miterlimit="10" fill="none" fill-rule="evenodd"/><path d="M0 0 0.000360892 483.436" stroke="#FF0000" stroke-width="4.58333" stroke-linejoin="round" stroke-miterlimit="10" fill="none" fill-rule="evenodd" transform="matrix(1 0 0 -1 3288.5 2187.94)"/><text font-family="Barlow,Barlow_MSFontService,sans-serif" font-weight="400" font-size="83" transform="matrix(1 0 0 1 3691.16 2180)">t</text><path d="M3586.77 1730.44 3582.99 2173.72 3578.4 2173.68 3582.18 1730.4ZM3570.69 1734.88 3584.67 1707.5 3598.18 1735.12ZM3594.48 2169.23 3580.5 2196.61 3566.99 2169Z"/><text font-family="Barlow,Barlow_MSFontService,sans-serif" font-weight="400" font-size="55" transform="matrix(1 0 0 1 2593.7 2198)">f1</text><path d="M2788.42 2242.06 2957.29 2242.06 2957.29 2248.94 2788.42 2248.94ZM2793 2259.25 2765.5 2245.5 2793 2231.75Z"/><text font-family="Barlow,Barlow_MSFontService,sans-serif" font-weight="400" font-size="83" transform="matrix(1 0 0 1 2851.31 2328)">t</text><text font-family="Barlow,Barlow_MSFontService,sans-serif" font-weight="400" font-size="55" transform="matrix(1 0 0 1 2881.11 2349)">d</text><text font-family="Barlow,Barlow_MSFontService,sans-serif" font-weight="400" font-size="83" transform="matrix(1 0 0 1 3139.22 1915)">f</text><text font-family="Barlow,Barlow_MSFontService,sans-serif" font-weight="400" font-size="55" transform="matrix(1 0 0 1 3168.44 1935)">b</text><path d="M2957.5 2200.43 3480.74 1704.5" stroke="#00B050" stroke-width="4.58333" stroke-linejoin="round" stroke-miterlimit="10" fill="none" fill-rule="evenodd"/><path d="M0 0 0.000721785 481.234" stroke="#00B050" stroke-width="4.58333" stroke-linejoin="round" stroke-miterlimit="10" fill="none" fill-rule="evenodd" transform="matrix(1 0 0 -1 3480.5 2187.73)"/><path d="M3124.06 2017.65 3124.06 1876.25 3130.94 1876.25 3130.94 2017.65ZM3136.67 2013.06 3127.5 2031.4 3118.33 2013.06ZM3118.33 1880.83 3127.5 1862.5 3136.67 1880.83Z"/><text font-family="Barlow,Barlow_MSFontService,sans-serif" font-weight="400" font-size="55" transform="matrix(1 0 0 1 2586.53 1720)">f2</text><path d="M22.9167-3.43744 142.686-3.43714 142.686 3.43786 22.9167 3.43756ZM27.5 13.7501 0 0 27.5-13.7499Z" transform="matrix(-1 0 0 1 2961.19 2245.5)"/><text fill="#00B050" font-family="Barlow,Barlow_MSFontService,sans-serif" font-weight="400" font-size="92" transform="matrix(0.71934 -0.694658 0.694658 0.71934 3080.01 2176)">receive</text><text fill="#FF0000" font-family="Barlow,Barlow_MSFontService,sans-serif" font-weight="400" font-size="92" transform="matrix(0.724125 -0.689669 0.689669 0.724125 2900 2059)">transmit</text><path d="M0 0 0.000360892 558.842" stroke="#000000" stroke-width="3.4375" stroke-linejoin="round" stroke-miterlimit="10" stroke-dasharray="13.75 10.3125" fill="none" fill-rule="evenodd" transform="matrix(1 0 0 -1 2766.5 2187.34)"/><path d="M0 0 0.000360892 78.4436" stroke="#000000" stroke-width="3.4375" stroke-linejoin="round" stroke-miterlimit="10" stroke-dasharray="13.75 10.3125" fill="none" fill-rule="evenodd" transform="matrix(1 0 0 -1 3288.5 1706.94)"/><text font-family="Barlow,Barlow_MSFontService,sans-serif" font-weight="400" font-size="83" transform="matrix(1 0 0 1 2999.36 1677)">T</text><text font-family="Barlow,Barlow_MSFontService,sans-serif" font-weight="400" font-size="55" transform="matrix(1 0 0 1 3046.33 1697)">S</text><path d="M3.2342e-06-1.71875 168.872-1.71843 168.872 1.71907-3.2342e-06 1.71875ZM164.289-13.7497 191.789 0.000360892 164.289 13.7503Z" transform="matrix(-1 0 0 1 2957.29 1647.5)"/><path d="M3113.53 1642.78 3265.23 1645.84 3265.16 1649.27 3113.47 1646.22ZM3260.89 1633.71 3288.11 1648.02 3260.33 1661.21Z"/><path d="M0 0 1047.23 0.000360892" stroke="#000000" stroke-width="3.4375" stroke-linejoin="round" stroke-miterlimit="10" stroke-dasharray="13.75 10.3125" fill="none" fill-rule="evenodd" transform="matrix(-1 0 0 1 3699.73 1704.5)"/><text font-family="Barlow,Barlow_MSFontService,sans-serif" font-weight="400" font-size="83" transform="matrix(1 0 0 1 3613.9 1954)">B</text></g></svg>