<svg width="1589" height="1719" xmlns="http://www.w3.org/2000/svg" xmlns:xlink="http://www.w3.org/1999/xlink" xml:space="preserve" overflow="hidden"><g transform="translate(393 201)"><rect x="450.5" y="517.5" width="743" height="21.0003" stroke="#000000" stroke-width="4.58333" stroke-linejoin="round" stroke-miterlimit="10" fill="#555659"/><path d="M450.5 159.5C450.5-38.2178 616.826-198.5 822-198.5 1027.17-198.5 1193.5-38.2178 1193.5 159.5 1193.5 357.218 1027.17 517.5 822 517.5 616.826 517.5 450.5 357.218 450.5 159.5Z" stroke="#FF0000" stroke-width="4.58333" stroke-linejoin="round" stroke-miterlimit="10" fill="none" fill-rule="evenodd"/><path d="M835.5 539.318C834.925 537.342 834.634 515.587 832.909 508.482 832.334 506.11 831.455 504.117 831.182 501.367 830.571 495.217 830.625 488.709 830.319 482.391 829.462 464.748 829.699 469.139 828.591 453.927L825.137 439.694C824.561 437.323 823.738 435.283 823.409 432.578 823.121 430.206 822.766 427.888 822.546 425.463 821.413 413.016 821.415 406.183 820.818 392.255L819.955 373.279C819.379 368.535 819.237 363.208 818.227 359.047 817.015 354.052 815.934 350.951 815.636 344.815 815.178 335.378 815.061 325.839 814.773 316.351 814.485 313.188 814.44 309.779 813.909 306.863 812.578 299.546 809.959 294.096 809.591 285.515 809.119 274.493 809.015 263.377 808.727 252.307L807 238.075C804.95 221.18 806.206 233.448 805.273 200.124 804.985 195.379 804.789 190.586 804.409 185.891 804.212 183.451 803.674 181.251 803.546 178.776 803.096 170.131 803.054 161.357 802.682 152.684 802.478 147.907 802.066 143.213 801.818 138.451 801.49 132.141 801.336 125.763 800.955 119.476 800.76 116.26 800.272 113.21 800.091 109.988 799.695 102.911 799.551 95.7441 799.228 88.6399 797.521 51.1473 798.921 96.5241 797.5 34.0839 797.788 8.78271 797.852-16.5455 798.364-41.8198 798.587-52.8457 799.513-48.8951 800.091-58.423 800.52-65.4854 800.667-72.6554 800.955-79.7716 803.574-101.356 799.556-67.2694 802.682-98.7475 803.161-103.572 804.409-112.979 804.409-112.979L807.864-127.211C808.439-129.583 809.263-131.622 809.591-134.327L811.318-148.559C811.606-150.931 811.961-153.25 812.182-155.675 813.267-167.589 812.67-162.07 813.909-172.278 815.636-175.441 817.122-179.963 819.091-181.766 819.955-182.557 821.038-182.371 821.682-184.139 822.326-185.907 822.258-188.883 822.546-191.254 823.409-192.045 824.322-192.508 825.137-193.627 826.065-194.902 826.693-198.133 827.728-198.371 830.325-198.965 832.944-197.403 835.5-195.999 837.286-195.018 839.167-194.029 840.682-191.254L845.864-181.766C847.275-180.474 850.165-178.523 851.046-174.651 852.011-170.411 852.773-160.419 852.773-160.419 853.349-158.047 853.637-154.884 854.5-153.302 859.613-143.942 856.985-158.919 858.818-143.815 859.394-141.443 860.124-139.304 860.546-136.699 861.285-132.129 862.273-122.467 862.273-122.467 863.137-120.886 864.349-120.199 864.864-117.723 865.592-114.223 865.341-109.753 865.728-105.863 866.207-101.039 866.879-96.3748 867.455-91.6313 870.076-70.0356 866.055-104.146 869.182-72.6554 869.661-67.8312 870.333-63.1674 870.909-58.423 871.197-56.0512 871.673-53.793 871.773-51.3077 873.019-20.496 872.42-37.0942 873.5-1.49518L872.637 126.592C872.459 141.24 871.34 139.093 870.909 152.684 870.459 166.884 870.334 181.148 870.046 195.379 869.47 200.124 868.432 204.621 868.318 209.612L866.591 280.771C866.016 283.143 865.285 285.282 864.864 287.887 864.124 292.457 863.137 302.119 863.137 302.119 862.561 304.491 861.874 306.686 861.409 309.235 860.346 315.077 860.014 325.111 859.682 330.583 859.394 332.955 859.177 335.4 858.818 337.699 857.526 345.982 856.903 346.265 856.227 354.303 855.567 362.16 855.429 370.374 854.5 378.023L851.909 399.371 851.046 406.487C849.356 413.445 849.17 412.861 848.455 420.718 847.962 426.139 847.715 434.267 846.727 439.694 846.263 442.244 845.422 444.206 845 446.811 843.263 457.544 843.048 463.863 842.409 475.274 842.1 480.8 841.834 486.344 841.546 491.879 836.599 512.255 842.527 486.483 838.955 506.11 837.807 512.415 836.605 513.058 836.364 520.342 836.155 526.642 836.076 541.295 835.5 539.318Z" stroke="#0070C0" stroke-width="4.58333" stroke-linejoin="round" stroke-miterlimit="10" fill="none" fill-rule="evenodd"/><path d="M839.516 525.517C838.797 525.036 834.745 517.723 832.38 515.878 831.591 515.262 830.676 514.876 830.013 514.03 828.53 512.139 827.407 509.904 826.088 507.855 822.405 502.131 823.337 503.548 819.926 498.736L815.19 495.04C814.401 494.424 813.512 494.003 812.822 493.191 812.216 492.48 811.578 491.808 811.006 491.056 808.07 487.194 806.857 484.866 804 480.321L800.075 474.146C798.864 472.722 797.827 470.955 796.443 469.874 794.78 468.577 793.539 467.881 792.258 465.89 790.288 462.829 788.518 459.619 786.647 456.483 785.901 455.502 785.266 454.356 784.409 453.54 782.258 451.492 779.617 450.508 777.857 447.708 775.596 444.111 773.554 440.359 771.403 436.685L767.77 432.414C763.458 427.343 766.44 431.102 759.921 420.063 758.894 418.543 757.917 416.976 756.84 415.503 756.28 414.738 755.546 414.168 755.023 413.368 753.199 410.573 751.613 407.599 749.834 404.769 748.854 403.21 747.757 401.748 746.752 400.209 745.421 398.169 744.189 396.048 742.828 394.034 742.132 393.004 741.278 392.128 740.59 391.09 739.079 388.812 737.713 386.419 736.244 384.107 728.49 371.906 737.45 386.895 725.443 366.101 721.13 357.388 716.669 348.74 712.503 339.961 710.685 336.131 711.979 337.168 710.655 333.731 709.673 331.182 708.492 328.691 707.411 326.172 705.247 317.947 708.74 330.896 705.141 319.133 704.59 317.33 703.714 313.71 703.714 313.71L703.391 307.711C703.337 306.712 703.5 305.743 703.229 304.712L701.802 299.289C701.564 298.385 701.379 297.477 701.089 296.578 699.664 292.158 700.264 294.237 699.24 290.347 699.781 288.694 699.926 286.659 700.863 285.388 701.274 284.831 701.999 284.534 702.095 283.717 702.192 282.9 701.62 281.909 701.382 281.006 701.793 280.448 702.294 279.986 702.615 279.334 702.981 278.59 702.808 277.28 703.426 276.855 704.98 275.787 706.929 275.446 708.811 275.072 710.126 274.811 711.503 274.521 712.964 274.961L717.959 276.466C719.09 276.436 721.282 276.137 722.533 277.162 723.903 278.285 726.166 281.434 726.166 281.434 726.955 282.05 727.701 283.031 728.534 283.282 733.462 284.767 729.122 280.541 732.978 285.075 733.767 285.691 734.613 286.176 735.345 286.923 736.63 288.233 738.978 291.194 738.978 291.194 739.811 291.445 740.707 291.275 741.476 291.947 742.563 292.896 743.198 294.502 744.136 295.698 745.299 297.182 746.558 298.546 747.768 299.97 753.281 306.452 744.65 296.174 752.244 305.857 753.408 307.341 754.666 308.705 755.877 310.129 756.483 310.841 757.188 311.452 757.694 312.265 763.966 322.344 760.633 316.89 767.651 328.655L789.867 372.568C792.357 377.617 791.261 377.259 793.402 382.031 795.639 387.018 798.094 391.917 800.44 396.861 800.916 398.668 801.052 400.546 801.867 402.284L813.412 427.096C813.466 428.095 813.381 429.067 813.574 430.095 813.915 431.898 815.001 435.518 815.001 435.518 815.055 436.518 815.006 437.494 815.163 438.517 815.522 440.862 817.094 444.39 817.855 446.364 818.092 447.268 818.389 448.173 818.568 449.075 819.215 452.328 818.868 452.632 819.865 455.594 820.84 458.49 822.212 461.334 822.979 464.249L825.119 472.383 825.832 475.095C825.99 478.027 825.767 477.891 826.707 480.805 827.356 482.816 828.643 485.667 828.977 487.844 829.134 488.867 828.945 489.816 829.139 490.843 829.938 495.078 830.924 497.302 832.544 501.402 833.329 503.387 834.144 505.364 834.944 507.345 835.407 515.933 834.612 505.18 835.819 513.055 836.207 515.585 835.554 516.205 836.695 518.766 837.681 520.981 840.235 525.998 839.516 525.517Z" stroke="#0070C0" stroke-width="4.58333" stroke-linejoin="round" stroke-miterlimit="10" fill="none" fill-rule="evenodd"/><path d="M0.0696503 27.3717C0.828915 26.9571 9.18695 26.7476 11.9167 25.5054 12.8279 25.0908 13.5937 24.4581 14.6503 24.2613 17.013 23.8214 19.5132 23.8603 21.9406 23.6393 28.7185 23.0223 27.0316 23.1929 32.8761 22.395L38.344 19.9067C39.2552 19.4921 40.039 18.8991 41.078 18.6627 41.9892 18.4552 42.8797 18.1995 43.8116 18.0404 48.5933 17.2243 51.2186 17.2261 56.5698 16.7963L63.8602 16.1743C65.6825 15.7595 67.7292 15.6573 69.3277 14.93 71.2469 14.0567 72.4382 13.2782 74.7956 13.0637 78.4213 12.7338 82.086 12.6491 85.7311 12.4417 86.9462 12.2343 88.2561 12.2021 89.3763 11.8197 92.1872 10.8604 94.2813 8.97395 97.5778 8.70931 101.812 8.36917 106.083 8.29446 110.336 8.08703L115.804 6.84299C122.294 5.36619 117.582 6.27113 130.384 5.59869 132.207 5.39127 134.049 5.25019 135.852 4.97667 136.79 4.83456 137.635 4.4474 138.586 4.35465 141.907 4.03071 145.278 4.00015 148.61 3.73264 150.445 3.58529 152.249 3.28878 154.078 3.11036 156.502 2.87393 158.953 2.76316 161.368 2.48834 162.604 2.34779 163.775 1.99642 165.013 1.86632 167.732 1.58078 170.486 1.47733 173.215 1.2443 187.619 0.0151521 170.186 1.02329 194.175 0 203.895 0.207427 213.626 0.253667 223.336 0.622019 227.572 0.782683 226.054 1.4499 229.715 1.86632 232.428 2.17511 235.183 2.28091 237.917 2.48834 246.209 4.37529 233.113 1.48098 245.207 3.73264 247.06 4.07774 250.675 4.97667 250.675 4.97667L256.143 7.46501C257.054 7.8796 257.837 8.47288 258.876 8.70931L264.344 9.95335C265.255 10.1608 266.146 10.4163 267.078 10.5754 271.655 11.3567 269.535 10.9273 273.457 11.8197 274.672 13.0637 276.409 14.1335 277.102 15.552 277.406 16.1741 277.334 16.9547 278.013 17.4184 278.693 17.8821 279.836 17.8329 280.747 18.0404 281.051 18.6624 281.229 19.3202 281.659 19.9067 282.148 20.5755 283.39 21.0279 283.481 21.773 283.709 23.6443 283.109 25.5305 282.57 27.3717 282.193 28.6578 281.813 30.0131 280.747 31.1043L277.102 34.8367C276.606 35.8535 275.856 37.9348 274.368 38.5693 272.739 39.2645 268.9 39.8134 268.9 39.8134 267.989 40.2282 266.774 40.4357 266.166 41.0577 262.57 44.7402 268.324 42.8477 262.521 44.168 261.61 44.5826 260.788 45.1085 259.788 45.4121 258.032 45.9448 254.32 46.6564 254.32 46.6564 253.712 47.2784 253.448 48.1517 252.497 48.5227 251.153 49.0473 249.435 48.8665 247.941 49.1447 246.087 49.4898 244.295 49.9742 242.473 50.3888 234.176 52.2768 247.281 49.3809 235.183 51.633 233.329 51.9782 231.538 52.4622 229.715 52.8771 228.804 53.0845 227.936 53.427 226.981 53.4994 215.144 54.397 221.521 53.9654 207.844 54.7434L158.634 54.1214C153.007 53.9934 153.832 53.1872 148.61 52.8771 143.154 52.5532 137.675 52.4625 132.207 52.2551 130.384 51.8405 128.656 51.0928 126.739 51.011L99.4006 49.7667C98.4894 49.3521 97.6674 48.8263 96.6666 48.5227 94.9108 47.99 91.1987 47.2784 91.1987 47.2784 90.2875 46.8638 89.4444 46.3687 88.4651 46.0344 86.2206 45.2681 82.3657 45.0294 80.2632 44.7901 79.352 44.5826 78.4125 44.4264 77.5296 44.168 74.3471 43.237 74.2384 42.7882 71.1505 42.3017 68.1318 41.8263 64.9761 41.7265 62.0374 41.0577L53.8359 39.1914 51.1019 38.5693C48.4288 37.3525 48.653 37.2182 45.6344 36.703 43.5517 36.3477 40.429 36.1704 38.344 35.4587 37.3643 35.1243 36.6108 34.5183 35.6101 34.2147 31.4865 32.9636 29.0587 32.8087 24.6746 32.3484 22.5518 32.1255 20.4217 31.9338 18.2955 31.7264 10.4671 28.163 20.3685 32.4335 12.8279 29.86 10.4055 29.0332 10.1586 28.1674 7.35997 27.9937 4.93982 27.8435-0.689615 27.7863 0.0696503 27.3717Z" stroke="#0070C0" stroke-width="4.58333" stroke-linejoin="round" stroke-miterlimit="10" fill="none" fill-rule="evenodd" transform="matrix(0.462672 -0.88653 -0.88653 -0.462672 854.968 538.243)"/><rect x="450.5" y="1472.5" width="742" height="21" stroke="#000000" stroke-width="4.58333" stroke-linejoin="round" stroke-miterlimit="10" fill="#555659"/><path d="M450.5 1115C450.5 917.558 616.602 757.5 821.5 757.5 1026.4 757.5 1192.5 917.558 1192.5 1115 1192.5 1312.44 1026.4 1472.5 821.5 1472.5 616.602 1472.5 450.5 1312.44 450.5 1115Z" stroke="#FF0000" stroke-width="4.58333" stroke-linejoin="round" stroke-miterlimit="10" fill="none" fill-rule="evenodd"/><path d="M847.156 1480.54C845.707 1479.86 834.08 1468.25 829.116 1465.58 827.46 1464.69 825.785 1464.21 824.146 1462.91 820.481 1459.99 817.104 1456.42 813.568 1453.2 803.694 1444.21 806.168 1446.43 797.391 1438.93L787.449 1433.59C785.792 1432.7 784.132 1432.16 782.478 1430.91 781.027 1429.83 779.556 1428.81 778.125 1427.65 770.781 1421.67 767.196 1417.96 759.458 1410.8L748.88 1401.09C745.978 1398.91 743.08 1396.12 740.174 1394.55 736.684 1392.68 734.283 1391.74 730.849 1388.61 725.568 1383.8 720.477 1378.7 715.291 1373.75 713.425 1372.23 711.603 1370.41 709.693 1369.19 704.899 1366.14 700.164 1364.99 695.398 1360.58 689.274 1354.92 683.365 1348.95 677.349 1343.14L668.643 1336.6C658.308 1328.84 665.646 1334.64 647.486 1317.18 644.79 1314.8 642.133 1312.33 639.398 1310.04 637.975 1308.86 636.436 1308.03 635.045 1306.78 630.185 1302.39 625.55 1297.65 620.731 1293.2 618.078 1290.75 615.319 1288.48 612.643 1286.07 609.096 1282.86 605.638 1279.51 602.064 1276.35 600.237 1274.74 598.287 1273.42 596.466 1271.8 592.468 1268.23 588.604 1264.43 584.643 1260.8 563.742 1241.61 588.562 1265.29 554.771 1232.36 541.696 1218.41 528.448 1204.61 515.547 1190.53 509.919 1184.38 512.656 1185.89 508.068 1180.31 504.668 1176.18 501.009 1172.18 497.48 1168.12 488.025 1154.58 503.042 1175.88 488.756 1156.62 486.566 1153.66 482.522 1147.69 482.522 1147.69L477.523 1137.57C476.69 1135.89 476.209 1134.21 475.024 1132.51L468.789 1123.59C467.75 1122.1 466.787 1120.59 465.672 1119.12 460.195 1111.9 462.665 1115.31 458.193 1108.91 457.769 1106 456.458 1102.51 456.92 1100.17 457.123 1099.15 457.996 1098.5 457.529 1097.09 457.061 1095.69 455.451 1094.12 454.412 1092.63 454.615 1091.6 455.025 1090.72 455.02 1089.55 455.015 1088.22 453.769 1086.03 454.384 1085.18 455.931 1083.06 458.624 1082.1 461.191 1081.1 462.983 1080.4 464.849 1079.63 467.389 1080.09L476.077 1081.66C477.765 1081.39 480.856 1080.45 483.519 1081.95 486.435 1083.58 492.225 1088.48 492.225 1088.48 493.882 1089.37 495.749 1090.89 497.197 1091.16 505.768 1092.71 496.027 1086.39 505.267 1093.32 506.923 1094.21 508.568 1094.87 510.237 1095.99 513.165 1097.97 518.944 1102.53 518.944 1102.53 520.391 1102.79 521.62 1102.33 523.287 1103.32 525.646 1104.72 527.813 1107.32 530.131 1109.16 533.006 1111.45 535.935 1113.52 538.837 1115.7 552.048 1125.62 531.266 1109.87 550.033 1124.81 552.908 1127.1 555.837 1129.17 558.739 1131.35 560.19 1132.44 561.716 1133.34 563.092 1134.62 580.157 1150.5 571.016 1141.89 590.474 1160.48L657.089 1230.66C664.65 1238.74 662.723 1238.35 669.549 1246.03 676.681 1254.05 684.077 1261.89 691.341 1269.82 693.42 1272.79 695.038 1275.96 697.576 1278.74L733.691 1318.59C734.525 1320.28 735.125 1321.95 736.191 1323.65 738.061 1326.65 742.425 1332.58 742.425 1332.58 743.259 1334.27 743.919 1335.93 744.924 1337.64 747.23 1341.55 752.259 1347.23 754.894 1350.43 755.933 1351.92 757.062 1353.4 758.011 1354.89 761.434 1360.29 761.137 1360.87 764.873 1365.7 768.525 1370.43 772.737 1374.99 776.088 1379.78L785.439 1393.17 788.557 1397.63C791 1402.58 790.56 1402.39 794.173 1407.16 796.665 1410.44 800.755 1415.03 802.897 1418.66 803.903 1420.37 804.331 1422.01 805.397 1423.72 809.788 1430.75 812.951 1434.33 818.483 1440.97 821.162 1444.19 823.882 1447.38 826.581 1450.59 833.737 1465.08 824.451 1446.98 832.197 1460.11 834.685 1464.33 834.163 1465.51 837.814 1469.63 840.971 1473.2 848.605 1481.21 847.156 1480.54Z" stroke="#0070C0" stroke-width="4.58333" stroke-linejoin="round" stroke-miterlimit="10" fill="none" fill-rule="evenodd"/><path d="M844.921 1487.7C844.426 1487.78 839.777 1486.36 838.044 1486.55 837.465 1486.61 836.926 1486.82 836.307 1486.73 834.924 1486.54 833.552 1486.06 832.172 1485.73 828.321 1484.83 829.282 1485.04 825.912 1484.41L822.44 1484.78C821.861 1484.84 821.32 1485.02 820.703 1484.96 820.163 1484.91 819.625 1484.88 819.081 1484.8 816.294 1484.37 814.846 1483.89 811.816 1483.14L807.681 1482.14C806.6 1482.04 805.452 1481.72 804.437 1481.83 803.218 1481.95 802.418 1482.16 801.078 1481.85 799.018 1481.37 796.981 1480.74 794.932 1480.18 794.224 1480.07 793.496 1479.85 792.808 1479.86 791.081 1479.87 789.58 1480.52 787.713 1480.06 785.315 1479.47 782.946 1478.73 780.562 1478.06L777.318 1477.74C773.467 1477.36 776.232 1477.73 769.047 1475.75 768.004 1475.53 766.962 1475.27 765.917 1475.09 765.374 1474.99 764.837 1475.05 764.296 1474.93 762.404 1474.5 760.539 1473.89 758.652 1473.43 757.613 1473.17 756.564 1473 755.522 1472.77 754.142 1472.45 752.77 1472.06 751.387 1471.77 750.68 1471.62 749.969 1471.6 749.262 1471.44 747.71 1471.1 746.173 1470.65 744.624 1470.28 736.454 1468.31 746.255 1470.96 732.835 1467.11 727.512 1465.21 722.153 1463.4 716.865 1461.41 714.558 1460.55 715.518 1460.46 713.575 1459.56 712.135 1458.89 710.635 1458.32 709.166 1457.71 704.938 1455.14 711.63 1459.14 705.373 1455.68 704.414 1455.15 702.585 1453.99 702.585 1453.99L700.026 1451.62C699.6 1451.22 699.277 1450.75 698.747 1450.43L695.959 1448.74C695.495 1448.46 695.05 1448.15 694.565 1447.89 692.184 1446.62 693.275 1447.25 691.276 1446.03 690.834 1445.13 690.072 1444.22 689.95 1443.31 689.897 1442.91 690.079 1442.49 689.79 1442.11 689.5 1441.73 688.861 1441.55 688.396 1441.27 688.343 1440.87 688.365 1440.47 688.236 1440.07 688.089 1439.61 687.487 1439.14 687.573 1438.71 687.791 1437.64 688.468 1436.71 689.104 1435.79 689.547 1435.15 690.006 1434.48 690.794 1434.07L693.49 1432.68C693.95 1432.21 694.745 1431.2 695.682 1431.13 696.708 1431.04 698.927 1431.45 698.927 1431.45 699.505 1431.39 700.214 1431.5 700.663 1431.26 703.322 1429.9 699.801 1429.88 703.244 1430.22 703.823 1430.16 704.373 1430.02 704.98 1430.04 706.047 1430.07 708.225 1430.36 708.225 1430.36 708.674 1430.13 708.98 1429.69 709.572 1429.66 710.41 1429.62 711.325 1430.04 712.2 1430.16 713.286 1430.31 714.363 1430.37 715.444 1430.48 720.367 1430.96 712.607 1430.15 719.693 1431.13 720.779 1431.28 721.856 1431.34 722.938 1431.45 723.478 1431.5 724.02 1431.47 724.56 1431.61 731.253 1433.29 727.657 1432.36 735.343 1434.44L762.371 1443.82C765.452 1444.93 764.849 1445.22 767.672 1446.35 770.622 1447.53 773.628 1448.59 776.605 1449.71 777.535 1450.27 778.35 1451 779.393 1451.4L794.243 1457.11C794.67 1457.5 795.027 1457.94 795.523 1458.29 796.394 1458.91 798.311 1459.98 798.311 1459.98 798.737 1460.38 799.111 1460.81 799.59 1461.17 800.687 1462.01 802.77 1462.85 803.886 1463.36 804.35 1463.65 804.84 1463.9 805.279 1464.21 806.864 1465.31 806.841 1465.57 808.455 1466.41 810.033 1467.23 811.755 1467.86 813.253 1468.77L817.434 1471.3 818.828 1472.15C820.079 1473.31 819.931 1473.34 821.501 1474.18 822.585 1474.76 824.275 1475.43 825.294 1476.21 825.773 1476.57 826.077 1477.04 826.574 1477.4 828.618 1478.84 829.929 1479.37 832.263 1480.43 833.393 1480.95 834.532 1481.44 835.667 1481.95 839.331 1485.35 834.653 1481.18 838.34 1483.98 839.525 1484.88 839.502 1485.4 841.014 1486.01 842.321 1486.54 845.415 1487.61 844.921 1487.7Z" stroke="#0070C0" stroke-width="4.58333" stroke-linejoin="round" stroke-miterlimit="10" fill="none" fill-rule="evenodd"/><path d="M0.0890829 28.9212C1.06018 28.4831 11.7501 28.2618 15.2415 26.9492 16.4069 26.5112 17.3863 25.8426 18.7377 25.6348 21.7597 25.1699 24.9574 25.2111 28.0621 24.9775 36.731 24.3255 34.5734 24.5058 42.0486 23.6628L49.0421 21.0336C50.2075 20.5955 51.2099 19.9689 52.5388 19.7191 53.7042 19.5 54.8432 19.2297 56.0351 19.0616 62.151 18.1993 65.5087 18.2012 72.3529 17.7472L81.6772 17.0899C84.0081 16.6516 86.6257 16.5437 88.6702 15.7752 91.1249 14.8524 92.6486 14.0298 95.6637 13.8032 100.301 13.4546 104.988 13.3652 109.65 13.146 111.204 12.9268 112.88 12.8929 114.312 12.4888 117.908 11.4752 120.586 9.48196 124.802 9.20234 130.218 8.84294 135.681 8.764 141.12 8.54483L148.113 7.23037C156.415 5.66996 150.387 6.62613 166.762 5.91563 169.093 5.69646 171.448 5.5474 173.755 5.2584 174.954 5.10824 176.035 4.69916 177.251 4.60117 181.499 4.25889 185.811 4.22659 190.072 3.94394 192.419 3.78826 194.726 3.47496 197.066 3.28643 200.167 3.03662 203.301 2.91958 206.39 2.6292 207.97 2.48069 209.469 2.10943 211.052 1.97197 214.53 1.67027 218.051 1.56096 221.542 1.31474 239.965 0.0160098 217.668 1.08122 248.35 0 260.782 0.219169 273.228 0.268027 285.647 0.657231 291.065 0.82699 289.124 1.53197 293.806 1.97197 297.276 2.29824 300.799 2.41003 304.296 2.6292 314.902 4.62297 298.152 1.56482 313.62 3.94394 315.991 4.30857 320.613 5.2584 320.613 5.2584L327.607 7.8876C328.772 8.32566 329.774 8.95253 331.103 9.20234L338.096 10.5168C339.262 10.736 340.401 11.0059 341.593 11.174 347.447 11.9996 344.735 11.5458 349.751 12.4888 351.306 13.8032 353.528 14.9336 354.414 16.4324 354.802 17.0897 354.711 17.9144 355.58 18.4044 356.448 18.8944 357.91 18.8425 359.076 19.0616 359.464 19.7189 359.692 20.4139 360.242 21.0336 360.868 21.7402 362.456 22.2183 362.573 23.0056 362.865 24.9828 362.097 26.9757 361.407 28.9212 360.925 30.2801 360.439 31.7121 359.076 32.8651L354.414 36.8088C353.779 37.8831 352.82 40.0823 350.917 40.7527 348.834 41.4873 343.924 42.0672 343.924 42.0672 342.759 42.5055 341.204 42.7247 340.427 43.3819 335.828 47.2729 343.187 45.2733 335.765 46.6684 334.6 47.1064 333.549 47.6621 332.269 47.9828 330.023 48.5456 325.275 49.2976 325.275 49.2976 324.498 49.9548 324.161 50.8776 322.944 51.2695 321.224 51.8238 319.028 51.6328 317.116 51.9268 314.746 52.2914 312.454 52.8032 310.123 53.2412 299.512 55.2361 316.273 52.1763 300.799 54.556 298.429 54.9206 296.137 55.4321 293.806 55.8704 292.64 56.0896 291.53 56.4515 290.309 56.5279 275.169 57.4764 283.325 57.0204 265.833 57.8424L202.894 57.1852C195.696 57.0499 196.751 56.1981 190.072 55.8704 183.095 55.5281 176.086 55.4324 169.093 55.2132 166.762 54.7751 164.552 53.9851 162.099 53.8987L127.133 52.584C125.968 52.1459 124.917 51.5903 123.637 51.2695 121.391 50.7067 116.643 49.9548 116.643 49.9548 115.478 49.5167 114.4 48.9937 113.147 48.6403 110.276 47.8307 105.346 47.5784 102.657 47.3256 101.491 47.1064 100.29 46.9414 99.1605 46.6684 95.0901 45.6846 94.9511 45.2104 91.0016 44.6964 87.1406 44.194 83.1045 44.0886 79.3459 43.3819L68.8561 41.41 65.3594 40.7527C61.9405 39.467 62.2273 39.3251 58.3664 38.7808 55.7027 38.4054 51.7087 38.2179 49.0421 37.466 47.789 37.1127 46.8253 36.4723 45.5453 36.1516 40.2713 34.8296 37.1661 34.666 31.5588 34.1796 28.8438 33.9441 26.1194 33.7415 23.3999 33.5224 13.3874 29.7573 26.0513 34.2696 16.4069 31.5504 13.3086 30.6768 12.9929 29.762 9.41341 29.5784 6.31803 29.4197-0.882018 29.3593 0.0890829 28.9212Z" stroke="#0070C0" stroke-width="4.58333" stroke-linejoin="round" stroke-miterlimit="10" fill="none" fill-rule="evenodd" transform="matrix(-0.283302 -0.959031 -0.959031 0.283302 864.262 1465.66)"/><text fill="#FF0000" font-family="Arial,Arial_MSFontService,sans-serif" font-weight="700" font-size="64" transform="matrix(1 0 0 1 -315.607 1330)">element factor</text><path d="M2.14536-0.805703 345.239 912.758 340.948 914.369-2.14536 0.805703ZM354.354 904.438 351.15 935.016 328.61 914.106Z" fill="#FF0000" transform="matrix(1 0 0 -1 155.5 1307.52)"/><path d="M1.68257-1.55586 318.676 341.254 315.311 344.366-1.68257 1.55586ZM323.978 330.11 332.553 359.636 303.787 348.78Z" fill="#FF0000" transform="matrix(1 0 0 -1 155.5 1307.14)"/><text fill="#9900CC" font-family="Arial,Arial_MSFontService,sans-serif" font-weight="700" font-size="64" transform="matrix(1 0 0 1 -231.267 1464)">array factor</text><path d="M2.10479-0.906416 638.666 1477.25 634.456 1479.07-2.10479 0.906416ZM647.377 1468.51 645.626 1499.21 622.12 1479.39Z" fill="#9900CC" transform="matrix(1 0 0 -1 154.5 1440.71)"/><path d="M1.4831-1.74704 318.514 267.387 315.548 270.881-1.4831 1.74704ZM322.436 255.686 334.501 283.966 304.638 276.651Z" fill="#9900CC" transform="matrix(1 0 0 -1 154.5 1441.47)"/></g></svg>