<svg width="1547" height="1937" xmlns="http://www.w3.org/2000/svg" xmlns:xlink="http://www.w3.org/1999/xlink" xml:space="preserve" overflow="hidden"><g transform="translate(-2808 -367)"><path d="M3601.4 790.844 3568.34 756.765 3584.4 757.666C3578.75 709.006 3554.51 670.861 3522.2 659.755 3567.57 649.655 3608.84 693.273 3616.53 759.467L3632.59 760.367Z" fill="#41B6E6" fill-rule="evenodd"/><path d="M3538.39 658.409C3490.73 655.738 3448.88 711.103 3444.9 782.07L3412.77 780.269C3416.75 709.302 3458.61 653.937 3506.26 656.608Z" fill="#3492B9" fill-rule="evenodd"/><path d="M3538.39 658.409C3490.73 655.738 3448.88 711.103 3444.9 782.07L3412.77 780.269C3416.75 709.302 3458.61 653.937 3506.26 656.608L3538.39 658.409C3577.73 660.615 3609.87 702.181 3616.53 759.467L3632.59 760.367 3601.4 790.844 3568.34 756.765 3584.4 757.666C3578.75 709.006 3554.51 670.861 3522.2 659.755" stroke="#000000" stroke-width="3.4375" stroke-linejoin="round" stroke-miterlimit="10" fill="none" fill-rule="evenodd"/><path d="M3264 430.457 3264.21 428.557 3264.86 426.657 3265.71 424.757 3266.79 422.857 3268.29 421.229 3270.21 419.329 3272.14 417.7 3274.5 415.8 3277.07 414.171 3280.07 412.543 3283.07 411.186 3286.5 409.557 3290.14 408.2 3293.79 406.571 3297.86 405.214 3302.14 404.129 3311.14 401.686 3321 399.514 3331.5 397.614 3342.64 395.986 3354.43 394.628 3366.64 393.814 3379.07 393.271 3392.14 393 3392.57 393 3393 393 3392.14 431 3264 430.457Z" fill="#FFFF99" fill-rule="evenodd"/><path d="M3392 616 3378.92 615.733 3366.27 615.466 3353.84 614.664 3342.26 613.595 3330.89 612.259 3320.39 610.922 3310.53 609.052 3301.52 607.181 3297.23 606.112 3293.16 605.043 3289.51 603.707 3285.87 602.638 3282.44 601.302 3279.44 599.966 3276.65 598.629 3274.08 597.293 3271.72 595.957 3269.79 594.621 3268.07 593.285 3266.57 591.681 3265.5 590.078 3264.64 588.741 3264.21 587.138 3264 585.535 3264 585.267 3264 585 3392 585.535 3392 616Z" fill="#FFFF99" fill-rule="evenodd"/><rect x="3263" y="429" width="130" height="157" fill="#FFFF99"/><rect x="3387" y="393" width="78" height="221" fill="#FFFF99"/><path d="M3263.5 430.5 3263.93 428.623 3264.57 426.746 3265.63 424.869 3266.91 422.993 3268.62 421.116 3270.33 419.507 3272.46 417.63 3275.02 416.022 3277.58 414.413 3280.57 412.804 3283.55 411.196 3286.97 409.855 3290.59 408.246 3294.22 406.906 3302.54 404.225 3311.5 401.812 3321.1 399.667 3331.55 398.058 3342.43 396.449 3353.74 395.109 3365.69 394.304 3378.06 393.768 3390.65 393.5 3391.07 393.5 3391.5 393.5" stroke="#000000" stroke-width="4.58333" stroke-linejoin="round" stroke-miterlimit="10" fill="none" fill-rule="evenodd"/><path d="M3391.5 616.5 3378.54 616.228 3366.01 615.956 3353.7 615.14 3342.02 614.052 3330.97 612.965 3320.57 611.333 3310.8 609.702 3301.67 607.526 3297.42 606.438 3293.6 605.351 3289.77 604.263 3286.16 603.175 3282.98 601.816 3279.79 600.456 3277.03 599.368 3274.48 598.009 3272.15 596.649 3270.23 595.017 3268.54 593.658 3267.05 592.298 3265.99 590.667 3265.14 589.307 3264.71 587.675 3264.5 586.044 3264.5 585.772 3264.5 585.5" stroke="#000000" stroke-width="4.58333" stroke-linejoin="round" stroke-miterlimit="10" fill="none" fill-rule="evenodd"/><path d="M3263.5 431.5 3264.5 585.5" stroke="#000000" stroke-width="4.58333" stroke-linejoin="round" stroke-miterlimit="10" fill="none" fill-rule="evenodd"/><path d="M3392.5 392.5 3464.5 393.5" stroke="#000000" stroke-width="4.58333" stroke-linejoin="round" stroke-miterlimit="10" fill="none" fill-rule="evenodd"/><path d="M3387.5 615.5 3463.5 616.5" stroke="#000000" stroke-width="4.58333" stroke-linejoin="round" stroke-miterlimit="10" fill="none" fill-rule="evenodd"/><path d="M3441 599 3441 611 3452 611 3441 599Z" fill="#C7E9F3" fill-rule="evenodd"/><path d="M3369 611 3369.43 610 3370.49 608.75 3372.41 607.75 3374.76 606.75 3377.96 605.75 3381.58 605 3385.85 604 3390.75 603.25 3395.87 602.5 3401.63 602 3407.6 601.25 3414.21 601 3421.03 600.5 3428.07 600.25 3435.32 600 3443 600 3443 611 3369 611Z" fill="#C7E9F3" fill-rule="evenodd"/><path d="M3369.5 611.5 3369.93 610.5 3370.99 609.25 3372.91 608.25 3375.26 607.25 3378.46 606.25 3382.08 605.5 3386.35 604.5 3391.25 603.75 3396.37 603 3402.13 602.5 3408.1 601.75 3414.71 601.5 3421.53 601 3428.57 600.75 3435.82 600.5 3443.5 600.5" stroke="#000000" stroke-width="4.58333" stroke-linejoin="round" stroke-miterlimit="10" fill="none" fill-rule="evenodd"/><path d="M0 0 85.0003 0.999672" stroke="#000000" stroke-width="4.58333" stroke-linejoin="round" stroke-miterlimit="10" fill="none" fill-rule="evenodd" transform="matrix(-1 0 0 1 3453.5 611.5)"/><path d="M3454.5 611.5 3443.5 599.5" stroke="#000000" stroke-width="4.58333" stroke-linejoin="round" stroke-miterlimit="10" fill="none" fill-rule="evenodd"/><path d="M3439 410 3439 398 3451 398 3439 410Z" fill="#C7E9F3" fill-rule="evenodd"/><path d="M3367 396 3367.43 397.413 3368.49 398.543 3370.41 399.957 3372.76 401.087 3375.96 402.217 3379.58 403.348 3383.85 404.196 3388.75 405.044 3393.87 405.891 3399.63 406.739 3405.6 407.304 3412.21 407.87 3419.03 408.435 3426.07 408.717 3433.32 409 3441 409 3441 396 3367 396Z" fill="#C7E9F3" fill-rule="evenodd"/><path d="M3367.5 396.5 3367.93 397.913 3368.99 399.043 3370.91 400.456 3373.26 401.587 3376.46 402.717 3380.08 403.848 3384.35 404.696 3389.25 405.543 3394.37 406.391 3400.13 407.239 3406.1 407.804 3412.71 408.369 3419.53 408.935 3426.57 409.217 3433.82 409.5 3441.5 409.5" stroke="#000000" stroke-width="4.58333" stroke-linejoin="round" stroke-miterlimit="10" fill="none" fill-rule="evenodd"/><path d="M0 0 84.0002 0.999672" stroke="#000000" stroke-width="4.58333" stroke-linejoin="round" stroke-miterlimit="10" fill="none" fill-rule="evenodd" transform="matrix(-1 0 0 1 3451.5 397.5)"/><path d="M0 0 9.99997 13.0001" stroke="#000000" stroke-width="4.58333" stroke-linejoin="round" stroke-miterlimit="10" fill="none" fill-rule="evenodd" transform="matrix(-1 0 0 1 3452.5 396.5)"/><path d="M3702 443.182 3701.57 440.727 3700.72 438 3699.44 435.546 3697.74 433.091 3695.61 430.636 3693.05 428.182 3690.07 426 3686.66 423.546 3682.83 421.364 3678.78 419.182 3674.31 417 3669.41 415.091 3664.09 413.182 3658.55 411.273 3652.8 409.364 3646.62 407.727 3640.23 406.091 3633.42 404.454 3626.6 402.818 3619.15 401.454 3611.69 400.364 3604.03 399 3596.15 397.909 3587.84 396.818 3570.8 395.182 3553.12 394.091 3535.02 393.273 3516.06 393 3515.64 393 3515 393 3516.06 444 3702 443.182Z" fill="#DDDDDD" fill-rule="evenodd"/><path d="M3516 616 3534.96 615.733 3553.5 614.932 3571.4 613.864 3588.44 611.995 3596.54 611.194 3604.63 609.859 3612.52 608.791 3619.97 607.456 3627.22 606.12 3634.25 604.518 3641.06 602.916 3647.46 601.314 3653.64 599.712 3659.6 597.843 3665.14 595.974 3670.25 593.838 3675.15 591.969 3679.63 589.833 3683.68 587.696 3687.3 585.293 3690.71 583.157 3693.69 580.754 3696.25 578.351 3698.16 575.948 3699.87 573.545 3701.15 570.874 3701.79 568.471 3702 565.801 3702 565 3516 565.801 3516 616Z" fill="#FFFF99" fill-rule="evenodd"/><rect x="3538" y="437" width="164" height="129" fill="#FFFF99"/><rect x="3452" y="392" width="64" height="224" fill="#FFFF99"/><path d="M3702 437.109 3700.94 434.663 3699.45 432.489 3697.53 430.044 3695.4 427.87 3692.63 425.696 3689.65 423.522 3686.24 421.348 3682.62 419.174 3678.58 417.272 3674.11 415.37 3669.42 413.467 3664.31 411.565 3658.99 409.935 3653.46 408.033 3647.71 406.402 3641.53 405.043 3635.15 403.413 3628.33 402.054 3621.52 400.696 3614.49 399.609 3607.04 398.522 3599.59 397.435 3584.05 395.533 3567.65 393.902 3550.62 392.815 3533.16 392.272 3515.28 392 3514 392 3515.28 442 3702 437.109Z" fill="#FFFF99" fill-rule="evenodd"/><path d="M3702.5 437.5 3701.44 435.06 3699.95 432.892 3698.03 430.452 3695.9 428.283 3693.13 426.115 3690.15 423.946 3686.74 421.777 3683.13 419.609 3679.08 417.711 3674.61 415.813 3669.92 413.916 3664.81 412.018 3659.49 410.392 3653.96 408.494 3648.21 406.868 3642.03 405.512 3635.65 403.886 3628.83 402.53 3622.02 401.175 3614.99 400.09 3607.54 399.006 3600.09 397.922 3584.55 396.024 3568.15 394.398 3551.12 393.313 3533.66 392.771 3515.78 392.5 3514.5 392.5" stroke="#000000" stroke-width="4.58333" stroke-linejoin="round" stroke-miterlimit="10" fill="none" fill-rule="evenodd"/><path d="M3518.5 616.5 3537.24 616.231 3555.56 615.425 3573.23 614.349 3590.06 612.736 3598.36 611.661 3606.24 610.586 3613.91 609.511 3621.36 608.167 3628.6 606.822 3635.63 605.21 3642.23 603.597 3648.62 601.984 3654.8 600.371 3660.55 598.489 3665.87 596.607 3670.98 594.726 3675.88 592.844 3680.35 590.693 3684.4 588.543 3688.02 586.392 3691.43 584.242 3694.19 581.823 3696.75 579.672 3698.67 577.253 3700.37 574.833 3701.65 572.414 3702.29 569.726 3702.5 567.306 3702.5 566.5" stroke="#000000" stroke-width="4.58333" stroke-linejoin="round" stroke-miterlimit="10" fill="none" fill-rule="evenodd"/><path d="M0 0 72.0002 1.00003" stroke="#000000" stroke-width="4.58333" stroke-linejoin="round" stroke-miterlimit="10" fill="none" fill-rule="evenodd" transform="matrix(-1 0 0 1 3517.5 392.5)"/><path d="M0 0 74.9999 0.999672" stroke="#000000" stroke-width="4.58333" stroke-linejoin="round" stroke-miterlimit="10" fill="none" fill-rule="evenodd" transform="matrix(-1 0 0 1 3521.5 615.5)"/><path d="M3468 599 3468 611 3456 611 3468 599Z" fill="#C7E9F3" fill-rule="evenodd"/><path d="M3540 611 3539.58 610 3538.52 608.75 3536.61 607.75 3534.27 606.75 3531.09 605.75 3527.28 605 3523.04 604 3518.37 603.25 3513.07 602.5 3507.35 602 3501.2 601.25 3494.84 601 3488.05 600.5 3480.84 600.25 3473.63 600 3466 600 3466 611 3540 611Z" fill="#C7E9F3" fill-rule="evenodd"/><path d="M3540.5 611.5 3540.08 610.5 3539.02 609.25 3537.11 608.25 3534.78 607.25 3531.59 606.25 3527.78 605.5 3523.54 604.5 3518.87 603.75 3513.57 603 3507.85 602.5 3501.7 601.75 3495.34 601.5 3488.55 601 3481.34 600.75 3474.13 600.5 3466.5 600.5" stroke="#000000" stroke-width="4.58333" stroke-linejoin="round" stroke-miterlimit="10" fill="none" fill-rule="evenodd"/><path d="M3455.5 611.5 3540.5 612.5" stroke="#000000" stroke-width="4.58333" stroke-linejoin="round" stroke-miterlimit="10" fill="none" fill-rule="evenodd"/><path d="M0 0 11 12" stroke="#000000" stroke-width="4.58333" stroke-linejoin="round" stroke-miterlimit="10" fill="none" fill-rule="evenodd" transform="matrix(1 0 0 -1 3455.5 611.5)"/><path d="M3469 409 3469 398 3457 398 3469 409Z" fill="#C7E9F3" fill-rule="evenodd"/><path d="M3542 396 3541.57 397.413 3540.51 398.543 3538.59 399.957 3536.24 401.087 3533.04 402.217 3529.42 403.348 3525.15 404.196 3520.46 405.044 3515.13 405.891 3509.37 406.739 3503.4 407.304 3496.79 407.87 3489.97 408.435 3482.93 408.717 3475.68 409 3468 409 3468 396 3542 396Z" fill="#C7E9F3" fill-rule="evenodd"/><path d="M3542.5 396.5 3542.07 397.913 3541.01 399.043 3539.09 400.456 3536.74 401.587 3533.54 402.717 3529.92 403.848 3525.65 404.696 3520.96 405.543 3515.63 406.391 3509.87 407.239 3503.9 407.804 3497.29 408.369 3490.47 408.935 3483.43 409.217 3476.18 409.5 3468.5 409.5" stroke="#000000" stroke-width="4.58333" stroke-linejoin="round" stroke-miterlimit="10" fill="none" fill-rule="evenodd"/><path d="M3456.5 397.5 3541.5 398.5" stroke="#000000" stroke-width="4.58333" stroke-linejoin="round" stroke-miterlimit="10" fill="none" fill-rule="evenodd"/><path d="M3456.5 396.5 3466.5 409.5" stroke="#000000" stroke-width="4.58333" stroke-linejoin="round" stroke-miterlimit="10" fill="none" fill-rule="evenodd"/><path d="M3667 581 3671.33 580.735 3675.23 579.939 3678.69 578.878 3681.94 577.286 3684.54 575.163 3686.27 573.041 3687.57 570.653 3688 569.326 3688 568 3667 568 3667 581Z" fill="#E0E1E1" fill-rule="evenodd"/><rect x="3667" y="551" width="21" height="16.9998" fill="#E0E1E1"/><path d="M3516.5 431.5 3516.5 577.5" stroke="#000000" stroke-width="4.58333" stroke-linejoin="round" stroke-miterlimit="10" fill="none" fill-rule="evenodd"/><path d="M3371.5 429.5 3372.5 579.5" stroke="#000000" stroke-width="4.58333" stroke-linejoin="round" stroke-miterlimit="10" fill="none" fill-rule="evenodd"/><path d="M3338 419 3371 430.244 3371 577.756 3338 589 3338 419Z" fill="#C7E9F3" fill-rule="evenodd"/><path d="M3293.5 504C3293.5 452.914 3304.92 411.5 3319 411.5 3333.08 411.5 3344.5 452.914 3344.5 504 3344.5 555.086 3333.08 596.5 3319 596.5 3304.92 596.5 3293.5 555.086 3293.5 504Z" stroke="#000000" stroke-width="4.58333" stroke-linejoin="round" stroke-miterlimit="10" fill="#C7E9F3" fill-rule="evenodd"/><path d="M3320 411 3352 423.1 3352 583.9 3320 596 3320 411Z" fill="#C7E9F3" fill-rule="evenodd"/><path d="M3703.5 437.5 3704.5 566.5" stroke="#000000" stroke-width="4.58333" stroke-linejoin="round" stroke-miterlimit="10" fill="none" fill-rule="evenodd"/><path d="M3565.5 504C3565.5 452.914 3576.92 411.5 3591 411.5 3605.08 411.5 3616.5 452.914 3616.5 504 3616.5 555.086 3605.08 596.5 3591 596.5 3576.92 596.5 3565.5 555.086 3565.5 504Z" stroke="#000000" stroke-width="4.58333" stroke-linejoin="round" stroke-miterlimit="10" fill="#C7E9F3" fill-rule="evenodd"/><path d="M3588 413 3555 422.113 3555 585.887 3588 595 3588 413Z" fill="#C7E9F3" fill-rule="evenodd"/><path d="M3572 417 3516 431.199 3516 574.8 3572 589 3572 417Z" fill="#C7E9F3" fill-rule="evenodd"/><path d="M3546.43 367 3555 392 3548.57 392 3540 367 3546.43 367Z" fill-rule="evenodd"/><path d="M3667 425 3671.33 425.271 3675.23 426.083 3678.69 427.167 3681.94 428.792 3684.54 430.687 3686.27 432.854 3687.57 435.292 3688 436.646 3688 438 3667 438 3667 425Z" fill="#E0E1E1" fill-rule="evenodd"/><rect x="3667" y="438" width="21" height="18.0002" fill="#E0E1E1"/><path d="M3551.43 640 3560 615 3553.57 615 3545 640 3551.43 640Z" fill-rule="evenodd"/><path d="M0 0 52.9999 16.9998" stroke="#000000" stroke-width="4.58333" stroke-linejoin="round" stroke-miterlimit="10" fill="none" fill-rule="evenodd" transform="matrix(-1 0 0 1 3371.5 579.5)"/><path d="M3514.5 577.5 3591.5 596.5" stroke="#000000" stroke-width="4.58333" stroke-linejoin="round" stroke-miterlimit="10" fill="none" fill-rule="evenodd"/><path d="M3371.5 429.5 3319.5 411.5" stroke="#000000" stroke-width="4.58333" stroke-linejoin="round" stroke-miterlimit="10" fill="none" fill-rule="evenodd"/><path d="M0 0 73.9999 19.9999" stroke="#000000" stroke-width="4.58333" stroke-linejoin="round" stroke-miterlimit="10" fill="none" fill-rule="evenodd" transform="matrix(1 0 0 -1 3515.5 431.5)"/><path d="M3.20832-1.23414 249.476 638.971 243.059 641.439-3.20832 1.23414ZM254.761 609.335 248.719 646.577 219.275 622.986C217.793 621.798 217.554 619.635 218.741 618.154 219.929 616.672 222.092 616.433 223.573 617.62L248.419 637.527 242.876 639.66 247.975 608.234C248.279 606.36 250.045 605.087 251.919 605.391 253.793 605.695 255.066 607.461 254.761 609.335Z" fill="#FF0000" transform="matrix(1 0 0 -1 3127.5 1450.06)"/><text font-family="Barlow,Barlow_MSFontService,sans-serif" font-weight="400" font-size="83" transform="matrix(1 0 0 1 2999.19 1422)">1.</text><text font-family="Barlow,Barlow_MSFontService,sans-serif" font-weight="400" font-size="83" transform="matrix(1 0 0 1 3488.09 801)">2.</text><text font-family="Barlow,Barlow_MSFontService,sans-serif" font-weight="400" font-size="83" transform="matrix(1 0 0 1 3879.93 1422)">3.</text><path d="M0 117 29.25 0 92.75 0 122 117Z" stroke="#38579B" stroke-width="13.75" stroke-linejoin="round" stroke-miterlimit="10" fill="none" fill-rule="evenodd" transform="matrix(1 0 0 -1 3066 1617)"/><rect x="2815" y="1878" width="624" height="156" stroke="#38579B" stroke-width="13.75" stroke-linejoin="round" stroke-miterlimit="10" fill="none"/><text font-family="Barlow,Barlow_MSFontService,sans-serif" font-weight="700" font-size="64" transform="matrix(1 0 0 1 2955.43 1982)">Transmitter</text><path d="M3133.88 1648.37 3133.88 1877.3 3120.13 1877.3 3120.12 1648.37ZM3106.38 1655.25 3127 1614 3147.62 1655.25Z" fill="#38579B"/><rect x="2815" y="2137" width="624" height="156" stroke="#38579B" stroke-width="13.75" stroke-linejoin="round" stroke-miterlimit="10" fill="none"/><text font-family="Barlow,Barlow_MSFontService,sans-serif" font-weight="700" font-size="64" transform="matrix(1 0 0 1 2917.9 2240)">Timing </text><text font-family="Barlow,Barlow_MSFontService,sans-serif" font-weight="700" font-size="64" transform="matrix(1 0 0 1 3125.87 2240)">Control</text><path d="M6.87512 34.375 6.87536 105.408-6.87464 105.408-6.87488 34.375ZM-20.6249 41.2501 0 0 20.6251 41.2499Z" fill="#38579B" transform="matrix(-1 0 0 1 3124 2030)"/><path d="M3518.21 2224.13 3479.7 2223.55 3479.86 2213.23 3518.36 2213.82ZM3513.36 2203.43 3544.06 2219.36 3512.9 2234.36ZM3484.7 2233.93 3454 2218 3485.17 2203Z"/><path d="M0 117 29.25 0 92.75 0 122 117Z" stroke="#239D46" stroke-width="13.75" stroke-linejoin="round" stroke-miterlimit="10" fill="none" fill-rule="evenodd" transform="matrix(1 0 0 -1 3790 1610)"/><rect x="3552" y="1877" width="623" height="156" stroke="#239D46" stroke-width="13.75" stroke-linejoin="round" stroke-miterlimit="10" fill="none"/><text font-family="Barlow,Barlow_MSFontService,sans-serif" font-weight="700" font-size="64" transform="matrix(1 0 0 1 3736.83 1980)">Receiver</text><path d="M6.875-0.00401424 7.00867 228.924-6.74133 228.932-6.875 0.00401424ZM20.7547 222.041 0.15374 263.303-20.4953 222.066Z" fill="#239D46" transform="matrix(-1 0 0 1 3851.15 1607)"/><rect x="3552" y="2137" width="623" height="156" stroke="#239D46" stroke-width="13.75" stroke-linejoin="round" stroke-miterlimit="10" fill="none"/><text font-family="Barlow,Barlow_MSFontService,sans-serif" font-weight="700" font-size="64" transform="matrix(1 0 0 1 3610.07 2240)">Signal Processing</text><path d="M6.875-2.35384e-05 6.87524 71.033-6.87476 71.033-6.875 2.35384e-05ZM20.6252 64.1579 0.000360892 105.408-20.6248 64.1581Z" fill="#239D46" transform="matrix(-1 0 0 1 3851 2039)"/><path d="M3518.21 1962.13 3479.7 1961.55 3479.86 1951.23 3518.36 1951.82ZM3513.36 1941.43 3544.06 1957.36 3512.9 1972.36ZM3484.7 1971.93 3454 1956 3485.17 1941Z"/><path d="M3623.72 836.292 3851.23 1442.21 3844.8 1444.63 3617.28 838.708ZM3856.75 1412.61 3850.41 1449.8 3821.16 1425.97C3819.68 1424.77 3819.46 1422.61 3820.66 1421.14 3821.86 1419.67 3824.03 1419.44 3825.5 1420.64L3850.18 1440.75 3844.62 1442.84 3849.97 1411.45C3850.29 1409.58 3852.07 1408.32 3853.94 1408.64 3855.81 1408.96 3857.07 1410.74 3856.75 1412.61Z" fill="#FF0000"/><text font-family="Barlow,Barlow_MSFontService,sans-serif" font-weight="400" font-size="83" transform="matrix(1 0 0 1 4206.06 1978)">4</text><text font-family="Barlow,Barlow_MSFontService,sans-serif" font-weight="400" font-size="83" transform="matrix(1 0 0 1 4251.32 1978)">.</text><text font-family="Barlow,Barlow_MSFontService,sans-serif" font-weight="400" font-size="83" transform="matrix(1 0 0 1 4221.39 2238)">5.</text></g></svg>