<svg width="4281" height="1970" xmlns="http://www.w3.org/2000/svg" xmlns:xlink="http://www.w3.org/1999/xlink" xml:space="preserve" overflow="hidden"><defs><filter id="fx0" x="-10%" y="-10%" width="120%" height="120%" filterUnits="userSpaceOnUse" primitiveUnits="userSpaceOnUse"><feComponentTransfer color-interpolation-filters="sRGB"><feFuncR type="discrete" tableValues="0 0"/><feFuncG type="discrete" tableValues="0 0"/><feFuncB type="discrete" tableValues="0 0"/><feFuncA type="linear" slope="0.101961" intercept="0"/></feComponentTransfer><feGaussianBlur stdDeviation="7.64067 7.63889"/></filter><clipPath id="clip1"><rect x="59" y="355" width="4281" height="1970"/></clipPath><clipPath id="clip2"><rect x="0" y="0" width="1071" height="493"/></clipPath></defs><g clip-path="url(#clip1)" transform="translate(-59 -355)"><g filter="url(#fx0)" transform="matrix(3.99907 0 0 4 58 354)"><g clip-path="url(#clip2)" transform="translate(-1.77636e-15 0)"><path d="M23.2554 41.1856C23.2554 31.28 31.2873 23.25 41.1952 23.25L1029.8 23.25C1039.71 23.25 1047.74 31.28 1047.74 41.1856L1047.74 451.814C1047.74 461.72 1039.71 469.75 1029.8 469.75L41.1952 469.75C31.2873 469.75 23.2554 461.72 23.2554 451.814Z" fill="#FFFFFF" fill-rule="evenodd"/></g></g><path d="M151 518.742C151 479.12 183.12 447 222.742 447L4176.26 447C4215.88 447 4248 479.12 4248 518.742L4248 2161.26C4248 2200.88 4215.88 2233 4176.26 2233L222.742 2233C183.12 2233 151 2200.88 151 2161.26Z" fill="#FFFFFF" fill-rule="evenodd"/><text fill="#3D4257" font-family="Barlow SemiBold,Barlow SemiBold_MSFontService,sans-serif" font-weight="600" font-size="64" transform="matrix(1 0 0 1 209.885 601)">TRIGGER</text><text font-family="Barlow,Barlow_MSFontService,sans-serif" font-weight="400" font-size="46" transform="matrix(1 0 0 1 209.885 696)">(This could be Pluto </text><text font-family="Barlow,Barlow_MSFontService,sans-serif" font-weight="400" font-size="46" transform="matrix(1 0 0 1 209.885 751)">L</text><text font-family="Barlow,Barlow_MSFontService,sans-serif" font-weight="400" font-size="46" transform="matrix(1 0 0 1 235.666 751)">12</text><text font-family="Barlow,Barlow_MSFontService,sans-serif" font-weight="400" font-size="46" transform="matrix(1 0 0 1 276.343 751)">N pin or </text><text font-family="Barlow,Barlow_MSFontService,sans-serif" font-weight="400" font-size="46" transform="matrix(1 0 0 1 437.905 751)">sync_soft</text><text font-family="Barlow,Barlow_MSFontService,sans-serif" font-weight="400" font-size="46" transform="matrix(1 0 0 1 631.551 751)">) </text><text fill="#3D4257" font-family="Barlow SemiBold,Barlow SemiBold_MSFontService,sans-serif" font-weight="600" font-size="64" transform="matrix(1 0 0 1 209.885 1047)">“CHANNEL 0”</text><text font-family="Barlow,Barlow_MSFontService,sans-serif" font-weight="400" font-size="46" transform="matrix(1 0 0 1 209.885 1142)">(Pluto</text><text font-family="Barlow,Barlow_MSFontService,sans-serif" font-weight="400" font-size="46" transform="matrix(1 0 0 1 325.614 1142)">’</text><text font-family="Barlow,Barlow_MSFontService,sans-serif" font-weight="400" font-size="46" transform="matrix(1 0 0 1 331.916 1142)">s L</text><text font-family="Barlow,Barlow_MSFontService,sans-serif" font-weight="400" font-size="46" transform="matrix(1 0 0 1 388.635 1142)">10</text><text font-family="Barlow,Barlow_MSFontService,sans-serif" font-weight="400" font-size="46" transform="matrix(1 0 0 1 430.457 1142)">P if phaser </text><text font-family="Barlow,Barlow_MSFontService,sans-serif" font-weight="400" font-size="46" transform="matrix(1 0 0 1 209.885 1197)">mode is enabled)</text><text fill="#3D4257" font-family="Barlow SemiBold,Barlow SemiBold_MSFontService,sans-serif" font-weight="600" font-size="64" transform="matrix(1 0 0 1 209.885 1520)">“CHANNEL 1”</text><text font-family="Barlow,Barlow_MSFontService,sans-serif" font-weight="400" font-size="46" transform="matrix(1 0 0 1 209.885 1615)">(Rx DMA transfer </text><text font-family="Barlow,Barlow_MSFontService,sans-serif" font-weight="400" font-size="46" transform="matrix(1 0 0 1 209.885 1670)">start sync)</text><text fill="#3D4257" font-family="Barlow SemiBold,Barlow SemiBold_MSFontService,sans-serif" font-weight="600" font-size="64" transform="matrix(1 0 0 1 209.885 2031)">“CHANNEL 2”</text><text font-family="Barlow,Barlow_MSFontService,sans-serif" font-weight="400" font-size="46" transform="matrix(1 0 0 1 209.885 2127)">(Tx DMA transfer </text><text font-family="Barlow,Barlow_MSFontService,sans-serif" font-weight="400" font-size="46" transform="matrix(1 0 0 1 209.885 2182)">start sync)</text><path d="M0 0 0.000360892 1477.75" stroke="#D0D1D1" stroke-width="3.4375" stroke-linejoin="round" stroke-miterlimit="10" stroke-dasharray="13.75 10.3125" fill="none" fill-rule="evenodd" transform="matrix(1 0 0 -1 2658.5 2112.25)"/><path d="M0 0 0.000360892 1195.08" stroke="#D0D1D1" stroke-width="3.4375" stroke-linejoin="round" stroke-miterlimit="10" stroke-dasharray="13.75 10.3125" fill="none" fill-rule="evenodd" transform="matrix(1 0 0 -1 2745.5 2111.58)"/><path d="M0 0 104.452 92.5869" stroke="#B1B3B3" stroke-width="4.58333" stroke-linejoin="round" stroke-miterlimit="10" fill="none" fill-rule="evenodd" transform="matrix(-1 0 0 1 2457.95 2019.5)"/><path d="M0 0 104.452 92.5869" stroke="#B1B3B3" stroke-width="4.58333" stroke-linejoin="round" stroke-miterlimit="10" fill="none" fill-rule="evenodd" transform="matrix(-1 0 0 1 2491.95 2019.5)"/><text font-family="Barlow,Barlow_MSFontService,sans-serif" font-weight="400" font-size="55" transform="matrix(1 0 0 1 827.11 831)">startup_delay</text><path d="M0 0 0.000360892 1508.18" stroke="#D0D1D1" stroke-width="3.4375" stroke-linejoin="round" stroke-miterlimit="10" stroke-dasharray="13.75 10.3125" fill="none" fill-rule="evenodd" transform="matrix(1 0 0 -1 729.5 2111.68)"/><path d="M1195.49 1150.15 841.412 1149.28 841.421 1145.84 1195.5 1146.72ZM1190.95 1134.67 1218.42 1148.49 1190.88 1162.17ZM845.966 1161.32 818.5 1147.5 846.034 1133.82Z" fill="#FF0000"/><text font-family="Barlow,Barlow_MSFontService,sans-serif" font-weight="400" font-size="55" transform="matrix(1 0 0 1 1032.23 1072)">channel</text><text font-family="Barlow,Barlow_MSFontService,sans-serif" font-weight="400" font-size="55" transform="matrix(1 0 0 1 1220.15 1072)">0</text><text font-family="Barlow,Barlow_MSFontService,sans-serif" font-weight="400" font-size="55" transform="matrix(1 0 0 1 1251.09 1072)">_off</text><text font-family="Barlow,Barlow_MSFontService,sans-serif" font-weight="400" font-size="55" transform="matrix(1 0 0 1 858.855 1195)">frame_length</text><path d="M210.5 1087.5 960.605 1087.5" stroke="#B1B3B3" stroke-width="3.4375" stroke-linejoin="round" stroke-miterlimit="10" fill="none" fill-rule="evenodd"/><path d="M22.9167-1.71865 62.7155-1.71849 62.7155 1.71901 22.9167 1.71885ZM27.4999 13.7501 0 0 27.5001-13.7499ZM58.1322-13.7498 85.6322 0.000360892 58.1321 13.7502Z" fill="#FF0000" transform="matrix(-1 0 0 1 816.132 808.5)"/><text font-family="Barlow,Barlow_MSFontService,sans-serif" font-weight="400" font-size="55" transform="matrix(1 0 0 1 1272.01 793)">burst_count</text><path d="M22.9167-1.71869 118.571-1.71845 118.571 1.71905 22.9167 1.71881ZM27.5 13.7501 0 0 27.5-13.7499ZM113.987-13.7497 141.487 0.000360892 113.987 13.7503Z" fill="#FF0000" transform="matrix(-1 0 0 1 957.987 961.5)"/><path d="M0 0 0.000360892 1335.95" stroke="#D0D1D1" stroke-width="3.4375" stroke-linejoin="round" stroke-miterlimit="10" stroke-dasharray="13.75 10.3125" fill="none" fill-rule="evenodd" transform="matrix(1 0 0 -1 816.5 2111.45)"/><path d="M0 0 0.000360892 1176.07" stroke="#D0D1D1" stroke-width="3.4375" stroke-linejoin="round" stroke-miterlimit="10" stroke-dasharray="13.75 10.3125" fill="none" fill-rule="evenodd" transform="matrix(1 0 0 -1 1216.5 2111.57)"/><path d="M0 0 0.000360892 1176.07" stroke="#D0D1D1" stroke-width="3.4375" stroke-linejoin="round" stroke-miterlimit="10" stroke-dasharray="13.75 10.3125" fill="none" fill-rule="evenodd" transform="matrix(1 0 0 -1 1617.5 2111.57)"/><path d="M0 0 0.000360892 1176.07" stroke="#D0D1D1" stroke-width="3.4375" stroke-linejoin="round" stroke-miterlimit="10" stroke-dasharray="13.75 10.3125" fill="none" fill-rule="evenodd" transform="matrix(1 0 0 -1 2017.5 2111.57)"/><path d="M0 0 0.000360892 1175.26" stroke="#D0D1D1" stroke-width="3.4375" stroke-linejoin="round" stroke-miterlimit="10" stroke-dasharray="13.75 10.3125" fill="none" fill-rule="evenodd" transform="matrix(1 0 0 -1 3145.5 2111.76)"/><path d="M0 0 0.000360892 1175.26" stroke="#D0D1D1" stroke-width="3.4375" stroke-linejoin="round" stroke-miterlimit="10" stroke-dasharray="13.75 10.3125" fill="none" fill-rule="evenodd" transform="matrix(1 0 0 -1 3546.5 2111.76)"/><path d="M0 0 0.000360892 1175.26" stroke="#D0D1D1" stroke-width="3.4375" stroke-linejoin="round" stroke-miterlimit="10" stroke-dasharray="13.75 10.3125" fill="none" fill-rule="evenodd" transform="matrix(1 0 0 -1 3946.5 2111.76)"/><text font-family="Barlow,Barlow_MSFontService,sans-serif" font-weight="400" font-size="55" transform="matrix(1 0 0 1 904.56 1535)">channel1_off</text><path d="M22.9167-1.71859 53.0649-1.71839 53.0649 1.71911 22.9167 1.71891ZM27.4999 13.7502 0 0 27.5001-13.7498Z" fill="#FF0000" transform="matrix(-1 0 0 1 816.565 1426.5)"/><path d="M2.29167-1.30097e-05 2.2919 40.6545-2.29144 40.6545-2.29167 1.30097e-05ZM13.7502 36.0711 0.000360892 63.5712-13.7498 36.0713Z" fill="#27B34F" transform="matrix(1 0 0 -1 851.5 1389.07)"/><path d="M2.29167-1.30097e-05 2.2919 40.6545-2.29144 40.6545-2.29167 1.30097e-05ZM13.7502 36.0711 0.000360892 63.5712-13.7498 36.0713Z" fill="#27B34F" transform="matrix(1 0 0 -1 2782.5 1385.07)"/><path d="M0 0 104.452 92.5869" stroke="#B1B3B3" stroke-width="4.58333" stroke-linejoin="round" stroke-miterlimit="10" fill="none" fill-rule="evenodd" transform="matrix(-1 0 0 1 2459.95 1043.5)"/><path d="M0 0 104.452 92.5869" stroke="#B1B3B3" stroke-width="4.58333" stroke-linejoin="round" stroke-miterlimit="10" fill="none" fill-rule="evenodd" transform="matrix(-1 0 0 1 2493.95 1043.5)"/><path d="M2.29167-1.30097e-05 2.2919 40.6545-2.29144 40.6545-2.29167 1.30097e-05ZM13.7502 36.0711 0.000360892 63.5712-13.7498 36.0713Z" fill="#27B34F" transform="matrix(1 0 0 -1 851.5 1906.07)"/><path d="M2.29167-1.30097e-05 2.2919 40.6545-2.29144 40.6545-2.29167 1.30097e-05ZM13.7502 36.0711 0.000360892 63.5712-13.7498 36.0713Z" fill="#27B34F" transform="matrix(1 0 0 -1 2782.5 1902.07)"/><text font-family="Barlow,Barlow_MSFontService,sans-serif" font-weight="400" font-size="41" transform="matrix(1 0 0 1 1325.29 1484)">Shown with CH1_Polarity=0</text><text font-family="Barlow,Barlow_MSFontService,sans-serif" font-weight="400" font-size="41" transform="matrix(1 0 0 1 1325.29 1534)">CH1 triggers on low to high edge</text><path d="M210.5 1552.5 854.025 1552.5" stroke="#B1B3B3" stroke-width="3.4375" stroke-linejoin="round" stroke-miterlimit="10" fill="none" fill-rule="evenodd"/><path d="M0 0 104.452 92.5869" stroke="#B1B3B3" stroke-width="4.58333" stroke-linejoin="round" stroke-miterlimit="10" fill="none" fill-rule="evenodd" transform="matrix(-1 0 0 1 2459.95 1505.5)"/><path d="M0 0 104.452 92.5869" stroke="#B1B3B3" stroke-width="4.58333" stroke-linejoin="round" stroke-miterlimit="10" fill="none" fill-rule="evenodd" transform="matrix(-1 0 0 1 2493.95 1505.5)"/><path d="M22.9167-1.71859 53.0649-1.71839 53.0649 1.71911 22.9167 1.71891ZM27.4999 13.7502 0 0 27.5001-13.7498Z" fill="#FF0000" transform="matrix(-1 0 0 1 815.565 1939.5)"/><path d="M209.5 2066.5 853.025 2066.5" stroke="#B1B3B3" stroke-width="3.4375" stroke-linejoin="round" stroke-miterlimit="10" fill="none" fill-rule="evenodd"/><path d="M1025.5 635.5 2406.19 635.5" stroke="#B1B3B3" stroke-width="3.4375" stroke-linejoin="round" stroke-miterlimit="10" fill="none" fill-rule="evenodd"/><path d="M210.5 634.5 730.057 634.5" stroke="#B1B3B3" stroke-width="3.4375" stroke-linejoin="round" stroke-miterlimit="10" fill="none" fill-rule="evenodd"/><path d="M2955.5 635.5 4120.45 635.5" stroke="#B1B3B3" stroke-width="3.4375" stroke-linejoin="round" stroke-miterlimit="10" fill="none" fill-rule="evenodd"/><path d="M0 0 104.452 92.5869" stroke="#B1B3B3" stroke-width="4.58333" stroke-linejoin="round" stroke-miterlimit="10" fill="none" fill-rule="evenodd" transform="matrix(-1 0 0 1 2461.95 586.5)"/><path d="M0 0 104.452 92.5869" stroke="#B1B3B3" stroke-width="4.58333" stroke-linejoin="round" stroke-miterlimit="10" fill="none" fill-rule="evenodd" transform="matrix(-1 0 0 1 2495.95 586.5)"/><text font-family="Barlow,Barlow_MSFontService,sans-serif" font-weight="400" font-size="55" transform="matrix(1 0 0 1 1055.39 592)">(Trigger falling edge doesn’t matter)</text><path d="M728.5 481.5 728.5 635.031" stroke="#B1B3B3" stroke-width="3.4375" stroke-linejoin="round" stroke-miterlimit="10" fill="none" fill-rule="evenodd"/><path d="M1027.88 482.12 727.5 481.5" stroke="#B1B3B3" stroke-width="3.4375" stroke-linejoin="round" stroke-miterlimit="10" fill="none" fill-rule="evenodd"/><path d="M1027.5 481.5 1027.5 635.031" stroke="#B1B3B3" stroke-width="3.4375" stroke-linejoin="round" stroke-miterlimit="10" fill="none" fill-rule="evenodd"/><path d="M2658.5 481.5 2658.5 635.031" stroke="#B1B3B3" stroke-width="3.4375" stroke-linejoin="round" stroke-miterlimit="10" fill="none" fill-rule="evenodd"/><path d="M2957.88 482.12 2657.5 481.5" stroke="#B1B3B3" stroke-width="3.4375" stroke-linejoin="round" stroke-miterlimit="10" fill="none" fill-rule="evenodd"/><path d="M2957.5 481.5 2957.5 635.031" stroke="#B1B3B3" stroke-width="3.4375" stroke-linejoin="round" stroke-miterlimit="10" fill="none" fill-rule="evenodd"/><path d="M2440.5 635.5 2659.08 635.5" stroke="#B1B3B3" stroke-width="3.4375" stroke-linejoin="round" stroke-miterlimit="10" fill="none" fill-rule="evenodd"/><path d="M960.5 935.5 960.5 1089.03" stroke="#B1B3B3" stroke-width="3.4375" stroke-linejoin="round" stroke-miterlimit="10" fill="none" fill-rule="evenodd"/><path d="M1029.73 937.12 960.5 936.5" stroke="#B1B3B3" stroke-width="3.4375" stroke-linejoin="round" stroke-miterlimit="10" fill="none" fill-rule="evenodd"/><path d="M1029.5 935.5 1029.5 1089.03" stroke="#B1B3B3" stroke-width="3.4375" stroke-linejoin="round" stroke-miterlimit="10" fill="none" fill-rule="evenodd"/><path d="M1027.5 1087.5 1360.65 1087.5" stroke="#B1B3B3" stroke-width="3.4375" stroke-linejoin="round" stroke-miterlimit="10" fill="none" fill-rule="evenodd"/><path d="M1360.5 935.5 1360.5 1089.03" stroke="#B1B3B3" stroke-width="3.4375" stroke-linejoin="round" stroke-miterlimit="10" fill="none" fill-rule="evenodd"/><path d="M1429.73 937.12 1360.5 936.5" stroke="#B1B3B3" stroke-width="3.4375" stroke-linejoin="round" stroke-miterlimit="10" fill="none" fill-rule="evenodd"/><path d="M1429.5 935.5 1429.5 1089.03" stroke="#B1B3B3" stroke-width="3.4375" stroke-linejoin="round" stroke-miterlimit="10" fill="none" fill-rule="evenodd"/><path d="M1427.5 1087.5 1760.65 1087.5" stroke="#B1B3B3" stroke-width="3.4375" stroke-linejoin="round" stroke-miterlimit="10" fill="none" fill-rule="evenodd"/><path d="M1759.5 935.5 1759.5 1089.03" stroke="#B1B3B3" stroke-width="3.4375" stroke-linejoin="round" stroke-miterlimit="10" fill="none" fill-rule="evenodd"/><path d="M1827.73 937.12 1758.5 936.5" stroke="#B1B3B3" stroke-width="3.4375" stroke-linejoin="round" stroke-miterlimit="10" fill="none" fill-rule="evenodd"/><path d="M1828.5 935.5 1828.5 1089.03" stroke="#B1B3B3" stroke-width="3.4375" stroke-linejoin="round" stroke-miterlimit="10" fill="none" fill-rule="evenodd"/><path d="M1828.5 1087.5 2409.9 1087.5" stroke="#B1B3B3" stroke-width="3.4375" stroke-linejoin="round" stroke-miterlimit="10" fill="none" fill-rule="evenodd"/><path d="M2440.5 1087.5 2884.4 1087.5" stroke="#B1B3B3" stroke-width="3.4375" stroke-linejoin="round" stroke-miterlimit="10" fill="none" fill-rule="evenodd"/><path d="M2884.5 935.5 2884.5 1089.03" stroke="#B1B3B3" stroke-width="3.4375" stroke-linejoin="round" stroke-miterlimit="10" fill="none" fill-rule="evenodd"/><path d="M2953.73 937.12 2884.5 936.5" stroke="#B1B3B3" stroke-width="3.4375" stroke-linejoin="round" stroke-miterlimit="10" fill="none" fill-rule="evenodd"/><path d="M2953.5 935.5 2953.5 1089.03" stroke="#B1B3B3" stroke-width="3.4375" stroke-linejoin="round" stroke-miterlimit="10" fill="none" fill-rule="evenodd"/><path d="M2953.5 1087.5 3286.33 1087.5" stroke="#B1B3B3" stroke-width="3.4375" stroke-linejoin="round" stroke-miterlimit="10" fill="none" fill-rule="evenodd"/><path d="M3284.5 935.5 3284.5 1089.03" stroke="#B1B3B3" stroke-width="3.4375" stroke-linejoin="round" stroke-miterlimit="10" fill="none" fill-rule="evenodd"/><path d="M3353.73 937.12 3284.5 936.5" stroke="#B1B3B3" stroke-width="3.4375" stroke-linejoin="round" stroke-miterlimit="10" fill="none" fill-rule="evenodd"/><path d="M3353.5 935.5 3353.5 1089.03" stroke="#B1B3B3" stroke-width="3.4375" stroke-linejoin="round" stroke-miterlimit="10" fill="none" fill-rule="evenodd"/><path d="M3352.5 1087.5 3685.33 1087.5" stroke="#B1B3B3" stroke-width="3.4375" stroke-linejoin="round" stroke-miterlimit="10" fill="none" fill-rule="evenodd"/><path d="M3685.5 935.5 3685.5 1089.03" stroke="#B1B3B3" stroke-width="3.4375" stroke-linejoin="round" stroke-miterlimit="10" fill="none" fill-rule="evenodd"/><path d="M3753.73 937.12 3684.5 936.5" stroke="#B1B3B3" stroke-width="3.4375" stroke-linejoin="round" stroke-miterlimit="10" fill="none" fill-rule="evenodd"/><path d="M3753.5 935.5 3753.5 1089.03" stroke="#B1B3B3" stroke-width="3.4375" stroke-linejoin="round" stroke-miterlimit="10" fill="none" fill-rule="evenodd"/><path d="M3753.5 1087.5 4120.42 1087.5" stroke="#B1B3B3" stroke-width="3.4375" stroke-linejoin="round" stroke-miterlimit="10" fill="none" fill-rule="evenodd"/><path d="M816.5 918.5C816.5 888.124 816.5 863.5 816.501 863.5L1415.5 863.5C1415.5 863.5 1415.5 838.875 1415.5 808.499 1415.5 838.875 1415.5 863.5 1415.5 863.5L2014.5 863.5C2014.5 863.5 2014.5 888.124 2014.5 918.5" stroke="#3D4257" stroke-width="3.4375" stroke-linejoin="round" stroke-miterlimit="10" fill="none" fill-rule="evenodd"/><path d="M852.5 1400.5 852.5 1554.03" stroke="#B1B3B3" stroke-width="3.4375" stroke-linejoin="round" stroke-miterlimit="10" fill="none" fill-rule="evenodd"/><path d="M889.188 1402.12 852.5 1401.5" stroke="#B1B3B3" stroke-width="3.4375" stroke-linejoin="round" stroke-miterlimit="10" fill="none" fill-rule="evenodd"/><path d="M888.5 1400.5 888.5 1554.03" stroke="#B1B3B3" stroke-width="3.4375" stroke-linejoin="round" stroke-miterlimit="10" fill="none" fill-rule="evenodd"/><text font-family="Barlow,Barlow_MSFontService,sans-serif" font-weight="400" font-size="55" transform="matrix(1 0 0 1 904.56 1440)">channel1_on</text><path d="M887.5 1552.5 2406.33 1552.5" stroke="#B1B3B3" stroke-width="3.4375" stroke-linejoin="round" stroke-miterlimit="10" fill="none" fill-rule="evenodd"/><path d="M2440.5 1552.5 2782.62 1552.5" stroke="#B1B3B3" stroke-width="3.4375" stroke-linejoin="round" stroke-miterlimit="10" fill="none" fill-rule="evenodd"/><path d="M2781.5 1400.5 2781.5 1554.03" stroke="#B1B3B3" stroke-width="3.4375" stroke-linejoin="round" stroke-miterlimit="10" fill="none" fill-rule="evenodd"/><path d="M2818.19 1402.12 2781.5 1401.5" stroke="#B1B3B3" stroke-width="3.4375" stroke-linejoin="round" stroke-miterlimit="10" fill="none" fill-rule="evenodd"/><path d="M2818.5 1400.5 2818.5 1554.03" stroke="#B1B3B3" stroke-width="3.4375" stroke-linejoin="round" stroke-miterlimit="10" fill="none" fill-rule="evenodd"/><path d="M2817.5 1552.5 4120.61 1552.5" stroke="#B1B3B3" stroke-width="3.4375" stroke-linejoin="round" stroke-miterlimit="10" fill="none" fill-rule="evenodd"/><text font-family="Barlow,Barlow_MSFontService,sans-serif" font-weight="400" font-size="55" transform="matrix(1 0 0 1 904.56 2051)">channel</text><text font-family="Barlow,Barlow_MSFontService,sans-serif" font-weight="400" font-size="55" transform="matrix(1 0 0 1 1092.48 2051)">2</text><text font-family="Barlow,Barlow_MSFontService,sans-serif" font-weight="400" font-size="55" transform="matrix(1 0 0 1 1121.7 2051)">_off</text><text font-family="Barlow,Barlow_MSFontService,sans-serif" font-weight="400" font-size="55" transform="matrix(1 0 0 1 904.56 1956)">channel</text><text font-family="Barlow,Barlow_MSFontService,sans-serif" font-weight="400" font-size="55" transform="matrix(1 0 0 1 1092.48 1956)">2</text><text font-family="Barlow,Barlow_MSFontService,sans-serif" font-weight="400" font-size="55" transform="matrix(1 0 0 1 1121.7 1956)">_on</text><text font-family="Barlow,Barlow_MSFontService,sans-serif" font-weight="400" font-size="41" transform="matrix(1 0 0 1 1325.29 2000)">Shown with CH1_Polarity=0</text><text font-family="Barlow,Barlow_MSFontService,sans-serif" font-weight="400" font-size="41" transform="matrix(1 0 0 1 1325.29 2050)">CH1 triggers on low to high edge</text><path d="M852.5 1914.5 852.5 2068.03" stroke="#B1B3B3" stroke-width="3.4375" stroke-linejoin="round" stroke-miterlimit="10" fill="none" fill-rule="evenodd"/><path d="M889.188 1916.12 852.5 1915.5" stroke="#B1B3B3" stroke-width="3.4375" stroke-linejoin="round" stroke-miterlimit="10" fill="none" fill-rule="evenodd"/><path d="M888.5 1914.5 888.5 2068.03" stroke="#B1B3B3" stroke-width="3.4375" stroke-linejoin="round" stroke-miterlimit="10" fill="none" fill-rule="evenodd"/><path d="M889.5 2066.5 2406.56 2066.5" stroke="#B1B3B3" stroke-width="3.4375" stroke-linejoin="round" stroke-miterlimit="10" fill="none" fill-rule="evenodd"/><path d="M2439.5 2066.5 2781.39 2066.5" stroke="#B1B3B3" stroke-width="3.4375" stroke-linejoin="round" stroke-miterlimit="10" fill="none" fill-rule="evenodd"/><path d="M2783.5 1914.5 2783.5 2068.03" stroke="#B1B3B3" stroke-width="3.4375" stroke-linejoin="round" stroke-miterlimit="10" fill="none" fill-rule="evenodd"/><path d="M2819.19 1916.12 2782.5 1915.5" stroke="#B1B3B3" stroke-width="3.4375" stroke-linejoin="round" stroke-miterlimit="10" fill="none" fill-rule="evenodd"/><path d="M2819.5 1914.5 2819.5 2068.03" stroke="#B1B3B3" stroke-width="3.4375" stroke-linejoin="round" stroke-miterlimit="10" fill="none" fill-rule="evenodd"/><path d="M2819.5 2066.5 4120.31 2066.5" stroke="#B1B3B3" stroke-width="3.4375" stroke-linejoin="round" stroke-miterlimit="10" fill="none" fill-rule="evenodd"/><path d="M851 1235.33C851 1227.42 857.418 1221 865.334 1221L2257.67 1221C2265.58 1221 2272 1227.42 2272 1235.33L2272 1292.67C2272 1300.58 2265.58 1307 2257.67 1307L865.334 1307C857.418 1307 851 1300.58 851 1292.67Z" fill="#555659" fill-rule="evenodd"/><text fill="#FFFFFF" font-family="Barlow SemiBold,Barlow SemiBold_MSFontService,sans-serif" font-weight="600" font-size="64" transform="matrix(1 0 0 1 888.608 1289)">Pluto RX_BUFFER</text><path d="M2785 1235.33C2785 1227.42 2791.42 1221 2799.33 1221L4190.67 1221C4198.58 1221 4205 1227.42 4205 1235.33L4205 1292.67C4205 1300.58 4198.58 1307 4190.67 1307L2799.33 1307C2791.42 1307 2785 1300.58 2785 1292.67Z" fill="#555659" fill-rule="evenodd"/><text fill="#FFFFFF" font-family="Barlow SemiBold,Barlow SemiBold_MSFontService,sans-serif" font-weight="600" font-size="64" transform="matrix(1 0 0 1 2821.98 1289)">Pluto RX_BUFFER</text><path d="M851 1764.33C851 1756.42 857.418 1750 865.334 1750L2257.67 1750C2265.58 1750 2272 1756.42 2272 1764.33L2272 1821.67C2272 1829.58 2265.58 1836 2257.67 1836L865.334 1836C857.418 1836 851 1829.58 851 1821.67Z" fill="#00B2A9" fill-rule="evenodd"/><text fill="#FFFFFF" font-family="Barlow SemiBold,Barlow SemiBold_MSFontService,sans-serif" font-weight="600" font-size="64" transform="matrix(1 0 0 1 888.608 1818)">Pluto TX_BUFFER</text><path d="M2785 1764.33C2785 1756.42 2791.42 1750 2799.33 1750L4190.67 1750C4198.58 1750 4205 1756.42 4205 1764.33L4205 1821.67C4205 1829.58 4198.58 1836 4190.67 1836L2799.33 1836C2791.42 1836 2785 1829.58 2785 1821.67Z" fill="#00B2A9" fill-rule="evenodd"/><text fill="#FFFFFF" font-family="Barlow SemiBold,Barlow SemiBold_MSFontService,sans-serif" font-weight="600" font-size="64" transform="matrix(1 0 0 1 2821.98 1818)">Pluto TX_BUFFER</text><path d="M22.9166-1.71871 190.228-1.71843 190.228 1.71907 22.9166 1.71879ZM27.5 13.75 0 0 27.5-13.75ZM185.645-13.7497 213.145 0.000360892 185.645 13.7503Z" fill="#FF0000" transform="matrix(-1 0 0 1 1029.64 1056.5)"/><path d="M22.9167-1.71863 48.3589-1.71851 48.3588 1.71899 22.9167 1.71887ZM27.4999 13.7501 0 0 27.5001-13.7499ZM43.7756-13.7498 71.2755 0.000360892 43.7755 13.7502Z" fill="#FF0000" transform="matrix(-1 0 0 1 887.775 1521.5)"/><path d="M22.9167-1.71859 53.0649-1.71839 53.0649 1.71911 22.9167 1.71891ZM27.4999 13.7502 0 0 27.5001-13.7498Z" fill="#FF0000" transform="matrix(1 0 0 -1 853.5 1425.5)"/><path d="M22.9167-1.71863 48.3589-1.71851 48.3588 1.71899 22.9167 1.71887ZM27.4999 13.7501 0 0 27.5001-13.7499ZM43.7756-13.7498 71.2755 0.000360892 43.7755 13.7502Z" fill="#FF0000" transform="matrix(-1 0 0 1 885.775 2035.5)"/><path d="M22.9167-1.71859 53.0649-1.71839 53.0649 1.71911 22.9167 1.71891ZM27.4999 13.7502 0 0 27.5001-13.7498Z" fill="#FF0000" transform="matrix(1 0 0 -1 852.5 1939.5)"/><text font-family="Barlow,Barlow_MSFontService,sans-serif" font-weight="400" font-size="55" transform="matrix(1 0 0 1 966.78 979)">channel0_on</text></g></svg>