<svg width="661" height="336" xmlns="http://www.w3.org/2000/svg" xmlns:xlink="http://www.w3.org/1999/xlink" xml:space="preserve" overflow="hidden"><g transform="translate(-2843 -522)"><path d="M2935.63 665.122 2904.05 734.531 2964.27 734.531ZM2940.15 640.861 2981.21 740.416 2895.07 740.416Z" fill-rule="evenodd"/><text fill="#000000" fill-opacity="0" font-family="Arial,Arial_MSFontService,sans-serif" font-size="99.5552" x="2895.07" y="727.972"></text><path d="M3034.84 648.757C3032.3 648.757 3029.62 648.852 3026.8 649.044L3017.61 690.603 3026.08 690.603C3033.02 690.603 3038.5 689.67 3042.52 687.804 3046.54 685.937 3049.72 682.875 3052.06 678.616 3054.41 674.357 3055.58 669.763 3055.58 664.835 3055.58 662.777 3055.39 660.947 3055.01 659.344 3054.62 657.741 3054.12 656.413 3053.5 655.36 3052.88 654.307 3052.09 653.374 3051.13 652.561 3050.17 651.747 3048.98 651.042 3047.54 650.443 3046.1 649.845 3044.44 649.415 3042.55 649.151 3040.66 648.888 3038.09 648.757 3034.84 648.757ZM3006.05 642.44 3037.99 642.44C3043.07 642.44 3047.21 642.739 3050.41 643.337 3053.62 643.936 3056.36 644.833 3058.63 646.029 3060.9 647.225 3062.81 648.769 3064.34 650.659 3065.87 652.549 3067.02 654.678 3067.78 657.047 3068.55 659.416 3068.93 661.94 3068.93 664.619 3068.93 671.989 3066.68 678.257 3062.18 683.425 3057.69 688.593 3051.06 692.517 3042.3 695.197L3042.3 695.986C3044.6 697.709 3046.45 699.766 3047.86 702.159 3049.28 704.552 3050.41 707.877 3051.27 712.136L3052.92 720.462C3053.45 723.094 3054.05 725.463 3054.72 727.568 3055.39 729.674 3056.19 731.348 3057.12 732.593 3058.06 733.837 3059.11 734.77 3060.28 735.392 3061.45 736.014 3063.16 736.516 3065.41 736.899L3064.7 740.416 3044.81 740.416C3043.28 736.158 3041.92 731.085 3040.72 725.2L3037.56 709.983C3037.04 707.351 3036.4 705.138 3035.66 703.343 3034.92 701.549 3034.03 700.161 3033.01 699.18 3031.98 698.199 3030.78 697.553 3029.42 697.242 3028.05 696.931 3026.39 696.776 3024.43 696.776L3016.25 696.776 3011.22 719.529C3010.79 721.395 3010.49 722.879 3010.32 723.979 3010.16 725.08 3010.01 726.24 3009.89 727.461 3009.77 728.681 3009.71 729.769 3009.71 730.726 3009.71 732.21 3009.95 733.37 3010.43 734.208 3010.91 735.045 3011.63 735.655 3012.58 736.038 3013.54 736.421 3015.19 736.708 3017.54 736.899L3016.75 740.416 2987.25 740.416 2988.04 736.899C2989.86 736.612 2991.22 736.146 2992.13 735.5 2993.04 734.854 2993.8 733.956 2994.43 732.808 2995.05 731.659 2995.62 730.26 2996.15 728.609 2996.67 726.958 2997.46 723.764 2998.52 719.027L3010.72 663.758C3011.77 658.973 3012.3 655.193 3012.3 652.417 3012.3 650.073 3011.75 648.446 3010.65 647.536 3009.55 646.627 3007.75 646.101 3005.26 645.957Z" fill-rule="evenodd"/><text fill="#000000" fill-opacity="0" font-family="Arial,Arial_MSFontService,sans-serif" font-size="97.9761" x="2987.25" y="728.169">𝑅</text><path d="M3132.29 708.547 3220.72 708.547 3220.72 718.094 3132.29 718.094ZM3132.29 678.76 3220.72 678.76 3220.72 688.306 3132.29 688.306Z" fill-rule="evenodd"/><text fill="#000000" fill-opacity="0" font-family="Arial,Arial_MSFontService,sans-serif" font-size="39.334" x="3132.29" y="713.177">=</text><path d="M3373.92 559.64C3380.28 559.64 3386.14 560.358 3391.5 561.794L3387.99 578.015 3380.45 578.015C3380.35 574.379 3380.06 571.747 3379.55 570.12 3379.05 568.493 3378.24 567.273 3377.11 566.459 3375.99 565.646 3374.4 565.239 3372.34 565.239 3367.51 565.239 3363.16 567.165 3359.31 571.017 3355.46 574.869 3352.31 580.324 3349.87 587.382 3347.43 594.44 3346.21 601.223 3346.21 607.731 3346.21 612.612 3347.17 616.237 3349.08 618.606 3351 620.974 3353.87 622.159 3357.7 622.159 3362.05 622.159 3365.82 621.333 3369 619.682 3372.18 618.031 3375.55 615.435 3379.09 611.894L3383.47 616.273C3378.97 621.249 3374.43 624.886 3369.86 627.183 3365.29 629.48 3360.38 630.628 3355.11 630.628 3348.17 630.628 3342.91 628.571 3339.32 624.455 3335.73 620.34 3333.94 614.359 3333.94 606.511 3333.94 601.391 3334.9 595.768 3336.81 589.643 3338.72 583.518 3341.52 578.135 3345.21 573.493 3348.89 568.852 3353.2 565.383 3358.13 563.086 3363.06 560.789 3368.32 559.64 3373.92 559.64Z" fill-rule="evenodd"/><text fill="#000000" fill-opacity="0" font-family="Arial,Arial_MSFontService,sans-serif" font-size="70.9878" x="3333.94" y="621.755">𝑐</text><path d="M3386.65 790.791 3377.75 831.919C3380.67 832.11 3384.25 832.206 3388.51 832.206 3395.79 832.206 3401.25 831.381 3404.91 829.73 3408.58 828.079 3411.72 825.148 3414.35 820.937 3416.99 816.726 3418.3 811.534 3418.3 805.361 3418.3 800.528 3416.71 796.892 3413.53 794.451 3410.35 792.011 3405.6 790.791 3399.28 790.791ZM3407.89 746.863C3403.73 746.863 3399.85 746.935 3396.27 747.078L3388.15 784.474 3398.28 784.474C3403.92 784.474 3408.41 784.02 3411.73 783.11 3415.06 782.201 3417.99 780.574 3420.53 778.23 3423.06 775.885 3424.9 773.313 3426.05 770.514 3427.2 767.714 3427.78 764.472 3427.78 760.788 3427.78 758.73 3427.42 756.804 3426.7 755.01 3425.98 753.215 3424.75 751.684 3423 750.416 3421.26 749.148 3419.25 748.239 3416.97 747.688 3414.7 747.138 3411.67 746.863 3407.89 746.863ZM3375.67 740.547 3411.2 740.547C3418.37 740.547 3424.13 741.3 3428.46 742.807 3432.79 744.315 3435.97 746.528 3438 749.447 3440.04 752.366 3441.05 756.026 3441.05 760.429 3441.05 766.697 3439.14 772.164 3435.31 776.83 3431.48 781.495 3425.79 785.072 3418.23 787.561L3418.09 788.35C3422.54 790.121 3425.96 792.645 3428.35 795.923 3430.74 799.201 3431.94 802.921 3431.94 807.084 3431.94 813.448 3430.48 818.891 3427.56 823.413 3424.64 827.935 3420.26 831.584 3414.43 834.359 3408.59 837.135 3400.05 838.523 3388.8 838.523L3356.86 838.523 3357.65 835.005C3359.47 834.718 3360.83 834.252 3361.74 833.606 3362.65 832.96 3363.42 832.063 3364.04 830.914 3364.66 829.766 3365.23 828.366 3365.76 826.715 3366.29 825.064 3367.08 821.87 3368.13 817.133L3380.33 761.864C3381.38 757.079 3381.91 753.299 3381.91 750.524 3381.91 748.179 3381.36 746.552 3380.26 745.643 3379.16 744.734 3377.36 744.207 3374.88 744.064ZM3313.04 739.398C3321.94 739.398 3328.66 741.348 3333.21 745.248 3337.76 749.148 3340.03 754.806 3340.03 762.223 3340.03 764.759 3339.78 767.092 3339.28 769.222 3338.77 771.351 3337.98 773.456 3336.91 775.538 3335.83 777.62 3334.38 779.857 3332.56 782.249 3330.75 784.642 3328.74 787.07 3326.53 789.535 3324.33 791.999 3320.53 796.102 3315.12 801.844 3306.03 811.463 3299.35 819.86 3295.1 827.038L3322.16 827.038C3324.5 827.038 3326.39 826.895 3327.83 826.608 3329.26 826.32 3330.41 825.842 3331.27 825.172 3332.13 824.502 3332.82 823.629 3333.32 822.552 3333.82 821.475 3334.45 819.813 3335.22 817.564L3341.32 817.564 3340.1 838.523 3281.03 838.523 3281.03 835.077C3283.09 830.053 3285.86 824.909 3289.35 819.645 3292.85 814.381 3297.8 808.185 3304.21 801.055 3309.76 794.93 3313.76 790.288 3316.2 787.13 3318.88 783.685 3320.88 780.706 3322.19 778.194 3323.51 775.682 3324.45 773.313 3325.03 771.088 3325.6 768.863 3325.89 766.626 3325.89 764.377 3325.89 760.788 3325.31 757.618 3324.17 754.866 3323.02 752.115 3321.26 749.949 3318.89 748.37 3316.52 746.791 3313.54 746.002 3309.95 746.002 3301.01 746.002 3294.98 750.978 3291.87 760.931L3283.18 760.931 3283.18 747.15C3288.97 744.422 3294.39 742.449 3299.44 741.228 3304.49 740.008 3309.02 739.398 3313.04 739.398Z" fill-rule="evenodd"/><text fill="#000000" fill-opacity="0" font-family="Arial,Arial_MSFontService,sans-serif" font-size="99.1245" x="3281.03" y="826.132">2𝐵</text><path d="M3271.63 693.406 3362.63 693.406 3453.63 693.406 3453.63 703.406 3362.63 703.406 3271.63 703.406Z" fill-rule="evenodd"/></g></svg>