<svg width="2944" height="769" xmlns="http://www.w3.org/2000/svg" xmlns:xlink="http://www.w3.org/1999/xlink" xml:space="preserve" overflow="hidden"><g transform="translate(-99 -701)"><path d="M352.5 1462.5 3036.53 1462.5" stroke="#000000" stroke-width="4.58333" stroke-linejoin="round" stroke-miterlimit="10" fill="none" fill-rule="evenodd"/><path d="M0 0 0.000360892 457.444" stroke="#000000" stroke-width="4.58333" stroke-linejoin="round" stroke-miterlimit="10" fill="none" fill-rule="evenodd" transform="matrix(1 0 0 -1 352.5 1469.94)"/><path d="M0 0 378.426 434.078" stroke="#FF0000" stroke-width="13.75" stroke-linejoin="round" stroke-miterlimit="10" fill="none" fill-rule="evenodd" transform="matrix(1 0 0 -1 637 1456.08)"/><path d="M1021 1459.23 1016 1022" stroke="#FF0000" stroke-width="13.75" stroke-linejoin="round" stroke-miterlimit="10" fill="none" fill-rule="evenodd"/><text font-family="Barlow,Barlow_MSFontService,sans-serif" font-weight="400" font-size="147" transform="matrix(1 0 0 1 187.195 1264)">f</text><text font-family="Barlow,Barlow_MSFontService,sans-serif" font-weight="400" font-size="98" transform="matrix(1 0 0 1 239.33 1300)">s</text><path d="M0 44.75 347.5 44.75 347.5 0 437 89.5 347.5 179 347.5 134.25 0 134.25Z" stroke="#000000" stroke-width="3.4375" stroke-miterlimit="8" fill="#92D050" fill-rule="evenodd" transform="matrix(1.83697e-16 1 1 -1.83697e-16 550.5 710.5)"/><text font-family="Barlow,Barlow_MSFontService,sans-serif" font-weight="700" font-size="83" transform="matrix(-1.83697e-16 -1 1 -1.83697e-16 673.05 1061)">TXDATA</text><path d="M0 0 0.000360892 312.322" stroke="#000000" stroke-width="4.58333" stroke-linejoin="round" stroke-miterlimit="10" stroke-dasharray="18.3333 13.75" fill="none" fill-rule="evenodd" transform="matrix(1 0 0 -1 637.5 1462.82)"/><path d="M347 1454 637.523 1454" stroke="#FF0000" stroke-width="13.75" stroke-linejoin="round" stroke-miterlimit="10" fill="none" fill-rule="evenodd"/><path d="M0 0 378.426 434.078" stroke="#FF0000" stroke-width="13.75" stroke-linejoin="round" stroke-miterlimit="10" fill="none" fill-rule="evenodd" transform="matrix(1 0 0 -1 1700 1463.08)"/><path d="M2083 1466.23 2078 1029" stroke="#FF0000" stroke-width="13.75" stroke-linejoin="round" stroke-miterlimit="10" fill="none" fill-rule="evenodd"/><path d="M0 44.5001 348.001 44.5001 348.001 0 437 89.0003 348.001 178 348.001 133.5 0 133.5Z" stroke="#000000" stroke-width="3.4375" stroke-miterlimit="8" fill="#92D050" fill-rule="evenodd" transform="matrix(1.83697e-16 1 1 -1.83697e-16 1613.5 717.5)"/><text font-family="Barlow,Barlow_MSFontService,sans-serif" font-weight="700" font-size="83" transform="matrix(-1.83697e-16 -1 1 -1.83697e-16 1735.24 1068)">TXDATA</text><path d="M0 0 0.000360892 312.322" stroke="#000000" stroke-width="4.58333" stroke-linejoin="round" stroke-miterlimit="10" stroke-dasharray="18.3333 13.75" fill="none" fill-rule="evenodd" transform="matrix(1 0 0 -1 1700.5 1468.82)"/><path d="M1021 1454 1699.76 1454" stroke="#FF0000" stroke-width="13.75" stroke-linejoin="round" stroke-miterlimit="10" fill="none" fill-rule="evenodd"/><path d="M0 0 378.426 434.078" stroke="#FF0000" stroke-width="13.75" stroke-linejoin="round" stroke-miterlimit="10" fill="none" fill-rule="evenodd" transform="matrix(1 0 0 -1 2373 1463.08)"/><path d="M2757 1466.23 2752 1029" stroke="#FF0000" stroke-width="13.75" stroke-linejoin="round" stroke-miterlimit="10" fill="none" fill-rule="evenodd"/><path d="M0 44.7501 347.5 44.7501 347.5 0 437 89.5001 347.5 179 347.5 134.25 0 134.25Z" stroke="#000000" stroke-width="3.4375" stroke-miterlimit="8" fill="#92D050" fill-rule="evenodd" transform="matrix(1.83697e-16 1 1 -1.83697e-16 2286.5 717.5)"/><text font-family="Barlow,Barlow_MSFontService,sans-serif" font-weight="700" font-size="83" transform="matrix(-1.83697e-16 -1 1 -1.83697e-16 2408.99 1068)">TXDATA</text><path d="M0 0 0.000360892 312.322" stroke="#000000" stroke-width="4.58333" stroke-linejoin="round" stroke-miterlimit="10" stroke-dasharray="18.3333 13.75" fill="none" fill-rule="evenodd" transform="matrix(1 0 0 -1 2373.5 1468.82)"/><path d="M2083 1454 2373.52 1454" stroke="#FF0000" stroke-width="13.75" stroke-linejoin="round" stroke-miterlimit="10" fill="none" fill-rule="evenodd"/><path d="M2745 1454 3035.52 1454" stroke="#FF0000" stroke-width="13.75" stroke-linejoin="round" stroke-miterlimit="10" fill="none" fill-rule="evenodd"/></g></svg>