<?xml version="1.0" encoding="UTF-8"?>
<svg id="Layer_1" xmlns="http://www.w3.org/2000/svg" version="1.1" viewBox="0 0 286.06935 148.14989">
  <!-- Generator: Adobe Illustrator 29.6.1, SVG Export Plug-In . SVG Version: 2.1.1 Build 9)  -->
  <rect x="8.57133" y=".5" width="269.49161" height="147.14989" fill="#fff" stroke="#000" stroke-miterlimit="10"/>
  <g>
    <rect x="-31.92347" y="64.4904" width="80.31948" height="15.72255" transform="translate(-64.1154 80.58795) rotate(-90)" fill="#fff" stroke="#000" stroke-miterlimit="10" stroke-width=".75"/>
    <g>
      <path d="M7.60893,86.59787H3.314v-1.29785l2.92969-.7793-2.92969-.77051v-1.30078h4.29492v.80566h-3.38086l3.38086.85254v.83496l-3.38086.84961h3.38086v.80566Z"/>
      <path d="M7.60893,81.61447H3.314v-.86719h4.29492v.86719Z"/>
      <path d="M7.60893,79.92111H3.314v-1.3916c0-.52734.02148-.87109.06445-1.03125.06445-.24609.20459-.45215.42041-.61816s.49463-.24902.83643-.24902c.26367,0,.48535.04785.66504.14355s.3208.21729.42334.36475.17041.29736.20361.44971c.04102.20703.06152.50684.06152.89941v.56543h1.62012v.86719ZM4.04057,79.05392h1.21875v-.47461c0-.3418-.02246-.57031-.06738-.68555s-.11523-.20557-.21094-.271-.20703-.09814-.33398-.09814c-.15625,0-.28516.0459-.38672.1377s-.16504.20801-.19043.34863c-.01953.10352-.0293.31152-.0293.62402v.41895Z"/>
      <path d="M7.60893,75.94552H3.314v-.86719h4.29492v.86719Z"/>
      <path d="M6.02982,69.83712l.2666-.84082c.46875.12891.81689.34326,1.04443.64307s.34131.68018.34131,1.14111c0,.57031-.19482,1.03906-.58447,1.40625s-.92236.55078-1.59814.55078c-.71484,0-1.27002-.18457-1.66553-.55371s-.59326-.85449-.59326-1.45605c0-.52539.15527-.95215.46582-1.28027.18359-.19531.44727-.3418.79102-.43945l.20508.8584c-.22266.05078-.39844.15674-.52734.31787s-.19336.35693-.19336.5874c0,.31836.11426.57666.34277.7749s.59863.29736,1.11035.29736c.54297,0,.92969-.09766,1.16016-.29297s.3457-.44922.3457-.76172c0-.23047-.07324-.42871-.21973-.59473s-.37695-.28516-.69141-.35742Z"/>
      <path d="M6.21147,68.47189l-.08203-.84375c.2832-.05078.49121-.15381.62402-.30908s.19922-.36475.19922-.62842c0-.2793-.05908-.48975-.17725-.63135s-.25635-.2124-.41455-.2124c-.10156,0-.18799.02979-.25928.08936s-.1333.16357-.18604.31201c-.03516.10156-.09766.33301-.1875.69434-.11523.46484-.25684.79102-.4248.97852-.23633.26367-.52441.39551-.86426.39551-.21875,0-.42334-.06201-.61377-.18604s-.33545-.30273-.43506-.53613-.14941-.51514-.14941-.84521c0-.53906.11816-.94482.35449-1.21729s.55176-.41553.94629-.4292l.03809.86719c-.2207.03711-.37939.1167-.47607.23877s-.14502.30518-.14502.54932c0,.25195.05176.44922.15527.5918.06641.0918.15527.1377.2666.1377.10156,0,.18848-.04297.26074-.12891.0918-.10938.1875-.375.28711-.79688s.20264-.73389.30908-.93604.25195-.36035.43652-.47461.4126-.17139.68408-.17139c.24609,0,.47656.06836.69141.20508s.37451.33008.479.58008.15674.56152.15674.93457c0,.54297-.12549.95996-.37646,1.25098s-.6167.46484-1.09717.52148Z"/>
      <path d="M7.60893,64.27658H3.314v-.86719h4.29492v.86719Z"/>
      <path d="M6.46342,62.68283h-.82324v-1.61719h.82324v1.61719Z"/>
      <path d="M6.84428,57.98654h.76465v2.88574c-.28906-.03125-.56299-.125-.82178-.28125s-.60205-.46484-1.02979-.92578c-.3457-.37109-.58008-.59863-.70312-.68262-.16992-.11328-.33789-.16992-.50391-.16992-.18359,0-.32471.04932-.42334.14795s-.14795.23486-.14795.40869c0,.17188.05176.30859.15527.41016s.27539.16016.51562.17578l-.08203.82031c-.45312-.04883-.77832-.20215-.97559-.45996s-.2959-.58008-.2959-.9668c0-.42383.11426-.75684.34277-.99902s.5127-.36328.85254-.36328c.19336,0,.37744.03467.55225.104s.35791.1792.54932.32959c.12695.09961.30957.2793.54785.53906s.39648.42432.47461.49365.1543.12549.22852.16846v-1.63477Z"/>
      <path d="M12.02982,98.67257l.2666-.84082c.46875.12891.81689.34326,1.04443.64307s.34131.68018.34131,1.14111c0,.57031-.19482,1.03906-.58447,1.40625s-.92236.55078-1.59814.55078c-.71484,0-1.27002-.18457-1.66553-.55371s-.59326-.85449-.59326-1.45605c0-.52539.15527-.95215.46582-1.28027.18359-.19531.44727-.3418.79102-.43945l.20508.8584c-.22266.05078-.39844.15674-.52734.31787s-.19336.35693-.19336.5874c0,.31836.11426.57666.34277.7749s.59863.29736,1.11035.29736c.54297,0,.92969-.09766,1.16016-.29297s.3457-.44922.3457-.76172c0-.23047-.07324-.42871-.21973-.59473s-.37695-.28516-.69141-.35742Z"/>
      <path d="M11.48783,97.26339c-.4375,0-.80469-.06543-1.10156-.19629-.21875-.09766-.41504-.23096-.58887-.3999s-.30273-.354-.38672-.55518c-.11328-.26758-.16992-.57617-.16992-.92578,0-.63281.19629-1.13916.58887-1.51904s.93848-.56982,1.6377-.56982c.69336,0,1.23584.18848,1.62744.56543s.5874.88086.5874,1.51172c0,.63867-.19482,1.14648-.58447,1.52344s-.92627.56543-1.60986.56543ZM11.45854,96.36984c.48633,0,.85498-.1123,1.10596-.33691s.37646-.50977.37646-.85547-.12451-.62939-.37354-.85107-.62256-.33252-1.12061-.33252c-.49219,0-.85938.10791-1.10156.32373s-.36328.50244-.36328.85986.12256.64551.36768.86426.61475.32812,1.10889.32812Z"/>
      <path d="M13.60893,92.41183h-4.29492v-.84375l2.86816-1.75781h-2.86816v-.80566h4.29492v.87012l-2.80078,1.73145h2.80078v.80566Z"/>
      <path d="M13.60893,88.07882h-4.29492v-.84375l2.86816-1.75781h-2.86816v-.80566h4.29492v.87012l-2.80078,1.73145h2.80078v.80566Z"/>
      <path d="M13.60893,83.7546h-4.29492v-3.18457h.72656v2.31738h.95215v-2.15625h.72363v2.15625h1.16895v-2.39941h.72363v3.2666Z"/>
      <path d="M12.02982,77.0046l.2666-.84082c.46875.12891.81689.34326,1.04443.64307s.34131.68018.34131,1.14111c0,.57031-.19482,1.03906-.58447,1.40625s-.92236.55078-1.59814.55078c-.71484,0-1.27002-.18457-1.66553-.55371s-.59326-.85449-.59326-1.45605c0-.52539.15527-.95215.46582-1.28027.18359-.19531.44727-.3418.79102-.43945l.20508.8584c-.22266.05078-.39844.15674-.52734.31787s-.19336.35693-.19336.5874c0,.31836.11426.57666.34277.7749s.59863.29736,1.11035.29736c.54297,0,.92969-.09766,1.16016-.29297s.3457-.44922.3457-.76172c0-.23047-.07324-.42871-.21973-.59473s-.37695-.28516-.69141-.35742Z"/>
      <path d="M13.60893,74.45285h-3.56836v1.27441h-.72656v-3.41309h.72656v1.27148h3.56836v.86719Z"/>
      <path d="M11.48783,71.93039c-.4375,0-.80469-.06543-1.10156-.19629-.21875-.09766-.41504-.23096-.58887-.3999s-.30273-.354-.38672-.55518c-.11328-.26758-.16992-.57617-.16992-.92578,0-.63281.19629-1.13916.58887-1.51904s.93848-.56982,1.6377-.56982c.69336,0,1.23584.18848,1.62744.56543s.5874.88086.5874,1.51172c0,.63867-.19482,1.14648-.58447,1.52344s-.92627.56543-1.60986.56543ZM11.45854,71.03683c.48633,0,.85498-.1123,1.10596-.33691s.37646-.50977.37646-.85547-.12451-.62939-.37354-.85107-.62256-.33252-1.12061-.33252c-.49219,0-.85938.10791-1.10156.32373s-.36328.50244-.36328.85986.12256.64551.36768.86426.61475.32812,1.10889.32812Z"/>
      <path d="M13.60893,67.08468h-4.29492v-1.8252c0-.45898.03857-.79248.11572-1.00049s.21436-.37451.41162-.49951.42285-.1875.67676-.1875c.32227,0,.58838.09473.79834.28418s.34229.47266.39697.84961c.10938-.1875.22949-.34229.36035-.46436s.36328-.28662.69727-.49365l.83789-.52441v1.03711l-.93457.62695c-.33398.22266-.54443.375-.63135.45703s-.14648.16895-.17871.26074-.04834.2373-.04834.43652v.17578h1.79297v.86719ZM11.13041,66.2175v-.6416c0-.41602-.01758-.67578-.05273-.7793s-.0957-.18457-.18164-.24316-.19336-.08789-.32227-.08789c-.14453,0-.26123.03857-.3501.11572s-.14502.18604-.16846.32666c-.00977.07031-.01465.28125-.01465.63281v.67676h1.08984Z"/>
      <path d="M13.60893,59.16281v.82324h-3.10254c.28125.30078.48926.65527.62402,1.06348h-.74707c-.07031-.21484-.20361-.44824-.3999-.7002s-.42529-.4248-.68701-.51855v-.66797h4.3125Z"/>
      <path d="M12.50443,57.92062l-.08496-.82031c.18555-.02344.33252-.09277.44092-.20801s.1626-.24805.1626-.39844c0-.17188-.06982-.31738-.20947-.43652s-.3501-.17871-.63135-.17871c-.26367,0-.46143.05908-.59326.17725s-.19775.27197-.19775.46143c0,.23633.10449.44824.31348.63574l-.09668.66797-2.23535-.42188v-2.17676h.77051v1.55273l.72949.12891c-.0918-.18359-.1377-.37109-.1377-.5625,0-.36523.13281-.6748.39844-.92871s.61035-.38086,1.03418-.38086c.35352,0,.66895.10254.94629.30762.37891.2793.56836.66699.56836,1.16309,0,.39648-.10645.71973-.31934.96973s-.49902.39941-.8584.44824Z"/>
      <path d="M12.46342,54.51339h-.82324v-1.61719h.82324v1.61719Z"/>
      <path d="M13.60893,52.41574h-4.29492v-1.3916c0-.52734.02148-.87109.06445-1.03125.06445-.24609.20459-.45215.42041-.61816s.49463-.24902.83643-.24902c.26367,0,.48535.04785.66504.14355s.3208.21729.42334.36475.17041.29736.20361.44971c.04102.20703.06152.50684.06152.89941v.56543h1.62012v.86719ZM10.04057,51.54855h1.21875v-.47461c0-.3418-.02246-.57031-.06738-.68555s-.11523-.20557-.21094-.271-.20703-.09814-.33398-.09814c-.15625,0-.28516.0459-.38672.1377s-.16504.20801-.19043.34863c-.01953.10352-.0293.31152-.0293.62402v.41895Z"/>
      <path d="M13.60893,48.44015h-4.29492v-.86719h4.29492v.86719Z"/>
      <path d="M13.60893,46.738h-4.29492v-.84375l2.86816-1.75781h-2.86816v-.80566h4.29492v.87012l-2.80078,1.73145h2.80078v.80566Z"/>
    </g>
  </g>
  <g>
    <rect x="237.67333" y="64.4904" width="80.31948" height="15.72255" transform="translate(205.4814 350.18475) rotate(-90)" fill="#fff" stroke="#000" stroke-miterlimit="10" stroke-width=".75"/>
    <g>
      <path d="M277.20561,91.91085h-4.29492v-2.94434h.72656v2.07715h1.0166v-1.79297h.72656v1.79297h1.8252v.86719Z"/>
      <path d="M277.20561,84.37863v.94336l-.97559.375v1.7168l.97559.35449v.91992l-4.29492-1.67285v-.91699l4.29492-1.71973ZM275.50639,85.97531l-1.59375.5918,1.59375.58008v-1.17188Z"/>
      <path d="M277.20561,83.90695h-4.29492v-.86719h1.90723l-1.90723-1.75195v-1.16602l1.67285,1.61719,2.62207-1.70508v1.12207l-2.01562,1.18066.71777.70312h1.29785v.86719Z"/>
      <path d="M277.20561,79.58273h-4.29492v-1.8252c0-.45898.03906-.79248.11621-1.00049s.21387-.37451.41113-.49951.42285-.1875.67676-.1875c.32227,0,.58887.09473.79883.28418s.3418.47266.39648.84961c.10938-.1875.22949-.34229.36035-.46436s.36328-.28662.69727-.49365l.83789-.52441v1.03711l-.93457.62695c-.33398.22266-.54395.375-.63086.45703s-.14648.16895-.17871.26074-.04883.2373-.04883.43652v.17578h1.79297v.86719ZM274.72709,78.71554v-.6416c0-.41602-.01758-.67578-.05273-.7793s-.0957-.18457-.18164-.24316-.19336-.08789-.32227-.08789c-.14453,0-.26074.03857-.34961.11572s-.14551.18604-.16895.32666c-.00977.07031-.01465.28125-.01465.63281v.67676h1.08984Z"/>
      <path d="M277.20561,71.3796v.94336l-.97559.375v1.7168l.97559.35449v.91992l-4.29492-1.67285v-.91699l4.29492-1.71973ZM275.50639,72.97628l-1.59375.5918,1.59375.58008v-1.17188Z"/>
      <path d="M275.6265,66.5046l.2666-.84082c.46875.12891.81738.34326,1.04492.64307s.34082.68018.34082,1.14111c0,.57031-.19434,1.03906-.58398,1.40625s-.92285.55078-1.59863.55078c-.71484,0-1.26953-.18457-1.66504-.55371s-.59375-.85449-.59375-1.45605c0-.52539.15527-.95215.46582-1.28027.18359-.19531.44727-.3418.79102-.43945l.20508.8584c-.22266.05078-.39844.15674-.52734.31787s-.19336.35693-.19336.5874c0,.31836.11426.57666.34277.7749s.59863.29736,1.11035.29736c.54297,0,.92969-.09766,1.16016-.29297s.3457-.44922.3457-.76172c0-.23047-.07324-.42871-.21973-.59473s-.37695-.28516-.69141-.35742Z"/>
      <path d="M275.08451,65.09543c-.4375,0-.80469-.06543-1.10156-.19629-.21875-.09766-.41504-.23096-.58887-.3999s-.30273-.354-.38672-.55518c-.11328-.26758-.16992-.57617-.16992-.92578,0-.63281.19629-1.13916.58887-1.51904s.93848-.56982,1.6377-.56982c.69336,0,1.23633.18848,1.62793.56543s.58691.88086.58691,1.51172c0,.63867-.19434,1.14648-.58398,1.52344s-.92676.56543-1.61035.56543ZM275.05522,64.20187c.48633,0,.85547-.1123,1.10645-.33691s.37598-.50977.37598-.85547-.12402-.62939-.37305-.85107-.62305-.33252-1.12109-.33252c-.49219,0-.85938.10791-1.10156.32373s-.36328.50244-.36328.85986.12305.64551.36816.86426.61426.32812,1.1084.32812Z"/>
      <path d="M277.20561,56.3796v.94336l-.97559.375v1.7168l.97559.35449v.91992l-4.29492-1.67285v-.91699l4.29492-1.71973ZM275.50639,57.97628l-1.59375.5918,1.59375.58008v-1.17188Z"/>
      <path d="M277.20561,56.35617l-2.24121-1.46777-2.05371,1.33008v-1.01367l1.37988-.86133-1.37988-.84375v-1.00488l2.08594,1.33594,2.20898-1.46777v1.0459l-1.48535.95215,1.48535.95508v1.04004Z"/>
      <path d="M281.6265,88.50216l.2666-.84082c.46875.12891.81738.34326,1.04492.64307s.34082.68018.34082,1.14111c0,.57031-.19434,1.03906-.58398,1.40625s-.92285.55078-1.59863.55078c-.71484,0-1.26953-.18457-1.66504-.55371s-.59375-.85449-.59375-1.45605c0-.52539.15527-.95215.46582-1.28027.18359-.19531.44727-.3418.79102-.43945l.20508.8584c-.22266.05078-.39844.15674-.52734.31787s-.19336.35693-.19336.5874c0,.31836.11426.57666.34277.7749s.59863.29736,1.11035.29736c.54297,0,.92969-.09766,1.16016-.29297s.3457-.44922.3457-.76172c0-.23047-.07324-.42871-.21973-.59473s-.37695-.28516-.69141-.35742Z"/>
      <path d="M281.08451,87.09298c-.4375,0-.80469-.06543-1.10156-.19629-.21875-.09766-.41504-.23096-.58887-.3999s-.30273-.354-.38672-.55518c-.11328-.26758-.16992-.57617-.16992-.92578,0-.63281.19629-1.13916.58887-1.51904s.93848-.56982,1.6377-.56982c.69336,0,1.23633.18848,1.62793.56543s.58691.88086.58691,1.51172c0,.63867-.19434,1.14648-.58398,1.52344s-.92676.56543-1.61035.56543ZM281.05522,86.19943c.48633,0,.85547-.1123,1.10645-.33691s.37598-.50977.37598-.85547-.12402-.62939-.37305-.85107-.62305-.33252-1.12109-.33252c-.49219,0-.85938.10791-1.10156.32373s-.36328.50244-.36328.85986.12305.64551.36816.86426.61426.32812,1.1084.32812Z"/>
      <path d="M283.20561,82.24142h-4.29492v-.84375l2.86816-1.75781h-2.86816v-.80566h4.29492v.87012l-2.80078,1.73145h2.80078v.80566Z"/>
      <path d="M283.20561,77.90841h-4.29492v-.84375l2.86816-1.75781h-2.86816v-.80566h4.29492v.87012l-2.80078,1.73145h2.80078v.80566Z"/>
      <path d="M283.20561,73.58419h-4.29492v-3.18457h.72656v2.31738h.95215v-2.15625h.72363v2.15625h1.16895v-2.39941h.72363v3.2666Z"/>
      <path d="M281.6265,66.83419l.2666-.84082c.46875.12891.81738.34326,1.04492.64307s.34082.68018.34082,1.14111c0,.57031-.19434,1.03906-.58398,1.40625s-.92285.55078-1.59863.55078c-.71484,0-1.26953-.18457-1.66504-.55371s-.59375-.85449-.59375-1.45605c0-.52539.15527-.95215.46582-1.28027.18359-.19531.44727-.3418.79102-.43945l.20508.8584c-.22266.05078-.39844.15674-.52734.31787s-.19336.35693-.19336.5874c0,.31836.11426.57666.34277.7749s.59863.29736,1.11035.29736c.54297,0,.92969-.09766,1.16016-.29297s.3457-.44922.3457-.76172c0-.23047-.07324-.42871-.21973-.59473s-.37695-.28516-.69141-.35742Z"/>
      <path d="M283.20561,64.28244h-3.56836v1.27441h-.72656v-3.41309h.72656v1.27148h3.56836v.86719Z"/>
      <path d="M281.08451,61.75998c-.4375,0-.80469-.06543-1.10156-.19629-.21875-.09766-.41504-.23096-.58887-.3999s-.30273-.354-.38672-.55518c-.11328-.26758-.16992-.57617-.16992-.92578,0-.63281.19629-1.13916.58887-1.51904s.93848-.56982,1.6377-.56982c.69336,0,1.23633.18848,1.62793.56543s.58691.88086.58691,1.51172c0,.63867-.19434,1.14648-.58398,1.52344s-.92676.56543-1.61035.56543ZM281.05522,60.86642c.48633,0,.85547-.1123,1.10645-.33691s.37598-.50977.37598-.85547-.12402-.62939-.37305-.85107-.62305-.33252-1.12109-.33252c-.49219,0-.85938.10791-1.10156.32373s-.36328.50244-.36328.85986.12305.64551.36816.86426.61426.32812,1.1084.32812Z"/>
      <path d="M283.20561,56.91427h-4.29492v-1.8252c0-.45898.03906-.79248.11621-1.00049s.21387-.37451.41113-.49951.42285-.1875.67676-.1875c.32227,0,.58887.09473.79883.28418s.3418.47266.39648.84961c.10938-.1875.22949-.34229.36035-.46436s.36328-.28662.69727-.49365l.83789-.52441v1.03711l-.93457.62695c-.33398.22266-.54395.375-.63086.45703s-.14648.16895-.17871.26074-.04883.2373-.04883.43652v.17578h1.79297v.86719ZM280.72709,56.04709v-.6416c0-.41602-.01758-.67578-.05273-.7793s-.0957-.18457-.18164-.24316-.19336-.08789-.32227-.08789c-.14453,0-.26074.03857-.34961.11572s-.14551.18604-.16895.32666c-.00977.07031-.01465.28125-.01465.63281v.67676h1.08984Z"/>
    </g>
  </g>
  <rect x="202.04089" y="89.25738" width="40.78501" height="23.27147" fill="#fff" stroke="#000" stroke-miterlimit="10" stroke-width=".75"/>
  <g>
    <path d="M216.86967,99.33712v-4.29492h1.3916c.52734,0,.87109.02148,1.03125.06445.24609.06445.45215.20459.61816.42041s.24902.49463.24902.83643c0,.26367-.04785.48535-.14355.66504s-.2168.3208-.36426.42334-.29785.17041-.4502.20361c-.20703.04102-.50684.06152-.89941.06152h-.56543v1.62012h-.86719ZM217.73686,95.76876v1.21875h.47461c.3418,0,.57031-.02246.68555-.06738s.20605-.11523.27148-.21094.09766-.20703.09766-.33398c0-.15625-.0459-.28516-.1377-.38672s-.20801-.16504-.34863-.19043c-.10352-.01953-.31152-.0293-.62402-.0293h-.41895Z"/>
    <path d="M220.67533,97.73751c0-.27344.06738-.53809.20215-.79395s.32617-.45117.57324-.58594.52246-.20215.82715-.20215c.4707,0,.85645.15283,1.15723.4585s.45117.69189.45117,1.15869c0,.4707-.15137.86084-.45508,1.17041s-.68652.46436-1.14746.46436c-.28516,0-.55664-.06445-.81543-.19336s-.45605-.31787-.59082-.56689-.20215-.55225-.20215-.90967ZM221.51908,97.78146c0,.30859.07324.54492.21973.70898s.32715.24609.54199.24609.39551-.08203.54102-.24609.21777-.40234.21777-.71484c0-.30469-.07227-.53906-.21777-.70312s-.32617-.24609-.54102-.24609-.39551.08203-.54199.24609-.21973.40039-.21973.70898Z"/>
    <path d="M227.28471,97.75802l.84082.2666c-.12891.46875-.34277.81689-.64258,1.04443s-.68066.34131-1.1416.34131c-.57031,0-1.03906-.19482-1.40625-.58447s-.55078-.92236-.55078-1.59814c0-.71484.18457-1.27002.55371-1.66553s.85449-.59326,1.45605-.59326c.52539,0,.95215.15527,1.28027.46582.19531.18359.3418.44727.43945.79102l-.8584.20508c-.05078-.22266-.15625-.39844-.31738-.52734s-.35742-.19336-.58789-.19336c-.31836,0-.57617.11426-.77441.34277s-.29785.59863-.29785,1.11035c0,.54297.09766.92969.29297,1.16016s.44922.3457.76172.3457c.23047,0,.42871-.07324.59473-.21973s.28516-.37695.35742-.69141Z"/>
    <path d="M207.84916,105.33712v-4.29492h1.29785l.7793,2.92969.77051-2.92969h1.30078v4.29492h-.80566v-3.38086l-.85254,3.38086h-.83496l-.84961-3.38086v3.38086h-.80566Z"/>
    <path d="M216.73197,105.33712h-.94336l-.375-.97559h-1.7168l-.35449.97559h-.91992l1.67285-4.29492h.91699l1.71973,4.29492ZM215.13529,103.63791l-.5918-1.59375-.58008,1.59375h1.17188Z"/>
    <path d="M216.75541,105.33712l1.46777-2.24121-1.33008-2.05371h1.01367l.86133,1.37988.84375-1.37988h1.00488l-1.33594,2.08594,1.46777,2.20898h-1.0459l-.95215-1.48535-.95508,1.48535h-1.04004Z"/>
    <path d="M223.79252,104.57248v.76465h-2.88574c.03125-.28906.125-.56299.28125-.82178s.46484-.60205.92578-1.02979c.37109-.3457.59863-.58008.68262-.70312.11328-.16992.16992-.33789.16992-.50391,0-.18359-.04883-.32471-.14746-.42334s-.23535-.14795-.40918-.14795c-.17188,0-.30859.05176-.41016.15527s-.16016.27539-.17578.51562l-.82031-.08203c.04883-.45312.20215-.77832.45996-.97559s.58008-.2959.9668-.2959c.42383,0,.75684.11426.99902.34277s.36328.5127.36328.85254c0,.19336-.03418.37744-.10352.55225s-.17969.35791-.33008.54932c-.09961.12695-.2793.30957-.53906.54785s-.42383.39648-.49316.47461-.12598.1543-.16895.22852h1.63477Z"/>
    <path d="M225.74076,101.02462c.41602,0,.74121.14844.97559.44531.2793.35156.41895.93457.41895,1.74902,0,.8125-.14062,1.39648-.42188,1.75195-.23242.29297-.55664.43945-.97266.43945-.41797,0-.75488-.16064-1.01074-.48193s-.38379-.89404-.38379-1.71826c0-.80859.14062-1.39062.42188-1.74609.23242-.29297.55664-.43945.97266-.43945ZM225.74076,101.70724c-.09961,0-.18848.03174-.2666.09521s-.13867.17725-.18164.34131c-.05664.21289-.08496.57129-.08496,1.0752s.02539.8501.07617,1.03857.11523.31396.19238.37646.16504.09375.26465.09375.18848-.03174.2666-.09521.13867-.17725.18164-.34131c.05664-.21094.08496-.56836.08496-1.07227s-.02539-.8501-.07617-1.03857-.11426-.31445-.19141-.37793-.16602-.09521-.26562-.09521Z"/>
    <path d="M229.07768,101.02462c.41602,0,.74121.14844.97559.44531.2793.35156.41895.93457.41895,1.74902,0,.8125-.14062,1.39648-.42188,1.75195-.23242.29297-.55664.43945-.97266.43945-.41797,0-.75488-.16064-1.01074-.48193s-.38379-.89404-.38379-1.71826c0-.80859.14062-1.39062.42188-1.74609.23242-.29297.55664-.43945.97266-.43945ZM229.07768,101.70724c-.09961,0-.18848.03174-.2666.09521s-.13867.17725-.18164.34131c-.05664.21289-.08496.57129-.08496,1.0752s.02539.8501.07617,1.03857.11523.31396.19238.37646.16504.09375.26465.09375.18848-.03174.2666-.09521.13867-.17725.18164-.34131c.05664-.21094.08496-.56836.08496-1.07227s-.02539-.8501-.07617-1.03857-.11426-.31445-.19141-.37793-.16602-.09521-.26562-.09521Z"/>
    <path d="M232.63725,105.33712v-.86426h-1.75781v-.7207l1.86328-2.72754h.69141v2.72461h.5332v.72363h-.5332v.86426h-.79688ZM232.63725,103.74923v-1.46777l-.9873,1.46777h.9873Z"/>
    <path d="M234.37748,104.34396l.79688-.08789c.01953.16211.07031.28223.15234.36035s.19043.11719.3252.11719c.16992,0,.31445-.07812.43359-.23438s.19531-.48047.22852-.97266c-.20703.24023-.46582.36035-.77637.36035-.33789,0-.62891-.13037-.87402-.39111s-.36816-.6001-.36816-1.01807c0-.43555.12988-.78662.38867-1.05322s.58789-.3999.98828-.3999c.43555,0,.79297.16846,1.07227.50537s.41895.89111.41895,1.6626c0,.78516-.14551,1.35156-.43652,1.69922s-.66992.52148-1.13672.52148c-.33594,0-.60742-.08936-.81445-.26807s-.33984-.4458-.39844-.80127ZM236.24076,102.54513c0-.26562-.06055-.47168-.18262-.61816s-.26367-.21973-.42383-.21973c-.15234,0-.27832.06006-.37891.18018s-.15137.31689-.15137.59033c0,.27734.05469.48096.16406.61084s.24609.19482.41016.19482c.1582,0,.29199-.0625.40039-.1875s.16211-.30859.16211-.55078Z"/>
  </g>
  <rect x="112.89293" y="45.4489" width="60.44448" height="53.80554" fill="#fff" stroke="#000" stroke-miterlimit="10"/>
  <g>
    <path d="M123.66996,74.27755v-5.72656h1.73047l1.03906,3.90625,1.02734-3.90625h1.73438v5.72656h-1.07422v-4.50781l-1.13672,4.50781h-1.11328l-1.13281-4.50781v4.50781h-1.07422Z"/>
    <path d="M135.51371,74.27755h-1.25781l-.5-1.30078h-2.28906l-.47266,1.30078h-1.22656l2.23047-5.72656h1.22266l2.29297,5.72656ZM133.3848,72.01193l-.78906-2.125-.77344,2.125h1.5625Z"/>
    <path d="M135.54496,74.27755l1.95703-2.98828-1.77344-2.73828h1.35156l1.14844,1.83984,1.125-1.83984h1.33984l-1.78125,2.78125,1.95703,2.94531h-1.39453l-1.26953-1.98047-1.27344,1.98047h-1.38672Z"/>
    <path d="M141.24418,72.95334l1.0625-.11719c.02588.21631.09375.37646.20312.48047s.25391.15625.43359.15625c.22656,0,.41943-.104.57812-.3125s.26025-.64062.30469-1.29688c-.27588.32031-.62109.48047-1.03516.48047-.45068,0-.83936-.17383-1.16602-.52148s-.49023-.80029-.49023-1.35742c0-.58057.17236-1.04883.51758-1.4043s.78467-.5332,1.31836-.5332c.58057,0,1.05713.22461,1.42969.67383s.55859,1.18799.55859,2.2168c0,1.04688-.19385,1.80225-.58203,2.26562s-.89307.69531-1.51562.69531c-.44775,0-.81006-.11914-1.08594-.35742s-.45312-.59424-.53125-1.06836ZM143.72855,70.5549c0-.354-.08154-.62891-.24414-.82422s-.35107-.29297-.56445-.29297c-.20312,0-.37158.08008-.50586.24023s-.20117.42236-.20117.78711c0,.36963.07275.64111.21875.81445s.32812.25977.54688.25977c.21094,0,.38867-.0835.5332-.25s.2168-.41162.2168-.73438Z"/>
    <path d="M149.38871,69.95334l-1.0625.11719c-.02588-.21875-.09375-.38037-.20312-.48438s-.25146-.15625-.42578-.15625c-.23193,0-.42773.104-.58789.3125s-.26123.64209-.30273,1.30078c.27344-.32275.61328-.48438,1.01953-.48438.4585,0,.85107.17432,1.17773.52344s.49023.79932.49023,1.35156c0,.58594-.17188,1.05615-.51562,1.41016s-.78516.53125-1.32422.53125c-.57812,0-1.05322-.22461-1.42578-.67383s-.55859-1.18555-.55859-2.20898c0-1.04932.19385-1.80615.58203-2.26953s.89209-.69531,1.51172-.69531c.43506,0,.79492.12158,1.08008.36523s.4668.59717.54492,1.06055ZM146.90043,72.34787c0,.35693.08203.63232.24609.82617s.35156.29102.5625.29102c.20312,0,.37256-.07959.50781-.23828s.20312-.41943.20312-.78125c0-.37256-.07275-.64502-.21875-.81836s-.32812-.25977-.54688-.25977c-.21094,0-.38916.08252-.53516.24805s-.21875.40967-.21875.73242Z"/>
    <path d="M150.11918,69.64865v-1.01953h3.75342v.79688c-.30957.30469-.625.74219-.94531,1.3125s-.56445,1.17627-.73242,1.81836-.25,1.21533-.24805,1.7207h-1.05859c.01855-.7915.18164-1.59912.49023-2.42188s.7207-1.55859,1.23633-2.20703h-2.49561Z"/>
    <path d="M154.59135,72.95334l1.0625-.11719c.02637.21631.09375.37646.20312.48047s.25391.15625.43359.15625c.22656,0,.41992-.104.57812-.3125.15918-.2085.26074-.64062.30469-1.29688-.27539.32031-.62109.48047-1.03516.48047-.4502,0-.83887-.17383-1.16602-.52148-.32617-.34766-.49023-.80029-.49023-1.35742,0-.58057.17285-1.04883.51758-1.4043.3457-.35547.78516-.5332,1.31836-.5332.58105,0,1.05762.22461,1.42969.67383.37305.44922.55859,1.18799.55859,2.2168,0,1.04688-.19336,1.80225-.58203,2.26562-.3877.46338-.89258.69531-1.51562.69531-.44727,0-.80957-.11914-1.08594-.35742-.27539-.23828-.45312-.59424-.53125-1.06836ZM157.07572,70.5549c0-.354-.08105-.62891-.24414-.82422-.16211-.19531-.35059-.29297-.56445-.29297-.20312,0-.37109.08008-.50586.24023-.13379.16016-.20117.42236-.20117.78711,0,.36963.07324.64111.21875.81445.14648.17334.32812.25977.54688.25977.21094,0,.38867-.0835.5332-.25s.2168-.41162.2168-.73438Z"/>
    <path d="M158.97807,72.75802l1.0625-.12891c.03418.271.125.47803.27344.62109s.32812.21484.53906.21484c.22656,0,.41797-.08594.57227-.25781.15527-.17188.23242-.40381.23242-.69531,0-.27588-.07422-.49463-.22266-.65625s-.3291-.24219-.54297-.24219c-.14062,0-.30859.02734-.50391.08203l.12109-.89453c.29688.00781.52344-.05664.67969-.19336s.23438-.31836.23438-.54492c0-.19287-.05664-.34619-.17188-.46094-.11426-.11475-.2666-.17188-.45703-.17188-.1875,0-.34766.06494-.48047.19531s-.21289.32031-.24219.57031l-1.01172-.17188c.07031-.34619.17676-.62305.31836-.83008.14258-.20703.33984-.36963.59375-.48828s.53906-.17773.85352-.17773c.53906,0,.97168.17188,1.29688.51562.26855.28125.40234.59912.40234.95312,0,.50244-.27441.90381-.82422,1.20312.32812.07031.59082.22803.78711.47266.19727.24463.29492.54053.29492.88672,0,.50244-.18359.93115-.55078,1.28516s-.82422.53125-1.37109.53125c-.51758,0-.94727-.14893-1.28906-.44727-.34082-.29834-.53906-.68799-.59375-1.16992Z"/>
  </g>
  <g>
    <path d="M105.74418,13.80636h-1.25781l-.5-1.30078h-2.28906l-.47266,1.30078h-1.22656l2.23047-5.72656h1.22266l2.29297,5.72656ZM103.61527,11.54074l-.78906-2.125-.77344,2.125h1.5625Z"/>
    <path d="M106.35355,8.0798h2.11328c.47656,0,.83984.03662,1.08984.10938.33594.09912.62354.2749.86328.52734s.42188.56201.54688.92773.1875.81689.1875,1.35352c0,.47119-.05859.87744-.17578,1.21875-.14307.4165-.34766.75391-.61328,1.01172-.20068.19531-.47119.34766-.8125.45703-.25537.08057-.59619.12109-1.02344.12109h-2.17578v-5.72656ZM107.5098,9.04855v3.79297h.86328c.32275,0,.55615-.01807.69922-.05469.1875-.04688.34326-.12646.4668-.23828s.22461-.29639.30273-.55273.11719-.60596.11719-1.04883-.03906-.78271-.11719-1.01953-.1875-.42188-.32812-.55469-.31885-.22266-.53516-.26953c-.16162-.03662-.47803-.05469-.94922-.05469h-.51953Z"/>
    <path d="M112.00199,12.27902v-1.09766h2.15625v1.09766h-2.15625Z"/>
    <path d="M117.46293,11.70089v-.96484h2.49219v2.28125c-.24219.23438-.59326.44092-1.05273.61914s-.92529.26758-1.39648.26758c-.59912,0-1.12109-.12549-1.56641-.37695s-.77979-.61084-1.00391-1.07812-.33594-.97607-.33594-1.52539c0-.59619.125-1.12646.375-1.58984s.61572-.81885,1.09766-1.06641c.36719-.18994.82422-.28516,1.37109-.28516.71094,0,1.26611.14893,1.66602.44727s.65674.71045.77148,1.23633l-1.14844.21484c-.08057-.28125-.23242-.50342-.45508-.66602s-.50049-.24414-.83398-.24414c-.50537,0-.90674.16016-1.20508.48047s-.44727.79541-.44727,1.42578c0,.67969.15088,1.18945.45312,1.5293s.69775.50977,1.1875.50977c.24219,0,.48486-.04736.72852-.14258s.45264-.21045.62695-.3457v-.72656h-1.32422Z"/>
    <path d="M121.0059,13.80636v-5.72656h1.73047l1.03906,3.90625,1.02734-3.90625h1.73438v5.72656h-1.07422v-4.50781l-1.13672,4.50781h-1.11328l-1.13281-4.50781v4.50781h-1.07422Z"/>
    <path d="M127.39262,11.94308l1.125-.10938c.06787.37744.20508.65479.41211.83203s.48633.26562.83789.26562c.37256,0,.65283-.07861.8418-.23633s.2832-.3418.2832-.55273c0-.13525-.03955-.25049-.11914-.3457s-.21826-.17773-.41602-.24805c-.13525-.04688-.44385-.13037-.92578-.25-.61963-.15381-1.05469-.34229-1.30469-.56641-.35156-.31494-.52734-.69922-.52734-1.15234,0-.2915.08252-.56445.24805-.81836s.40381-.44727.71484-.58008.68701-.19922,1.12695-.19922c.71875,0,1.25977.15771,1.62305.47266s.5542.73584.57227,1.26172l-1.15625.05078c-.04932-.29443-.15576-.50586-.31836-.63477s-.40674-.19336-.73242-.19336c-.33594,0-.59912.06885-.78906.20703-.12256.08838-.18359.20703-.18359.35547,0,.13525.05713.25146.17188.34766.146.12256.5.25,1.0625.38281s.97852.27002,1.24805.41211.48047.33594.63281.58203.22852.55029.22852.91211c0,.32812-.09131.63525-.27344.92188s-.43994.49951-.77344.63867-.74854.20898-1.24609.20898c-.72412,0-1.27979-.16748-1.66797-.50195s-.61963-.82227-.69531-1.46289Z"/>
    <path d="M133.05277,13.80636v-5.67969h1.15625v4.71484h2.875v.96484h-4.03125Z"/>
    <path d="M137.66605,9.17746v-1.01953h3.75391v.79688c-.31006.30469-.625.74219-.94531,1.3125s-.56445,1.17627-.73242,1.81836-.25049,1.21533-.24805,1.7207h-1.05859c.01807-.7915.18164-1.59912.49023-2.42188s.7207-1.55859,1.23633-2.20703h-2.49609Z"/>
    <path d="M142.13871,12.48214l1.0625-.11719c.02588.21631.09375.37646.20312.48047s.25391.15625.43359.15625c.22656,0,.41943-.104.57812-.3125s.26025-.64062.30469-1.29688c-.27588.32031-.62109.48047-1.03516.48047-.45068,0-.83936-.17383-1.16602-.52148s-.49023-.80029-.49023-1.35742c0-.58057.17236-1.04883.51758-1.4043s.78467-.5332,1.31836-.5332c.58057,0,1.05713.22461,1.42969.67383s.55859,1.18799.55859,2.2168c0,1.04688-.19385,1.80225-.58203,2.26562s-.89307.69531-1.51562.69531c-.44775,0-.81006-.11914-1.08594-.35742s-.45312-.59424-.53125-1.06836ZM144.62309,10.08371c0-.354-.08154-.62891-.24414-.82422s-.35107-.29297-.56445-.29297c-.20312,0-.37158.08008-.50586.24023s-.20117.42236-.20117.78711c0,.36963.07275.64111.21875.81445s.32812.25977.54688.25977c.21094,0,.38867-.0835.5332-.25s.2168-.41162.2168-.73438Z"/>
    <path d="M146.52543,12.28683l1.0625-.12891c.03369.271.125.47803.27344.62109s.32812.21484.53906.21484c.22656,0,.41748-.08594.57227-.25781s.23242-.40381.23242-.69531c0-.27588-.07422-.49463-.22266-.65625s-.32959-.24219-.54297-.24219c-.14062,0-.30859.02734-.50391.08203l.12109-.89453c.29688.00781.52344-.05664.67969-.19336s.23438-.31836.23438-.54492c0-.19287-.05713-.34619-.17188-.46094s-.26709-.17188-.45703-.17188c-.1875,0-.34766.06494-.48047.19531s-.21338.32031-.24219.57031l-1.01172-.17188c.07031-.34619.17627-.62305.31836-.83008s.33984-.36963.59375-.48828.53857-.17773.85352-.17773c.53906,0,.97119.17188,1.29688.51562.26807.28125.40234.59912.40234.95312,0,.50244-.2749.90381-.82422,1.20312.32812.07031.59033.22803.78711.47266s.29443.54053.29443.88672c0,.50244-.18311.93115-.55029,1.28516s-.82422.53125-1.37109.53125c-.51807,0-.94775-.14893-1.28906-.44727s-.53906-.68799-.59375-1.16992Z"/>
    <path d="M151.23979,13.80636v-5.72656h1.73047l1.03906,3.90625,1.02734-3.90625h1.73438v5.72656h-1.07422v-4.50781l-1.13672,4.50781h-1.11328l-1.13281-4.50781v4.50781h-1.07422Z"/>
    <path d="M157.88432,13.80636v-5.72656h1.15625v5.72656h-1.15625Z"/>
    <path d="M160.14213,13.80636v-5.72656h1.85547c.70312,0,1.16211.02881,1.375.08594.32812.08594.60352.27295.82422.56055.22168.2876.33203.65967.33203,1.11523,0,.35156-.06348.64697-.19141.88672-.12695.23975-.28906.42773-.48633.56445-.19629.13672-.39648.22705-.59961.27148-.27539.05469-.67578.08203-1.19922.08203h-.75391v2.16016h-1.15625ZM161.29838,9.04855v1.625h.63281c.45605,0,.76074-.02979.91406-.08984.1543-.06006.27441-.15381.36133-.28125.08789-.12744.13086-.27588.13086-.44531,0-.2085-.06055-.38037-.18359-.51562-.12207-.13525-.27734-.22021-.46484-.25391-.1377-.02588-.41504-.03906-.83203-.03906h-.55859Z"/>
    <path d="M165.44291,13.80636v-5.72656h1.15625v5.72656h-1.15625Z"/>
    <path d="M167.56791,12.27902v-1.09766h2.15625v1.09766h-2.15625Z"/>
    <path d="M170.36479,13.80636v-5.72656h4.24609v.96875h-3.08984v1.26953h2.875v.96484h-2.875v1.55859h3.19922v.96484h-4.35547Z"/>
    <path d="M177.16166,13.80636l-2.04688-5.72656h1.25391l1.44922,4.23828,1.40234-4.23828h1.22656l-2.05078,5.72656h-1.23438Z"/>
    <path d="M181.05229,13.80636v-5.72656h1.15625v2.54297l2.33594-2.54297h1.55469l-2.15625,2.23047,2.27344,3.49609h-1.49609l-1.57422-2.6875-.9375.95703v1.73047h-1.15625Z"/>
  </g>
  <g>
    <line x1="269.97179" y1="100.89311" x2="248.2744" y2="100.89311" fill="none" stroke="#000" stroke-miterlimit="10" stroke-width=".75"/>
    <polygon points="249.5938 99.10636 242.92669 100.89311 249.5938 102.67985 249.5938 99.10636"/>
  </g>
  <g>
    <line x1="202.04089" y1="95.25477" x2="180.3435" y2="95.25477" fill="none" stroke="#000" stroke-miterlimit="10" stroke-width=".75"/>
    <polygon points="180.60703 93.46802 173.93991 95.25477 180.60703 97.04151 180.60703 93.46802"/>
  </g>
  <g>
    <line x1="201.63621" y1="106.5881" x2="22.87614" y2="106.5881" fill="none" stroke="#000" stroke-miterlimit="10" stroke-width=".75"/>
    <polygon points="23.13967 104.80136 16.47255 106.5881 23.13967 108.37484 23.13967 104.80136"/>
  </g>
  <g>
    <line x1="179.38842" y1="72.35167" x2="264.52328" y2="72.35167" fill="none" stroke="#000" stroke-width=".75"/>
    <polygon points="180.60702 74.13841 173.9399 72.35167 180.60702 70.56492 180.60702 74.13841"/>
    <polygon points="263.00228 74.13841 269.66939 72.35167 263.00228 70.56492 263.00228 74.13841"/>
    <line x1="21.54606" y1="72.35167" x2="106.68091" y2="72.35167" fill="none" stroke="#000" stroke-width=".75"/>
    <polygon points="23.06705 74.13841 16.39996 72.35167 23.06705 70.56492 23.06705 74.13841"/>
    <polygon points="105.76473 74.13841 112.43185 72.35167 105.76473 70.56492 105.76473 74.13841"/>
  </g>
  <g>
    <path d="M59.85697,103.25851l.79688-.09668c.02539.20312.09375.3584.20508.46582s.24609.16113.4043.16113c.16992,0,.31299-.06445.4292-.19336s.17432-.30273.17432-.52148c0-.20703-.05566-.37109-.16699-.49219s-.24707-.18164-.40723-.18164c-.10547,0-.23145.02051-.37793.06152l.09082-.6709c.22266.00586.39258-.04248.50977-.14502s.17578-.23877.17578-.40869c0-.14453-.04297-.25977-.12891-.3457s-.2002-.12891-.34277-.12891c-.14062,0-.26074.04883-.36035.14648s-.16016.24023-.18164.42773l-.75879-.12891c.05273-.25977.13232-.46729.23877-.62256s.25488-.27734.44531-.36621.40381-.1333.64014-.1333c.4043,0,.72852.12891.97266.38672.20117.21094.30176.44922.30176.71484,0,.37695-.20605.67773-.61816.90234.24609.05273.44287.1709.59033.35449s.22119.40527.22119.66504c0,.37695-.1377.69824-.41309.96387s-.61816.39844-1.02832.39844c-.38867,0-.71094-.11182-.9668-.33545s-.4043-.51611-.44531-.87744Z"/>
    <path d="M64.50053,104.39816l-1.53516-4.29492h.94043l1.08691,3.17871,1.05176-3.17871h.91992l-1.53809,4.29492h-.92578Z"/>
    <path d="M67.19584,103.25851l.79688-.09668c.02539.20312.09375.3584.20508.46582s.24609.16113.4043.16113c.16992,0,.31299-.06445.4292-.19336s.17432-.30273.17432-.52148c0-.20703-.05566-.37109-.16699-.49219s-.24707-.18164-.40723-.18164c-.10547,0-.23145.02051-.37793.06152l.09082-.6709c.22266.00586.39258-.04248.50977-.14502s.17578-.23877.17578-.40869c0-.14453-.04297-.25977-.12891-.3457s-.2002-.12891-.34277-.12891c-.14062,0-.26074.04883-.36035.14648s-.16016.24023-.18164.42773l-.75879-.12891c.05273-.25977.13232-.46729.23877-.62256s.25488-.27734.44531-.36621.40381-.1333.64014-.1333c.4043,0,.72852.12891.97266.38672.20117.21094.30176.44922.30176.71484,0,.37695-.20605.67773-.61816.90234.24609.05273.44287.1709.59033.35449s.22119.40527.22119.66504c0,.37695-.1377.69824-.41309.96387s-.61816.39844-1.02832.39844c-.38867,0-.71094-.11182-.9668-.33545s-.4043-.51611-.44531-.87744Z"/>
  </g>
  <g>
    <path d="M50.72514,69.46798v-4.29492h1.29785l.7793,2.92969.77051-2.92969h1.30078v4.29492h-.80566v-3.38086l-.85254,3.38086h-.83496l-.84961-3.38086v3.38086h-.80566Z"/>
    <path d="M55.70854,69.46798v-4.29492h.86719v4.29492h-.86719Z"/>
    <path d="M57.40189,69.46798v-4.29492h1.3916c.52734,0,.87109.02148,1.03125.06445.24609.06445.45215.20459.61816.42041s.24902.49463.24902.83643c0,.26367-.04785.48535-.14355.66504s-.21729.3208-.36475.42334-.29736.17041-.44971.20361c-.20703.04102-.50684.06152-.89941.06152h-.56543v1.62012h-.86719ZM58.26908,65.89962v1.21875h.47461c.3418,0,.57031-.02246.68555-.06738s.20557-.11523.271-.21094.09814-.20703.09814-.33398c0-.15625-.0459-.28516-.1377-.38672s-.20801-.16504-.34863-.19043c-.10352-.01953-.31152-.0293-.62402-.0293h-.41895Z"/>
    <path d="M61.37748,69.46798v-4.29492h.86719v4.29492h-.86719Z"/>
    <path d="M67.48588,67.88888l.84082.2666c-.12891.46875-.34326.81689-.64307,1.04443s-.68018.34131-1.14111.34131c-.57031,0-1.03906-.19482-1.40625-.58447s-.55078-.92236-.55078-1.59814c0-.71484.18457-1.27002.55371-1.66553s.85449-.59326,1.45605-.59326c.52539,0,.95215.15527,1.28027.46582.19531.18359.3418.44727.43945.79102l-.8584.20508c-.05078-.22266-.15674-.39844-.31787-.52734s-.35693-.19336-.5874-.19336c-.31836,0-.57666.11426-.7749.34277s-.29736.59863-.29736,1.11035c0,.54297.09766.92969.29297,1.16016s.44922.3457.76172.3457c.23047,0,.42871-.07324.59473-.21973s.28516-.37695.35742-.69141Z"/>
    <path d="M68.85111,68.07052l.84375-.08203c.05078.2832.15381.49121.30908.62402s.36475.19922.62842.19922c.2793,0,.48975-.05908.63135-.17725s.2124-.25635.2124-.41455c0-.10156-.02979-.18799-.08936-.25928s-.16357-.1333-.31201-.18604c-.10156-.03516-.33301-.09766-.69434-.1875-.46484-.11523-.79102-.25684-.97852-.4248-.26367-.23633-.39551-.52441-.39551-.86426,0-.21875.06201-.42334.18604-.61377s.30273-.33545.53613-.43506.51514-.14941.84521-.14941c.53906,0,.94482.11816,1.21729.35449s.41553.55176.4292.94629l-.86719.03809c-.03711-.2207-.1167-.37939-.23877-.47607s-.30518-.14502-.54932-.14502c-.25195,0-.44922.05176-.5918.15527-.0918.06641-.1377.15527-.1377.2666,0,.10156.04297.18848.12891.26074.10938.0918.375.1875.79688.28711s.73389.20264.93604.30908.36035.25195.47461.43652.17139.4126.17139.68408c0,.24609-.06836.47656-.20508.69141s-.33008.37451-.58008.479-.56152.15674-.93457.15674c-.54297,0-.95996-.12549-1.25098-.37646s-.46484-.6167-.52148-1.09717Z"/>
    <path d="M73.04643,69.46798v-4.29492h.86719v4.29492h-.86719Z"/>
    <path d="M74.64018,68.32248v-.82324h1.61719v.82324h-1.61719Z"/>
    <path d="M79.33647,68.70334v.76465h-2.88574c.03125-.28906.125-.56299.28125-.82178s.46484-.60205.92578-1.02979c.37109-.3457.59863-.58008.68262-.70312.11328-.16992.16992-.33789.16992-.50391,0-.18359-.04932-.32471-.14795-.42334s-.23486-.14795-.40869-.14795c-.17188,0-.30859.05176-.41016.15527s-.16016.27539-.17578.51562l-.82031-.08203c.04883-.45312.20215-.77832.45996-.97559s.58008-.2959.9668-.2959c.42383,0,.75684.11426.99902.34277s.36328.5127.36328.85254c0,.19336-.03467.37744-.104.55225s-.1792.35791-.32959.54932c-.09961.12695-.2793.30957-.53906.54785s-.42432.39648-.49365.47461-.12549.1543-.16846.22852h1.63477Z"/>
  </g>
  <g>
    <path d="M212.03178,67.88888v-.72363h1.86914v1.71094c-.18164.17578-.44434.33057-.78906.46436s-.69434.20068-1.04785.20068c-.44922,0-.84082-.09424-1.1748-.28271s-.58496-.45801-.75293-.80859-.25195-.73193-.25195-1.14404c0-.44727.09375-.84473.28125-1.19238s.46191-.61426.82324-.7998c.27539-.14258.61816-.21387,1.02832-.21387.5332,0,.9502.11182,1.25.33545s.49219.53271.57812.92725l-.86133.16113c-.06055-.21094-.17383-.37744-.34082-.49951s-.37598-.18311-.62598-.18311c-.37891,0-.67969.12012-.90332.36035s-.33594.59668-.33594,1.06934c0,.50977.11328.89209.33984,1.14697s.52344.38232.89062.38232c.18164,0,.36426-.03564.54688-.10693s.33887-.15771.46973-.25928v-.54492h-.99316Z"/>
    <path d="M214.689,69.46798v-4.29492h1.29785l.7793,2.92969.77051-2.92969h1.30078v4.29492h-.80566v-3.38086l-.85254,3.38086h-.83496l-.84961-3.38086v3.38086h-.80566Z"/>
    <path d="M219.47904,68.07052l.84375-.08203c.05078.2832.1543.49121.30957.62402s.36426.19922.62793.19922c.2793,0,.49023-.05908.63184-.17725s.21191-.25635.21191-.41455c0-.10156-.0293-.18799-.08887-.25928s-.16406-.1333-.3125-.18604c-.10156-.03516-.33301-.09766-.69434-.1875-.46484-.11523-.79102-.25684-.97852-.4248-.26367-.23633-.39551-.52441-.39551-.86426,0-.21875.0625-.42334.18652-.61377s.30273-.33545.53613-.43506.51465-.14941.84473-.14941c.53906,0,.94531.11816,1.21777.35449s.41504.55176.42871.94629l-.86719.03809c-.03711-.2207-.11621-.37939-.23828-.47607s-.30566-.14502-.5498-.14502c-.25195,0-.44922.05176-.5918.15527-.0918.06641-.1377.15527-.1377.2666,0,.10156.04297.18848.12891.26074.10938.0918.375.1875.79688.28711s.73438.20264.93652.30908.36035.25195.47461.43652.1709.4126.1709.68408c0,.24609-.06836.47656-.20508.69141s-.33008.37451-.58008.479-.56152.15674-.93457.15674c-.54297,0-.95996-.12549-1.25098-.37646s-.46484-.6167-.52148-1.09717Z"/>
    <path d="M223.72416,69.46798v-4.25977h.86719v3.53613h2.15625v.72363h-3.02344Z"/>
    <path d="M227.15482,68.32834l.79688-.09668c.02539.20312.09375.3584.20508.46582s.24609.16113.4043.16113c.16992,0,.31348-.06445.42969-.19336s.17383-.30273.17383-.52148c0-.20703-.05566-.37109-.16699-.49219s-.24707-.18164-.40723-.18164c-.10547,0-.23145.02051-.37793.06152l.09082-.6709c.22266.00586.39258-.04248.50977-.14502s.17578-.23877.17578-.40869c0-.14453-.04297-.25977-.12891-.3457s-.2002-.12891-.34277-.12891c-.14062,0-.26074.04883-.36035.14648s-.16016.24023-.18164.42773l-.75879-.12891c.05273-.25977.13281-.46729.23926-.62256s.25488-.27734.44531-.36621.40332-.1333.63965-.1333c.4043,0,.72852.12891.97266.38672.20117.21094.30176.44922.30176.71484,0,.37695-.20605.67773-.61816.90234.24609.05273.44336.1709.59082.35449s.2207.40527.2207.66504c0,.37695-.1377.69824-.41309.96387s-.61816.39844-1.02832.39844c-.38867,0-.71094-.11182-.9668-.33545s-.4043-.51611-.44531-.87744Z"/>
    <path d="M230.25736,69.54123l1.06348-4.44141h.61816l-1.0752,4.44141h-.60645Z"/>
    <path d="M234.9683,68.70334v.76465h-2.88574c.03125-.28906.125-.56299.28125-.82178s.46484-.60205.92578-1.02979c.37109-.3457.59863-.58008.68262-.70312.11328-.16992.16992-.33789.16992-.50391,0-.18359-.04883-.32471-.14746-.42334s-.23535-.14795-.40918-.14795c-.17188,0-.30859.05176-.41016.15527s-.16016.27539-.17578.51562l-.82031-.08203c.04883-.45312.20215-.77832.45996-.97559s.58008-.2959.9668-.2959c.42383,0,.75684.11426.99902.34277s.36328.5127.36328.85254c0,.19336-.03418.37744-.10352.55225s-.17969.35791-.33008.54932c-.09961.12695-.2793.30957-.53906.54785s-.42383.39648-.49316.47461-.12598.1543-.16895.22852h1.63477Z"/>
  </g>
</svg>